<?xml version="1.0" encoding="utf-8"?>
<!-- Generator: Adobe Illustrator 23.0.4, SVG Export Plug-In . SVG Version: 6.00 Build 0)  -->
<svg version="1.1" id="Calque_1" xmlns="http://www.w3.org/2000/svg" xmlns:xlink="http://www.w3.org/1999/xlink" x="0px" y="0px"
	 viewBox="0 0 44 29.9" style="enable-background:new 0 0 44 29.9;" xml:space="preserve">
<g id="Sketchs_REF">
</g>
<g id="template_circle">
</g>
<g id="template_icon">
</g>
<g id="tool">
</g>
<g id="more">
</g>
<g id="menu">
</g>
<g id="compass-shopping_tools">
</g>
<g id="key">
</g>
<g id="delete">
</g>
<g id="pin">
</g>
<g id="cart">
</g>
<g id="engine">
</g>
<g id="menu_close">
</g>
<g id="accessories">
</g>
<g id="search">
</g>
<g id="user_account">
</g>
<g id="models">
	<g>
		<path d="M36.6,13.2c1.6,0,3.5,0.6,4.4,1l2.1,1l0-7.7c0-1-0.7-1.8-1.6-2.1l-7.5-1.9V0.6h-2.8c-0.6,0-1.4,0.3-1.8,0.7l-1.7,1.4
			c-0.6-0.4-1.3-0.8-2-1.1C24,0.8,22.2,0.5,20.4,0l-0.7,2.9C19.8,2.9,19.9,3,20,3c1,0.3,1.6,0.4,2.7,0.7C23.1,3.9,23.7,4,24,4.1
			c0.4,0.2,0.9,0.5,1.3,0.8l-2.7,2.5L4.2,2.8C3.6,2.6,3.1,2.7,2.6,3S1.9,3.7,1.7,4.3l-1.3,5.8c-0.2,0.9,0.1,1.9,0.7,2.6
			c0.7,0.7,1.6,1,2.6,0.7c0.7-0.2,1.6-0.2,2.8-0.2H7c2.7,0,5.4,1.1,7.4,3c2.1,1.9,3.2,4.4,3.2,7v1.5h9.1v-1.5
			C26.6,17.7,31.1,13.2,36.6,13.2z M23.7,21.7h-3.3c-0.4-2.9-1.8-5.6-4-7.7c-2.6-2.4-6-3.8-9.4-3.8H6.5c-1.2,0-2.2,0-3.1,0.2l1-4.4
			l17.7,4.5c0.8,0.2,1.7,0,2.2-0.6l4.8-4.5l10.9,2.8l0,2.6c-1.1-0.3-2.3-0.5-3.5-0.5C30,10.2,24.5,15.2,23.7,21.7z"/>
		<path d="M43.2,24.6l0.8-0.3l0-3.3l-0.9-0.3c-0.3-0.9-0.8-1.8-1.5-2.5l0.2-0.9L39,15.7l-0.7,0.6c-1-0.2-2.1-0.2-3.2,0l-0.7-0.6
			l-2.8,1.7l0.2,0.9c-0.3,0.4-0.6,0.8-0.9,1.2c-0.3,0.4-0.5,0.9-0.6,1.4l-0.8,0.2l0,3.3l0.8,0.3c0.3,1.1,0.9,2,1.6,2.8l-0.1,0.8
			l2.9,1.6l0.6-0.5c0.5,0.1,1,0.2,1.5,0.2c0.6,0,1.2-0.1,1.8-0.2c0,0,0.1,0,0.1,0l0.6,0.5l2.8-1.7l-0.2-0.8c0.3-0.3,0.5-0.7,0.8-1.1
			C42.8,25.7,43,25.2,43.2,24.6z M34.9,26.1c-0.9-0.5-1.5-1.3-1.7-2.2c-0.3-1-0.1-2,0.4-2.8c0.5-0.9,1.3-1.5,2.2-1.7
			c0.3-0.1,0.6-0.1,1-0.1c0.6,0,1.3,0.2,1.8,0.5c0.9,0.5,1.5,1.3,1.7,2.2c0.3,1,0.1,2-0.4,2.8l0,0c-0.5,0.9-1.3,1.5-2.2,1.7
			C36.7,26.7,35.7,26.5,34.9,26.1z"/>
		<path d="M14.5,21l-0.9-0.3c-0.3-0.9-0.8-1.8-1.5-2.5l0.2-0.9l-2.9-1.7l-0.7,0.6c-1-0.2-2.1-0.2-3.2,0l-0.7-0.6l-2.8,1.7l0.2,0.9
			c-0.3,0.4-0.6,0.8-0.9,1.2c-0.3,0.4-0.5,0.9-0.6,1.4L0,21.2l0,3.3l0.8,0.3c0.3,1.1,0.9,2,1.6,2.8l-0.1,0.8l2.9,1.6l0.6-0.5
			c0.5,0.1,1,0.2,1.5,0.2c0.6,0,1.2-0.1,1.8-0.2c0,0,0.1,0,0.1,0l0.6,0.5l2.8-1.7l-0.2-0.8c0.3-0.3,0.5-0.7,0.8-1.1
			c0.3-0.5,0.5-1,0.7-1.6l0.8-0.3L14.5,21z M5.4,26.1c-0.9-0.5-1.5-1.3-1.7-2.2c-0.3-1-0.1-2,0.4-2.8c0.5-0.9,1.3-1.5,2.2-1.7
			c0.3-0.1,0.6-0.1,1-0.1c0.6,0,1.3,0.2,1.8,0.5c0.9,0.5,1.5,1.3,1.7,2.2c0.3,1,0.1,2-0.4,2.8l0,0c-0.5,0.9-1.3,1.5-2.2,1.7
			C7.2,26.7,6.2,26.5,5.4,26.1z"/>
	</g>
</g>
<g id="promotion">
</g>
</svg>
