<svg xmlns="http://www.w3.org/2000/svg" xmlns:xlink="http://www.w3.org/1999/xlink" viewBox="0 0 754.02 228.49"><defs><clipPath id="a"><rect y="-176.28" width="754.02" height="493.77" style="fill:none;stroke:#333;stroke-miterlimit:10"/></clipPath></defs><title>topo1</title><g style="clip-path:url(#a)"><path d="M-5.49-12.33c13.13.08,14.09-6.07,24.06-13C27.29-31.38,42.24-32.81,52.73-36c11.67-3.53,23.86-10.88,36.55-9.42,9.21,1.06,18.24,6.15,27.3,8.1,13.54,2.92,27.68-1.58,41.23-2.35,8.1-.46,16.26-.16,24.37-.17,7.42,0,10,.54,15.35,3.26,4.37,2.22,9,6.52,14.46,8.15,7.88,2.35,16.73.32,24.38,3.53,6.23,2.61,7.55,5.71,11.28,11.37C253.13-5.2,258-3.3,267.56-.57c7.32,2.07,15,2.68,22.24,5.05,5.32,1.74,7.24,4.39,11.65,7,4.59,2.68,10.61,3.21,15.38,5.91s6.56,7.79,10.44,10.38c4.45,3,8.43,1.48,14.05,1.8s7.31,1.12,12.6,3.35c10.46,4.39,24.33,10,35.66,11.41,4.64.57,9-.25,13.33-1.3,18.46-4.52,38.53-6.83,56.67-12.79C469.37,27,470.56,20,478,14.63c5.55-4,13-2.86,20-4.38,19.5-4.26,35-9.89,46.88-26.91,5.77-8.27,9.52-17.3,16.52-24.79,6.32-6.76,13.8-12.06,20-18.95,7.56-8.39,10.46-14.36,2.3-23.12-8.8-9.44-7.78-13.22-8.37-25.84-.54-11.58-6.29-23.48-5-35.13.65-5.7,3.71-10.26,4.88-15.81,2.35-11.16-5.31-22.92.83-33.19" style="fill:none;stroke:#333;stroke-miterlimit:10;stroke-width:0.5px"/><path d="M.17,217.35c9.24,4.28,20.52,8,30.11,12.05,12.39,5.21,30.95,7.69,44.16,5.21,12.29-2.3,22.5-9.91,33.82-14.36,8.78-3.46,11.58-1.29,19.3,2.81,13.8,7.32,29.86,11.49,45.6,9.71,6-.68,12.41-5.6,18.28-5,6.9.75,13.74,8.29,21.06,10.13,14.32,3.61,30.06,4.69,44.62,7.13,7.07,1.18,20.26,2.68,26.84-.39,11.9-5.53,3.37-10.44-1.91-15.61-10.13-9.93,2.81-24-3.13-35.39-2.2-4.24-6.15-3.05-7.05-8.67-.52-3.24,2.1-11,3.82-13.78,7.95-12.61,24.39,6.93,37.54,7.67,16.79.94,33-12.88,50-15.47,3.17-.49,9.76-1.34,12.91-.22s4.35,4.12,7,5.52c6.29,3.31,12.85,2.53,20.23,3.11,9.79.77,21.56,3.37,31.26,1.75,9.92-1.66,15.38-7.25,26.09-2.81s19.26,14.95,27.93,22.14c8.52,7.07,15.45,8.62,16.17,20.19,1.54,25,18.65,34.52,42.45,32.55,28.14-2.32,11,31.46,18.75,47.88S596.75,317,605,332.9c3,5.89-.64,10,.82,15.64.87,3.4,5.78,7.61,6.61,11.15" style="fill:none;stroke:#333;stroke-miterlimit:10;stroke-width:0.5px"/><path d="M765.24,244c-3.77,2.37-29.21-26.22-28.9-31.06.24-3.72,5-8.46,6.17-12.14,1.38-4.23,1.77-9.7,2.51-14.13s2.9-9.51,1.43-13.91c-1.25-3.75-5.9-5.31-7.23-8.2-2.4-5.2-.15-10.87-2-16.43-2.07-6.32-7.45-9.48-8.44-16.53-1.54-10.92,13.86-19.12,5.66-28.95-3.31-4-11.11-5-15.28-8.41-3.86-3.16-5.75-8.08-9.69-11.13-7.85-6.09-16.15-5.56-25.11-3.12-5.39,1.47-15.21,6.67-21.13,3.91-4.35-2-11.74-19.18-12-24.35-.57-9.4,6-11,12.24-15.61,5-3.73,6.24-3.28,7-11.43,1.23-12.95-3-32.54,10.84-40.29,1,13.93,20.48,10.89,28.57,5.6,11-7.24,11.79-19.71,23.87-26.3,5.76-3.14,12.15-4.94,16.91-9.67,7.69-7.64,7.29-21.56,13.79-28.4" style="fill:none;stroke:#333;stroke-miterlimit:10;stroke-width:0.5px"/><path d="M132.91,93c-2.93-5.47-1-7.1.69-10.54a4.15,4.15,0,0,0-2.89-5.91c-6.36-1.22-8,6.83-14.29,8.4a6.53,6.53,0,0,0-5,5.88V91a6.79,6.79,0,0,0,0,1.1l.06.46c-.3,1.68.34,2.39,1.9,3.71,2.88,2.43,2.35.26,5.58.35,4.29.12,4.07-.84,7.15,3.36,1.6,2.18,2.47,4.21,3.77,5.74,2.81,3.34,8.36.81,7.78-3.51C137.24,99.17,135,96.85,132.91,93Z" style="fill:none;stroke:#333;stroke-miterlimit:10;stroke-width:0.5px"/><path d="M212.49,42.5c-2.26-5.36-2.07-9.92-1.52-15.92.77-8.47-1.21-10.06-9.7-10.13a185.37,185.37,0,0,1-36.67-4c-9.49-2-18.83-10-28.82-8.92-3.47.37-6.06,2.45-9.25,3.71-5.17,2-10.17,2.07-15.61,2.08-6.07,0-12.68.73-18.56-1C88.77,7.26,85,2.82,81.58,2.46c-4.16-.44-13.89,7-17.1,9.73C57.57,18,56.87,28,47.05,30.67,39.1,32.84,30.63,29,24.57,36.73c-6.84,8.72,1.34,13.4,8.38,16.54,6.07,2.72,9.39,7.8,14.83,11,3.27,1.92,7.24,1.19,10.56,2.92,4.53,2.35,5,6.37,6.63,10.94,3,8.43,1.17,11.9-1.15,20.5-2.41,9-6,7.4-4.38,15.94.93,5,1.67,12-1,16.14-5.06,7.84-1.73,14.2-7.93,21-3.5,3.83-9.11,12.24-8.19,17.77,9.24,1.3,17.91,4.75,27.49,4.37,6.08-.24,8.73-3.46,14.08-5.4,10.31-3.73,25.7-4.39,36.1-.88,10.82,3.66,14,13.27,22.56,19.09,7.59,5.15,19.36,2.25,28,3.12,4.23.43,14.2-.13,17.33,2.66,4.61,4.11,3.58,10.62,11.13,13.1,2.75.91,6.25,1.27,7.73-.73,1.93-2.59,1.26-10.3.18-13s-2.94-4.19-3.74-7.06-.88-5.17-2.09-8c-1.42-3.33-3.59-6.26-4.26-9.95-.56-3.11.44-6.38-.44-9.49-1.6-5.67-7-6.7-9.35-11.66-2.88-6.15-3-13.21-4.4-19.68-1.48-6.94-1.61-11.84,1.58-18.46,2.1-4.38,5.39-8.31,4.46-13.23-1-5.48-2.33-9.32-2.33-15.21,0-6.8-1.34-12.78,4.28-17.57,3.33-2.85,10.67-4.54,12.79-7.09h1.42c1.59-.41,7.28-1.48,8.88-3.65C216.33,47.12,213.76,45.53,212.49,42.5Z" style="fill:none;stroke:#333;stroke-miterlimit:10;stroke-width:0.5px"/><path d="M-53.75,94.24c4.47,9.42,10,3.59,18.14,11.76,4.09,4.1,15.46,9,16.34,15,.58,3.92,20,6.15,17.93,9.56-5,8.26-13.86.9-19.47,9-4.76,6.84-8.42,4.56-15.52,6.32-5,1.24-3.31,1.45-5.09,5.95-2.95,7.43-10.6,8.27-7.92,18,.93,3.35,3.82,5.31,4.34,8.51.48,3-2.76,7.4-3.12,10.54-.68,5.94,1,5.4,4.2,8.62s3.28,6.51,7.49,8.14c6.57,2.54,14.87,2.37,21.78,3.79,9,1.84,18.15.81,26.3,5.66a110.88,110.88,0,0,0,34.19,13.31c7.12,1.59,22.21,5.32,28.69-.08,1.82-1.51,2.47-3.94,4.39-5.52,2.66-2.18,6.9-3.51,10-4.86,6.6-2.9,15.06-6.28,22.13-7.41,7.28-1.16,14,4.62,20.62,6.92,10.42,3.65,20.86,9.44,32.05,9.07,10.63-.36,19.87-4.42,30.81-3.35,11.74,1.16,20.22,7,31.15,10.21,12.07,3.53,24.22,4.5,36.7,5.81,3.9.41,18.06,4.76,20.37.12,1.76-3.55-4.85-7.54-6.87-9.47-2.56-2.44-5.51-5.22-7.2-8.49-2.59-5-.79-10.46-2.33-15.3-1.4-4.38-5.95-5.12-8.22-9.5-2.72-5.25-1.76-10.61-3-16.25-1.57-7.3-4.62-15-9-20.83s-.67-6.47.88-13.12c1.33-5.7,1.48-15.54-2.19-20.42-4-5.38-18.22-4.26-17.94-11.16.16-3.78,6.31-12.22,8.18-15.64,4.21-7.71,5.27-19.68,12.08-25.57,9.24-8,23.18-5.65,34.29-6.38,7.7-.51,10.91-4.81,17.53-7.43,5.17-2,10.52-.31,15.77-2.52,5.62-2.36,10.28-8,9.86-14.55-.28-4.37-4.37-9.27-6.93-12.82-3.39-4.68-11.13-9.22-16.37-11.82-8.78-4.35-19.45-3.3-28.79-5.63a49.87,49.87,0,0,1-14.42-6.4c-2.64-1.64-4.49-4.68-6.29-5.82C247.93-2.36,240.58-3,236.09-5.23c-4.71-2.36-10.76-4.68-14.38-8.6-1.25-1.36-.88-2.74-2.51-4.19-1.39-1.25-3.8-1.58-5.49-2.24-4.47-1.75-4.75-4.12-8.05-6.52-5.4-3.93-15.78-1.31-22.25-2.75-3.88-.86-7.41-3.08-11-3.77-4.46-.86-9.2,2.11-13.51,2.88-9.16,1.64-20.43,5.43-29.71,2.11-2.47-.88-3.79-3.23-5.93-4-2.72-.93-6.85-.08-9.8-.07-3.62,0-8.15.31-11.52-.93-3.09-1.13-3.33-3.49-5.68-4.69-5.14-2.61-15.23,2.15-21,1.85-7.36-.38-12,3.2-19.4,5.57C42.61-26.31,28.82-23,17-15.76c-4.13,2.53-9.6,2.47-12.44,6.25C2.29-6.46,1.14.94-4.3-3.43l-6.16-.95c-4.15-.79-8.08-.2-12.38-.93S-32-8.4-36.42-7.22c-3.88,1-5.37,4-8.74,6.61" style="fill:none;stroke:#333;stroke-miterlimit:10;stroke-width:0.5px"/><path d="M647,164.68c-1.58-1.94-4.07-2.24-6.35-2.8s-4.6-.95-4.28-3.72c.27-2.36-.6-4.08-1.48-6.19-.68-1.61-1.38-3.2-1.91-4.87-.26-.78-.5-2.28-1.2-2.88-1.43-1.25-3.57,0-5,.54-2.44.93-4.8,1.8-7.44,1.18-1.56-.37-3.95-1.26-3.95-3.2,0-1.73,1.46-3.65.22-5.3-1-1.29-3-1.49-4.05-2.75s-1.42-3-2.58-4.27-2.51-1.8-2.35-3.79c.09-1.16.74-2.34-.27-3.24-.65-.58-1.8-.48-2.59-.55a17.17,17.17,0,0,1-5.08-1.48c-1.2-.46-2.46-1.3-3.67-1.63-.91-.25-1.55-.14-1.81.75a10.6,10.6,0,0,0,.35,4.88c.66,1.84,2.83,2.27,3.81,3.87,1.14,1.86.24,4.37,1.09,6.37,1,2.34,3.22,3.76,4,6.3.43,1.39.41,2.78,1.19,4.07a6.91,6.91,0,0,0,2.67,2.33c2.31,1.42,4.47,3.1,7,4.1,2.05.81,5.51,1.23,6.8,3.28a10.85,10.85,0,0,1,.61,2.25,4.62,4.62,0,0,0,1.24,1.88c1.32,1.3,2.54,2.88,3.91,4.11s3.62,1.14,5.36,2a3.84,3.84,0,0,1,2.4,3.79c0,.86-.41,1.68-.39,2.54l-.16.38a4,4,0,0,1-.09,2.28c-.43,1.53.49,2,1.65,2.87,1.68,1.29,3.32.7,4.07-1.28.29-.77.65-2.95,1.61-3.28.62-.2.47.3,1,.45.93.24,2.9-1.31,3.66-1.77a6.28,6.28,0,0,0,2.69-2.27A5.16,5.16,0,0,0,647,164.68Z" style="fill:none;stroke:#333;stroke-miterlimit:10;stroke-width:0.5px"/><path d="M685.54,188.52c-3.79-4.51-4.52-12.78-10.2-13.69-3-.48-4.07-6-5.15-10.78-1.21-5.31-5.57-4.81-6.08-10.26-.43-4.66-1.83-11.74-3.88-16.1-3.93-8.39-13.83-9.21-22.21-8-6.49.9-3.39-4.63-3-7,.6-4.07-9.3-11.82-14.82-17.14-2.76-2.66-5.13-3.33-6.65-6.7-1.26-2.79-1.11-5.78-2.13-8.67-1.25-3.55-2.7-6-3.41-9.62s-1.46-8-3.1-11.47c-4.91-10.24-19-7.1-26.8-13.59-6-5-18-14.91-24.16-4.93-5.9,9.59-1.17,22.59,1.79,32.6,3.3,11.17-2.13,21.8,4,32.82,1.38,2.48,4.06,4.55,4.72,7.32.57,2.36-.78,4.91-.89,7.27-.27,6.18,2.69,8.47,6.09,13.32,2.92,4.18,4.46,8.44,8.49,11.93,4.51,3.9,9.61,6.3,14.74,9.27,4.12,2.39,9.44,5.19,11.86,9.29,2.72,4.61,2.61,9.88,5.53,14.65,2.33,3.81.43,9.48,4.32,9.07,2.62-.27,6.48,4.82,4.85,7-2.91,3.86,4.77,10.48,5.14,15.06.41,5.05,6.91,14.93,11.62,17.67,4.35,2.53,9-1.06,12-3.63,2.64-2.24,9.62-6.13,10.08-9.34l12.84.42c2.2.39,3.89-1.07,5.64-2.28,4-2.74,8.12-5.19,12.17-7.83C700.14,207.79,692.18,196.42,685.54,188.52Z" style="fill:none;stroke:#333;stroke-miterlimit:10;stroke-width:0.5px"/><path d="M393.11,47.24c-.1.71-1.41.51-1.88.51-.63,0-1.25,0-1.87,0a19,19,0,0,1-2.36-.47c-.78-.12-1.59,0-2.37-.09a11.37,11.37,0,0,1-1.65-.41,19.69,19.69,0,0,0-2.29-.44,44.88,44.88,0,0,0-5.56-.36,11.79,11.79,0,0,1-3.34-.84A30.44,30.44,0,0,1,368.42,44a86.67,86.67,0,0,1-7.65-4.12,18.89,18.89,0,0,0-4.43-2,15.73,15.73,0,0,1-4-1.41c-1.06-.58-2.18-1-3.28-1.5a10.35,10.35,0,0,0-2.4-.89c-1-.18-2,0-3-.18a39.53,39.53,0,0,0-6.71-.13,26.77,26.77,0,0,0-4.3.22c-1.85.3-4.24,1-5.37,2.59-1,1.49-.38,3.8-.07,5.45a41.59,41.59,0,0,1,1.12,5.59,9.81,9.81,0,0,1-.26,2.91A26.79,26.79,0,0,1,327,55.09c-2.3,5.07-9.26,6.73-14.24,7.13A42.73,42.73,0,0,0,301.85,65c-4,1.47-7.87,3.27-11.86,4.77a72.48,72.48,0,0,1-11.46,3.68c-1.21.24-2.43.62-3.66.74a37.57,37.57,0,0,0-4.19.65c-1.88.41-3.77.66-5.64,1.14-1.67.44-3.23,1.08-4.85,1.65a21.3,21.3,0,0,0-7.42,5.12,19.47,19.47,0,0,0-2.67,3.46A22,22,0,0,0,247.86,90c-.92,2.46-.63,5.15-1.3,7.67-.27,1-.64,2-.9,3s-.4,2.17-.72,3.18a9.32,9.32,0,0,1-4.29,4.84c-1.08.58-2.63.8-3.26,2-.86,1.57,1.11,2.53,2.11,3.42a9.33,9.33,0,0,1,1.71,1.73,7.11,7.11,0,0,0,2,2.31c1,.63,2.07,1,3,1.72a7.8,7.8,0,0,1,2.58,3c3.19,6.06,3.4,13,4.51,19.65.42,2.51.16,5,.36,7.51a48,48,0,0,0,1.26,9.11,71.57,71.57,0,0,0,2.8,7,21.71,21.71,0,0,1,1.42,5.07,6.34,6.34,0,0,0,1,2.47c.67,1.13.83,2.21,2.31,2.35a4.41,4.41,0,0,0,2.77-.42,7.43,7.43,0,0,0,2.15-1.91,16.3,16.3,0,0,0,1.7-2.72c.51-1.13.89-2.33,1.44-3.45A11.35,11.35,0,0,1,272.1,165a7,7,0,0,1,3.67-1.73,41.88,41.88,0,0,1,7.35-1.43,33.71,33.71,0,0,1,5.93-.28,24.15,24.15,0,0,1,9.3,2.72,38,38,0,0,1,4.38,3.09c.84.64,1.82,1,2.69,1.56,1.07.7,1.67,2,2.86,2.49a15.75,15.75,0,0,0,4.74.73,21.43,21.43,0,0,0,4.6-.06c3.34-.47,6-2.94,8.86-4.47,2-1,4.13-1.64,6.19-2.53,1.74-.75,3.47-1.41,5.27-2s3.83-1.43,5.76-2.07c2.61-.86,5.4-1.09,8.05-1.76,2-.51,4.11-.67,6.17-1,1.56-.25,3.09-.59,4.66-.76a24,24,0,0,0,3.33-.77,26.46,26.46,0,0,1,4.69-.73,31.25,31.25,0,0,1,4.74,0,8.05,8.05,0,0,1,3.9,1.89,13.28,13.28,0,0,0,1.56.88c.59.33,1.05.84,1.64,1.18,2.29,1.32,5.05,1.67,7.49,2.63a57.12,57.12,0,0,0,15.36,3.32,88.52,88.52,0,0,0,8.91.5,73.05,73.05,0,0,0,8-.12c6.17-.68,12.65-.43,18.53-2.71,2-.77,4-1.45,6-2.27,2.3-1,5.09-2.81,6.36-5a46.91,46.91,0,0,0,3.23-8,45.63,45.63,0,0,0,2.71-12,70.67,70.67,0,0,0-.18-12.17,45,45,0,0,0-3.7-13.08c-1.71-4-3.35-8-4.95-12-1.45-3.64-3.33-7.09-3.35-11.11a14.69,14.69,0,0,1,3.31-9,42.47,42.47,0,0,1,7.07-7.36,48.48,48.48,0,0,1,6.23-4.29c2.83-1.67,5.57-3.16,7.72-5.71,1.43-1.68,2.91-3.24,4.41-4.86,1.64-1.77,3.11-3.7,4.59-5.61a27.2,27.2,0,0,0,4.06-6.15,57.61,57.61,0,0,0,2.31-7.54,13.34,13.34,0,0,0,.55-4.57,4.3,4.3,0,0,0-2.17-3c-1.48-1-3.25-.86-4.94-.85-2.2,0-4.63-.3-6.75.47-3.58,1.29-6.52,4-9.59,6.12-3.67,2.54-8,3.63-12.32,4.35a43.44,43.44,0,0,0-5.86,1.29,36.53,36.53,0,0,1-5.15,1.48,17.5,17.5,0,0,1-2.71,0c-3.39,0-6.77,0-10.16,0-7.07-.05-14.13,1.29-21.13,2-.33,0-.58.18-.9.24s-.9,0-1.35.06c-.92.16-1.68.74-2.56.94a5,5,0,0,1-1,0Z" style="fill:none;stroke:#333;stroke-miterlimit:10;stroke-width:0.5px"/><path d="M474.54,36.32c-1.59-.31-3.44,1.12-4.72,1.84a21.36,21.36,0,0,0-4.39,2.92,24.63,24.63,0,0,1-5.95,4.22,20.43,20.43,0,0,1-7.6,1.75,35.1,35.1,0,0,0-7.42,1.67,18.52,18.52,0,0,1-5.94.55c-2.56,0-5.09-.26-7.65-.25a30.29,30.29,0,0,0-3.16,0c-1.42.15-2.86.46-4.28.66s-2.59.62-3.91.85a46.94,46.94,0,0,1-5.3.43,84.4,84.4,0,0,1-9.41,0,14.75,14.75,0,0,1-3.31-.39,7.05,7.05,0,0,0-1.53-.32l-2.66,1c-1.86,0-9.56,2.53-11.4,2.33a12.76,12.76,0,0,0-2.89-.28c-2.46.25-4.91,1.05-7.4,1a14.73,14.73,0,0,1-4.09-.22,26.77,26.77,0,0,1-3.07-1.32,29.55,29.55,0,0,1-6.52-3.52,18.59,18.59,0,0,0-4.37-3.06,12.58,12.58,0,0,0-2.42-.52,28,28,0,0,1-5-1.19c-1.16-.42-2.3-.89-3.46-1.29A24.72,24.72,0,0,0,337,42c-.94.06-2.6-.21-2.83,1a5.09,5.09,0,0,0,.16,2,9.1,9.1,0,0,1-.22,5.22c-.87,2.25-2.38,4.14-3,6.47-.58,2.16-1.48,4.21-2.06,6.4a3.12,3.12,0,0,1-1,2,6.56,6.56,0,0,1-2.48.79,131.7,131.7,0,0,0-15.77,4.31c-6.45,2.34-13.1,4.12-19.61,6.32-4,1.34-7.94,2.8-11.91,4.2-2,.7-3.93,1.43-5.85,2.27-2.91,1.27-5.94,2.24-8.87,3.48-2.58,1.1-5.47,2-6.72,4.75a3.36,3.36,0,0,0-.37,2.32,12.69,12.69,0,0,1,.49,2.67,9.43,9.43,0,0,1-1.32,5.51,58,58,0,0,0-3.52,6c-.71,1.46-1.5,3.55-.92,5.2s2,2.57,3,3.83c1.69,2.17,2.33,4.64,3,7.23a104.7,104.7,0,0,1,2.83,11.19c.35,2.18.36,4.39.66,6.57.2,1.42.49,2.81.67,4.23.43,3.57.88,7.14,1.39,10.7.3,2.16.39,5.07,2.24,6.58a5.24,5.24,0,0,0,4.71.41,5.68,5.68,0,0,0,1.85-1.22,43.22,43.22,0,0,1,3.83-2.85,22.2,22.2,0,0,0,2.07-1.93,7.73,7.73,0,0,1,3.05-1.67c3.54-1.1,7.64-.46,11.18.21a28.88,28.88,0,0,1,15,7.51c.63.64,1.15,1.41,1.82,2a6.67,6.67,0,0,0,1.88,1,7.79,7.79,0,0,0,5,.2,26.58,26.58,0,0,0,4.8-2c1.35-.7,2.63-1.54,4-2.19s2.62-1.09,3.88-1.78c3.46-1.88,6.88-4,10.2-6.16,1.48-1,2.85-2.05,4.41-2.87a23,23,0,0,1,4-1.54,67.51,67.51,0,0,1,11.6-2.77,51.6,51.6,0,0,1,11.78-.29,46.78,46.78,0,0,1,8.81,2.06,29.12,29.12,0,0,1,5.38,2.32,43,43,0,0,0,4.16,2.29c1.13.48,2.3.87,3.47,1.27a35.2,35.2,0,0,0,10.6,2.27c3.19.08,6.38.31,9.57.56,4.22.33,8.35,1.34,12.54,1.89a28.26,28.26,0,0,0,8.69-.65,24.94,24.94,0,0,0,9-3.2,25.82,25.82,0,0,0,3.82-3.17c1.59-1.53,3.43-2.95,4.39-5a26.42,26.42,0,0,0,1.91-5.53,35.5,35.5,0,0,0,.7-8.23,26.59,26.59,0,0,0-1.48-8.28,38.32,38.32,0,0,0-3.74-8.4,41,41,0,0,1-2.92-5.57c-1.15-2.74-2.5-5.32-3.79-8a20.7,20.7,0,0,1-1.77-7.22c-.16-2.08-.09-4.23-.06-6.31a11.92,11.92,0,0,1,.52-3.31A37,37,0,0,1,442.15,81c.77-1.57,1.21-3.17,2.11-4.69a46,46,0,0,1,5.05-7.26c1.57-1.76,3-3.55,4.43-5.45A29.74,29.74,0,0,1,456,60.87c2.55-2.67,5.92-4.26,9.07-6.06a39.11,39.11,0,0,0,6.74-5,18.09,18.09,0,0,0,3.2-4,9.89,9.89,0,0,0,1.67-4.13C476.84,40.13,476.57,36.72,474.54,36.32Z" style="fill:none;stroke:#333;stroke-miterlimit:10;stroke-width:0.5px"/><path d="M443.79,137.52c-.3-1.35-.67-2.67-.91-4-.19-1.1-.23-2.27-.48-3.37-.34-1.52-.87-3-1.27-4.53-.74-2.76-2.81-4.24-4.74-6.14a12.2,12.2,0,0,1-3.15-4.54c-.6-1.64-1.47-3.21-2-4.87a30.19,30.19,0,0,1-1.33-9.14c.05-4.36-.35-8.69-.23-13a27.22,27.22,0,0,1,1.24-7.6,34.36,34.36,0,0,1,3-6.19,76.38,76.38,0,0,1,6-9.1c1.5-1.94,3.36-3.93,4.38-6.19.28-.62.63-2.08,0-2.68s-2.39-.2-3.25-.2c-3.8,0-7.57,0-11.36.22s-7.31.79-10.94,1.31c-1.21.17-2.4.44-3.62.49s-2.25,0-3.37,0a50.74,50.74,0,0,1-5.65-.24c-1.29-.15-2.62-.3-3.91-.53a5.41,5.41,0,0,1-1.72-.5c-.25-.18-4.39,1.55-4.56,1.64-.72-.22-5.29,3.15-5.84,3.46a2.47,2.47,0,0,1-2.31-.12,8.21,8.21,0,0,1-2.47-1.94c-1-1-2.43-1.12-3.81-1.22-5.56-.43-11.29.61-16.8-.53-1.22-.26-2.3-1-3.51-1.22a10.22,10.22,0,0,0-1.56-.1c-1.7,0-3.45,0-5.15,0-1,0-2,.25-3,.37s-2.11.16-3.16.3a11.51,11.51,0,0,0-5,1.8,8.63,8.63,0,0,0-2.18,1.84,5.93,5.93,0,0,0-.7,1.43,10.78,10.78,0,0,1-2.52,4.23c-2.62,2.29-6.09,3.83-9.24,5.23-4.56,2-9.16,3.94-13.72,6a115.6,115.6,0,0,1-23.62,7.81c-6.3,1.28-12.85,2.8-18,6.84a15.73,15.73,0,0,0-3.89,4c-.64,1.08-1,2.26-1.71,3.32-1.38,2.15-3.32,3.88-4.89,5.89-1.15,1.47-2.73,3.38-3.21,5.23a7,7,0,0,0,.73,5.28c.9,1.68,2.31,2.89,3.42,4.42,3.47,4.79,4.22,11.29,4.62,17,.21,2.81.58,5.58,1,8.37a16.83,16.83,0,0,0,1.6,6.25c.62,1.09,1.67,2.18,3.05,1.62a15.13,15.13,0,0,0,2.33-1.71,12.89,12.89,0,0,1,3.33-2,20.43,20.43,0,0,1,5.53-1.06c4.85-.21,10.25-.27,14.61,2.19,1.64.92,3.15,2.15,4.71,3.21a46.86,46.86,0,0,0,4.12,2.53,11.81,11.81,0,0,0,5.54,1,14.41,14.41,0,0,0,3.15-.14c3.33-.74,5.72-3,8.42-4.87a60.29,60.29,0,0,1,16.56-8,77.38,77.38,0,0,1,12.83-2.5,103.5,103.5,0,0,1,14-.54c4.62,0,9.25-.09,13.87,0a31.85,31.85,0,0,1,8.24,1.12,20.62,20.62,0,0,1,5,2.68,35.59,35.59,0,0,0,6.67,3.28,72.26,72.26,0,0,0,14,3.87,35.34,35.34,0,0,0,5.82.23,31.66,31.66,0,0,0,6.66-.57c2.88-.67,5.8-1.49,8.66-2.27a20.69,20.69,0,0,0,2.94-1.17,8.84,8.84,0,0,0,2.18-1.07C445.9,145.59,444.46,140.54,443.79,137.52Z" style="fill:none;stroke:#333;stroke-miterlimit:10;stroke-width:0.5px"/><path d="M425.37,148.59a3.56,3.56,0,0,0,1.8.27,17.46,17.46,0,0,0,4.25-.51c1.82-.45,4.15-1,5.37-2.55s-.11-3.19-.6-4.68a25.93,25.93,0,0,1-1.13-3c-.34-1.88-.29-3.75-.9-5.59-1.08-3.27-2.88-6.08-4.4-9.14-.73-1.45-1.55-2.86-2.22-4.34a27,27,0,0,0-2.07-3.25c-1.56-2.5-1.23-5.63-1.1-8.47.12-2.36.24-4.69.25-7.06a50.07,50.07,0,0,0-.84-9.39c-.44-2.4-.85-4.76-1.07-7.19-.18-2-.14-3.9-.14-5.86a30.27,30.27,0,0,1,.26-4.26c.2-1.42.52-2.85-.24-4.13-1.63-2.73-5.58-2.91-8.37-2.91a37.5,37.5,0,0,0-7,.56c-2.31.45-4.58,1.07-6.9,1.48-3.78.68-7.44,1.61-11.28,2a40.34,40.34,0,0,1-6.11.29A32.6,32.6,0,0,1,374.35,69a85.81,85.81,0,0,0-12.44-3.6,23.14,23.14,0,0,0-7-.15,22,22,0,0,0-7.12,2.52,12.29,12.29,0,0,0-2.66,1.62,27.91,27.91,0,0,0-2,2.34c-.89,1-1.85,1.93-2.8,2.88a20.82,20.82,0,0,1-6.05,4.35c-3.27,1.48-6.67,2.68-10,3.92-6.93,2.54-13.77,5.24-20.81,7.47-2.27.72-4.56,1.37-6.8,2.19-2.09.77-4.29,1.38-6.34,2.21a30.83,30.83,0,0,0-5.14,3c-1.85,1.19-3.74,2.4-5.49,3.72a10.86,10.86,0,0,0-3.54,3.75c-1.6,3.35-2,7.19-2.46,10.83a38,38,0,0,0-.27,5.23,18.1,18.1,0,0,0,1.15,5.42,11.49,11.49,0,0,1,.67,3.73,9.53,9.53,0,0,0,.37,3.36,4.13,4.13,0,0,0,1.65,2.62c1.29.73,2.72,1.37,4.07,2a15.55,15.55,0,0,0,6.27,1.59c1.27,0,2.53-.29,3.79-.42,1.7-.17,3.4-.07,5.1-.24a13.25,13.25,0,0,1,5.1.16c1.45.43,2.86.94,4.33,1.33,1.23.34,2.4.77,3.6,1.2a17.34,17.34,0,0,0,4.42.69,36.55,36.55,0,0,0,11.56-1.52c4.86-1.24,9.3-3.71,14.14-5.06a81.46,81.46,0,0,1,8-2,67.7,67.7,0,0,1,9.53-1c3.34-.09,6.69,0,10,0a102.63,102.63,0,0,1,10.67.38A115.88,115.88,0,0,1,394,136.2c3.39.84,6.6,2.33,10,3.06,1.11.24,2.17.69,3.3.89a12.85,12.85,0,0,1,2.45.83,4.71,4.71,0,0,1,1.58.75c.53.44,1.19.62,1.75,1s.94,1,1.53,1.38,1,.48,1.48.77a10.14,10.14,0,0,1,1.6,1.15,4.07,4.07,0,0,0,2.79.76A10.85,10.85,0,0,1,425.37,148.59Z" style="fill:none;stroke:#333;stroke-miterlimit:10;stroke-width:0.5px"/><path d="M419.64,91.72c.92-.15-.57,1.38-.16,2a4.59,4.59,0,0,1,.3,2c.12,2.12.53,4.16.51,6.29a41.52,41.52,0,0,1-.06,5,20.46,20.46,0,0,0-.2,2.71c0,1.32-.24,2.56-.28,3.87a16.81,16.81,0,0,0,.91,4.41,14.58,14.58,0,0,0,1.78,3.55,13.75,13.75,0,0,0,2.73,2.71,17.34,17.34,0,0,1,2.92,3.95c1.54,2.68,3.1,5.34,3.57,8.45a30.24,30.24,0,0,1,.31,4.66c0,1.17.14,2.32-.75,3.23a3.15,3.15,0,0,1-3,.71,16,16,0,0,1-5.27-1.94c-1.61-.92-3.16-1.9-4.74-2.86-.61-.37-1.12-.85-1.74-1.2-1.17-.67-2.46-1.19-3.68-1.77s-2.28-1-3.45-1.52a22.06,22.06,0,0,0-3.05-1.31,20.38,20.38,0,0,1-4.74-1.21,20.81,20.81,0,0,1-3.68-2.22,14.26,14.26,0,0,0-2.48-1.89,12,12,0,0,0-4.24-1.27c-4.09-.46-8.22,0-12.28-.49-1.34-.17-2.66-.34-4-.57-1-.17-2-.26-2.94-.49a14,14,0,0,1-3-1.27c-1.58-.79-2-1.87-2.28-3.53a2.76,2.76,0,0,0-2.21-2.4,8.17,8.17,0,0,0-3.89-.66c-1.44.28-1.88,1.27-2.17,2.64s-.63,2.41.53,3.44a4.19,4.19,0,0,1,1.4,1.74,1.92,1.92,0,0,1-1,2.32,5.5,5.5,0,0,1-1.63.71c-.79.16-1.63-.1-2.41.08-.51.12-1,.36-1.49.48s-1.11.2-1.66.31a22.35,22.35,0,0,1-3.89.7c-1.71,0-3.28.75-5,.78a19.49,19.49,0,0,0-2.86,0c-.55.12-1.1.26-1.64.41l-1.68.12a8,8,0,0,0-2.18.48c-.57.27-1,.74-1.58,1-.73.4-1.45.76-2.16,1.2-3.31,2.07-7,3.77-11,3.84-2.16,0-4.39.23-6.44-.54a22,22,0,0,0-3.35-1,25.71,25.71,0,0,0-4-.28,36.67,36.67,0,0,1-4.68-.43c-1.2-.21-2.38-.58-3.59-.74a51.59,51.59,0,0,0-5.7,0,8.56,8.56,0,0,1-4.62-1,5.08,5.08,0,0,1-1.58-1.44c-.76-1.34-.51-3.07-1.34-4.41-1.25-2-3.8-3.27-4.53-5.58-.25-.79-.24-1.64-.46-2.43a14.35,14.35,0,0,1-.48-1.79,5.7,5.7,0,0,1,.49-2.4,6.51,6.51,0,0,0,.23-2,14.75,14.75,0,0,1,.82-4,24.39,24.39,0,0,1,1.22-2.71c.54-1.14,1-2.33,1.56-3.44a7.42,7.42,0,0,1,4.21-3.51,67.57,67.57,0,0,1,6.94-2.1c1.32-.29,2.62-.33,3.92-.72,1-.29,2-.7,3-1,1.31-.38,2.63-.64,3.93-1a44.19,44.19,0,0,0,4.84-2c1.38-.61,2.79-1.12,4.16-1.77s2.5-1.25,3.78-1.8c2.08-.9,3.86-2.31,6-3,1.31-.44,2.64-.77,3.94-1.27a21.75,21.75,0,0,1,3.41-1.25,10.29,10.29,0,0,1,2.14-.07,15.94,15.94,0,0,0,4.84-.8A28.23,28.23,0,0,0,346,80.52a14.56,14.56,0,0,0,2.42-1.84,24.3,24.3,0,0,1,1.92-1.74c1-.89,1.82-1.89,2.9-2.72a6.63,6.63,0,0,1,3.9-1.6,14.36,14.36,0,0,1,6.55,1.47,8.22,8.22,0,0,1,2,1.55,6.12,6.12,0,0,0,3.71,1.6c3.5.51,7,.12,10.55,0,3.08-.13,6.12-.26,9.2-.26.67,0,1.52.09,2.2,0a11.47,11.47,0,0,0,2.54-.78c1.94-.69,3.94-.85,5.92-1.4a24.43,24.43,0,0,0,5-1.66,6.71,6.71,0,0,1,3.17-.76c2,0,4,0,6,0a2.81,2.81,0,0,1,2.47,1.07c.69,1,.4,2,.56,3.06.07.42.19.86.26,1.28s.1.95.22,1.34a4.32,4.32,0,0,0,.3.61A3.18,3.18,0,0,1,418,81c0,.66.49,1.11.52,1.77a8.65,8.65,0,0,0,.57,2.09,5.57,5.57,0,0,1,.17,1.53c0,.74.48,1.28.52,2Z" style="fill:none;stroke:#333;stroke-miterlimit:10;stroke-width:0.5px"/><path d="M376.57,80.64c1.93,1.8,5.94,1.21,8.33,1.09,3-.15,6.67-.23,9.59-1.07A37.34,37.34,0,0,1,401.81,79c2.36-.22,4.05-1.86,6.05-.18,3,2.47,3.24,7,4.32,10.46,1,3.11.77,5.67.67,8.94-.19,6,.94,11.9.45,17.89-.37,4.5,2.62,7.74,4.13,11.72.53,1.38,1.81,3.76.5,5-1.83,1.74-5.47-.66-7-1.38-5.92-2.74-10.31-7.81-16.79-9.33-4.94-1.16-9.77-3.22-14.86-2.73-4.23.42-7.38-1.1-11.27-2.91-2.26-1-3.33-2.29-5.92-2.29-3.2,0-4.79-.31-6.82,2.33a5.54,5.54,0,0,0-1.31,3.64c-.1,1.17,0,3.24-.92,4.14s-3.33.57-4.71.7A66.27,66.27,0,0,0,336,127.56c-2.77.79-5.81,1.43-8.29,3-2.22,1.38-2.95,2.13-5.79,2.21-7.61.2-15.13-1.39-22.69-1.8-1.95-.11-4.68-.13-6.35-1.28-1.28-.88-1.39-2.25-2.1-3.51-.57-1-1.45-1.8-2.07-2.79a9.3,9.3,0,0,1-1.08-6.66c.35-2.5-.14-6,1.29-8.24,1.91-2.92,6.61-4.6,9.93-5.1A90.42,90.42,0,0,0,315,99.17c3.6-1.25,5.63-3.23,8.85-5s7.42-2.28,11.08-3.43c4.06-1.28,10.8-1.92,14-4.92,2.11-2,2.85-3.08,6.14-3.48,4.4-.54,9.16,2.3,13.2-.58C370.42,80.48,372.77,78,376.57,80.64Z" style="fill:none;stroke:#333;stroke-miterlimit:10;stroke-width:0.5px"/><path d="M325.43,98.87c3.85-2.28,8.67-2.92,13-4a53.57,53.57,0,0,0,11.39-4.9,21.43,21.43,0,0,1,5.46-2.21c1.89-.4,3.82-.09,5.73-.19,5-.24,10-1.39,14.93-1.35,2.38,0,4.69.69,7.1.83,2.79.16,5.56.56,8.36.65a15.1,15.1,0,0,0,5.73-.83c1.5-.53,3.25-1.75,4.94-1.33,3.06.77,4.17,6.65,4.7,9.21.86,4.16.61,8.52,1.36,12.71.52,2.88.85,5.62-.84,8.11a8.77,8.77,0,0,1-8.69,4,29.81,29.81,0,0,1-7.49-2.19c-2.62-1-5-2.71-7.75-3.46-2.41-.66-4.72-.5-7.18-.6s-4.54-1-6.82-1.61c-5.82-1.55-13.13-2.35-19-.8-4.52,1.2-3.27,6.23-6.51,8.67-4.67,3.51-11.74,3.72-17.25,4.59a59.45,59.45,0,0,0-10,2.88c-2.71.92-5.37,1.77-8.12.68s-5.33-2.34-8-3.51c-2.08-.93-4.74-2-6.09-4-2.31-3.36-1.08-8.68,2.69-10.25,2.47-1,5.3-1.26,7.84-2.11,1.71-.57,3.33-1.5,5-2.16a21.66,21.66,0,0,0,5.67-3.44C317.47,100.75,322.2,100.78,325.43,98.87Z" style="fill:none;stroke:#333;stroke-miterlimit:10;stroke-width:0.5px"/><path d="M345.7,95.93c-2.23.32-3.56,2.59-5.35,3.41-1,.48-2.17.28-3.28.45a22.89,22.89,0,0,0-5.57,1.89c-2.43,1-4.6,2.51-7.08,3.46s-5,1.34-7.46,2.25c-2.72,1-5.47,2.17-8.12,3.35-1.88.84-6.36,2.51-6.76,5-.47,2.93,3.19,5.14,5.62,5.55,1.68.29,3.18-.7,4.71-1.18a9.89,9.89,0,0,1,4.62.05c1.72.3,3.19,1,4.94,1a15.15,15.15,0,0,0,4.87-.74,15.82,15.82,0,0,0,4.32-2.33,34.74,34.74,0,0,1,4.39-2.11c2.78-1.36,4.45-3.35,6.29-5.73,3.29-4.23,9.29-5.44,14.35-5.51,5.23-.07,10,1.28,15.06,2.4,6,1.33,12.27,1.28,18.34,2.45,3,.58,7.65,2.12,10.73,1,2.7-.94,2.2-5,2.16-7.2-.06-3.65-1-14.76-7-10.82A7.36,7.36,0,0,1,389,93.93c-3.81-.68-7.59-.93-11.41-1.41a80.81,80.81,0,0,0-11.75-.18c-3.12.06-6.12.84-9.22,1.13a4,4,0,0,1-2-.2C352.05,92.25,348.36,95.55,345.7,95.93Z" style="fill:none;stroke:#333;stroke-miterlimit:10;stroke-width:0.5px"/><path d="M312,114.06c.43-.58.44-.33,1-.63a41.8,41.8,0,0,1,8.58-3.22c2.07-.54,4.15-.93,6.19-1.62a35.12,35.12,0,0,0,5.36-2.82c1.9-1,7.28-3.06,5.94,1.11-.89,2.75-4.71,5-7.17,6a14.18,14.18,0,0,0-4,2.23,11.11,11.11,0,0,1-4.15,2.11c-2.5.67-5.37.28-8,.39-1.19.06-2.73-.24-3.85.18-.88.34-1.38,1-2.38,1.19-2,.35-3.81-1.19-2.87-2.94C307.67,114.15,310.93,115.44,312,114.06Z" style="fill:none;stroke:#333;stroke-miterlimit:10;stroke-width:0.5px"/><path d="M351.69,98.07c1.68-.24,3.68-.35,5.35-.44,3.13-.17,6.25-.4,9.38-.6a45.86,45.86,0,0,1,12.22.37,33.6,33.6,0,0,0,9.45.2c1.19-.09,2.34-.14,3.54-.2a11.68,11.68,0,0,1,3.17-.21c1.66.4,1.8,1.14,1.95,2.6.12,1.09.56,2.42.13,3.49-.75,1.84-3.17,2.17-4.82,2.51a31.13,31.13,0,0,1-9.73,0c-5.58-.71-10.88-2.77-16.43-3.51-3.58-.47-7.49-1.48-11.1-.91-3.09.49-5.75,2.39-8.78,2.81-.81.11-2.64,0-3.11-.91s.78-1.94,1.45-2.56C346.21,99,349.13,98.42,351.69,98.07Z" style="fill:none;stroke:#333;stroke-miterlimit:10;stroke-width:0.5px"/><path d="M601.86,321.15a54.4,54.4,0,0,0-3.44-5.3c-2.95-3.85-4.57-8.17-6.62-12.49-3-6.41-10.22-8.14-15.1-12.78-4.65-4.42-7.11-11.27-5.63-17.55,1.08-4.56,1.32-8.17-.29-12.73a33.52,33.52,0,0,0-6.23-10.94c-4.41-5.1-9.47-4.84-15.52-5.65-3.44-.46-7.77-2.07-10.15-4.64-2.88-3.13-4.38-7.51-8-9.94s-8.72-1.61-12.47-4.07c-3.3-2.17-2.14-7-4.47-10.09a15.72,15.72,0,0,0-3.61-3.25c-1.73-1.26-2.08-2.25-2.46-4.46-.64-3.78-2.29-8.12-5.62-10.13-1.08-.65-1.58-2.77-2.66-1.86-2.94,2.46-6.78-4.43-8.41-6.67a77.21,77.21,0,0,0-8.25-9.72c-3.24-3.24-6.15-6.7-9.51-9.82-2.47-2.3-5.27-3.88-7.23-6.66-2.12-3-1.8-5.35-1.8-9a52.49,52.49,0,0,1,0-7.42c.37-2.5,1.49-4.7,1.32-7.31-.34-5.19-2.5-9.52-1.25-14.72,1.34-5.61.36-10-.76-15.54-1-5.06-5.2-7.87-7.09-12.5-1.73-4.22.86-6.22,2.1-10,1.52-4.61,2.09-5.07,6.5-7.32,3.43-1.74,8.72-5.75,8.75-9.77,0-1.17-.66-2-.56-3.2.24-2.79,2.93-4,4.95-5.48,5.76-4.17,9.77-9,13.61-14.91,1.56-2.43,3.62-5.19,3.09-8.27a33.33,33.33,0,0,0-2.1-7.11c-.85-1.58-2.47-2.08-3.39-3.65a15.18,15.18,0,0,1-1.7-4.78c-.52-5.9,9.26-4.44,13.18-5,8.26-1.17,16.72-1.67,23.54-7,4.14-3.21,9.21-4.71,12.15-9.06.8-1.2,2.13-2.42,2.8-3.61.51-.91.51-2.16,1.09-3.17,5.33.57,9.06-5.39,12.59-8.42,5.88-5,12.78-6.8,20.27-8.91,12.8-3.6,25.85-7,39.39-6.86,13.83.14,27.41,8.44,30.56,22.71,1.84,8.32-.66,16.82-.93,25.22-.33,10.24-3.16,20.1-3.15,30.45,0,7.93-.81,16.28,1.49,23.48,3,9.45,10.24,17.06,17.43,23.78,12.58,11.76,27.23,19,36.85,33.6,5.15,7.81,11.59,15,16.08,23.36,3.83,7.11,2.89,16.57,4.94,24.39,2.51,9.55,4.71,19.68,7.13,29.34s-2.21,22.92-6.73,31.35c-5.8,10.81-22,18.94-32.8,24.27-10.15,5-22.43,6-26.54,17.5-1.41,3.93-3.69,5.5-5.67,9.12-2.43,4.46-1.35,9.78-.48,14.29,1.22,6.35-1.55,13.63,1.3,19.12,1.87,3.61,5.66,5.47,7.11,9.26,1.08,2.82-.22,5.44,2.47,7.38" style="fill:none;stroke:#333;stroke-miterlimit:10;stroke-width:0.5px"/><path d="M618.8,333.53c-4.68-2-8.93-8.08-11.6-12.35-2.3-3.69-2-8.11-3.83-11.94-1.3-2.68-3.53-3.51-5.54-5.51-1.42-1.42-2.17-3.29-3.35-4.92a88.76,88.76,0,0,0-8-9.67c-3.54-3.64-6.81-5.07-6.61-10.64a47.37,47.37,0,0,0,0-8.67c-1.32-9.25-7.47-20.48-16.26-24.23-3.69-1.58-6.92-3.9-10.53-5.64s-7.61-2-9.88-5.81c-1.87-3.19-2.39-5.14-5.76-7.35-4.08-2.68-8.32-2.53-12.74-4.2-5-1.87-2.91-6-5.35-9.88-1.75-2.77-4.58-4.86-6.5-7.61-1.15-1.65-4.94-8.36-6.42-9.82-.82-.81-.92-2.53-2.06-2.69-.51-.07-8.81-8.44-10.15-10.51-1.69-2.62-1.29-6.14-3.22-8.71-1-1.35-2.7-1.63-3.85-2.62a29.34,29.34,0,0,1-2.37-2.83c-3.6-4-9.43-5.91-10.9-11.23-2.4-8.68-2.09-18.55-1.77-27.41.17-4.76,1.12-8.87,1.88-13.51.32-1.93.72-4.64.18-6.56s-2.26-3.23-3-5c-1-2.39-2.75-5.22-3.27-7.73-.72-3.42,1.6-7,2.89-10,3.21-7.56,10.25-12.26,13.35-19.69.87-2.08,1.27-4.31,2.4-6.3,1.77-3.15,4.78-5.25,7.55-7.47,5.5-4.41,9.95-7.77,10.78-15.2.45-4.06-1.58-8.44-.75-12.4,1.23-5.91,8.39-5.18,12.72-6.12s8.49-2.48,12.67-3.77c2.72-.84,7.05-2,9.22-4a33.56,33.56,0,0,0,4.73-7c.68-1.34,0-3.61,2-3.63-.07-3.06,25.09-9.8,29.36-12.08,9.25-4.93,21.13-13,32.1-12,20.6,1.87,32.4,19,26.18,38.19C628.24,30.2,634.4,44.91,628,59.2c-3.31,7.4-1.35,9.12,3,16s7.71,14.56,12.33,21.15c7.44,10.61,20.66,18.43,30.87,26.08,14,10.49,20.71,31.58,24.78,47.85,4.6,18.35,25.36,39.61,11.63,58.24-10.83,14.7-25.13,21.26-41.29,28.77-10,4.66-23.93,13.15-29.28,23.48-4.29,8.29-.83,20.3,1.46,28.86,1.79,6.67,6.15,21.63,11.56,25.88" style="fill:none;stroke:#333;stroke-miterlimit:10;stroke-width:0.5px"/><path d="M623.57,330.83c-8.74-5.81-11.27-16.1-13.9-25.57-1.66-6-3-10.75-7.28-15.51-2.16-2.39-4.75-4.5-6-7.5-.71-1.73-1.1-3.51-1.9-5.23-1.76-3.8-4.37-5.62-7.22-8.51-3.09-3.13-3.89-7.17-5.52-11.07-2.8-6.68-8.18-10.26-14.06-13.81-3.82-2.3-7.21-5.1-11.32-6.9-2.65-1.17-5.25-2-7.44-3.92-3.9-3.5-7-8.15-11.22-11.23-3.15-2.29-7-2.35-10-4.71a14.53,14.53,0,0,1-5.07-6.57c-1-2.63-3.55-4.38-5.26-6.82-2.12-3-4.7-6.84-5.63-10.47-.44,0-.18.62-.41.43-.92-.76-.06-2.27-1-3-3.6-2.54-7-6.64-7.61-11.08-.48-3.22,1-6.35-1.21-9-1.72-2.1-4.89-3.79-7-5.58a45.25,45.25,0,0,1-10-11.91,15.51,15.51,0,0,1-1.55-9.42,69,69,0,0,0,1-12.57,139.11,139.11,0,0,0-2.17-23.43c-.77-4.53-2.26-9.51-1.42-14.2.57-3.22,3.07-6.36,4.75-9.07,2.7-4.36,5.26-8.87,8.53-12.78,6.16-7.38,9.9-16.19,16.59-23.14,2.5-2.6,3-4.69,4.38-7.92,1.72-4.06,3.87-6.12,7.12-9,2.64-2.35,4.85-4.59,8-6.31s6.79-2.65,10-4.39c5-2.7,6.45-6,8.5-10.93s9.55-5.6,14.41-5.37c5.61.28,10,0,15.21-2.74,11.29-6,25-18.12,38.28-8.66a14.28,14.28,0,0,1,5,17.14c-1,2.37-3.56,4.1-4.39,6.74-1.43,4.56,1,7.51,2.33,11.68,1.72,5.5,3.12,14.07.61,19.47-2.68,5.76-9.28,5.45-9.72,12.17-.4,5.93,1.49,9.44,4.49,14.27,4,6.46,6.69,13.62,10.72,20.11,4.52,7.28,9,13.25,15,18.71,2.1,1.91,3.65,5.09,6.13,6.62,2.86,1.76,6.15,1.49,9.13,3.17,8,4.53,14.46,14.33,18.41,22.34,1.85,3.76,4.15,7,5.36,10.95,1,3.19,1.7,6.15,3.45,9.1C692.77,182.64,710.84,199,698,220c-10.37,17-30.58,23-46.38,34.1-5.87,4.11-11.42,8.56-17.2,12.76-4.34,3.14-9.43,4.07-13.91,6.82-6.71,4.12-3.25,9.45-.88,15.25,2.29,5.6,6,14.14,10.28,18.34,1.27.13,5.2,18.07,7.3,21.25,1.33,2,3.38,3.5,4.81,5.37" style="fill:none;stroke:#333;stroke-miterlimit:10;stroke-width:0.5px"/><path d="M552.69,22.75c-1.63,2.78-3.25,3-4.6,5-1.82,2.74-5.26,5.79-7.89,7.87-3.54,2.8-8.21,3.21-11.8,5.79-3.39,2.44-6.62,6.91-8.87,10.38-3.61,5.53-6.65,11.39-9.77,17.18-2.61,4.87-6.1,9.21-8.82,14-2.35,4.17-6.15,9.74-6.46,14.63-.25,4,1.93,7.68,2.25,11.62.91,11.21-.32,22.6,1.62,33.79.4,2.32,1.27,6.1,2.88,7.94,1.35,1.56,3,1,4.81,2.24,2.33,1.56,3.63,5.12,5,7.45,2.28,3.93,3.09,7.92,4.84,12,1.6,3.78,3.34,7,4.49,11,1,3.56,1.44,1.88,3.8,3.83.39.33.39.81.67,1.45a15.75,15.75,0,0,1,.56,1.68,18.79,18.79,0,0,0,3.13,5.36,32.58,32.58,0,0,0,2.94,3.92c.8.79,1.9,1.34,2.66,2.16,1.72,1.86,1.91,4.71,4.86,5.37,1.35.3,2.84-.37,4.22-.3a8,8,0,0,1,4.46,2c2.35,1.69,3.54,3.57,3.4,6.53-.12,2.61-2,4.32-2.08,7,0,2.31.26,3.34,1.9,4.86a27.34,27.34,0,0,0,4,2.95c2,1.24,3.91,3,6,3.94,3.5,1.54,7.27,2.09,10.48,4.4,4.37,3.14,8.82,6.92,11.92,11.38,1.53,2.21,1.82,4.87,3.34,7.05a23.72,23.72,0,0,0,6.2,6c5.37,3.69,12.38,6.76,19,5.43a23.29,23.29,0,0,0,12.37-6.49,25.07,25.07,0,0,0,3.45-4.32c1.68-2.75,3.93-5.91,4.89-9,1.06-3.39-1.42-4.42-3-7-1.27-2-1.47-4.19-2.16-6.38-.88-2.83-2.86-4-4.06-6.49a23.88,23.88,0,0,1-2.06-5.78,20.24,20.24,0,0,0-1.63-4.67c-1.73-3.78-1.31-6.22-4.49-9.84a32.12,32.12,0,0,1-5.08-8.69l-.72-2.61L606.9,189l-3.48-6.08s-3.19-5.95-6.69-7.06c-2.68-.85-2.78-4.28-4.37-6.25a10.9,10.9,0,0,0-7.26-3.91c-4.48-.51-6.88-.73-10.45-4.16-2.24-2.14-4.55-4.45-6.67-6.71-2.66-2.82-2.94-6.55-4.18-10.07-1.07-3.07-2.35-6.18-3.66-9.17-1.13-2.59-3.07-4.09-4.5-6.44-2-3.31-1.23-7.26-1.37-11a125,125,0,0,0-1.56-12.66c-1-7.36-2.59-14.53-3.71-21.86-.74-4.81-1.07-9.64-2.13-14.41-.77-3.43-2-6.48-1.59-10.09.69-6.61,8.56-15.71,16-16,.23.63,3.07,1.13,4,1.33a23.08,23.08,0,0,1,2.86.74c2,.7,3.16,1.82,5,2.91,2.4,1.45,4.82,1.46,7.56,1.31,2.12-.12,4.18-1.28,5.93.28,1.36,1.21,1.89,2.4,3.56,3.38l4.72,2.78a5.56,5.56,0,0,0,7.79-2,12.94,12.94,0,0,1,1.31-2.5,9.77,9.77,0,0,1,3.29-1.8c1.5-.64,3.63-1.14,4.8-2.32,1.77-1.77.41-3.13-.7-4.85C610,40.24,609.54,39,610,36.52c.33-1.83,1-3.91.46-5.77-1-3.56-5-5.93-6.56-9.32-1.37-3-2.28-6.61-.24-9.42s6.27-3.47,8.05-6.48c1.45-2.46,1.17-6.14-1.24-7.82C607.7-4.22,603.17-3.7,600-3.57c-2.34.1-3.69,1.4-5.51,2.93a10.37,10.37,0,0,0-3.32,4.09c-.9,2.08-1.45,4.34-2.53,6.35-.58,1.09-3.91,5.14-5.66,3.8-.83-.64-.12-2.82-1.28-3.24C577.05,8.66,561.15,8.36,552.69,22.75Z" style="fill:none;stroke:#333;stroke-miterlimit:10;stroke-width:0.5px"/><path d="M623.68,245.08c-.66-4.44-3.27-8.06-4.15-12.39-.62-3-.12-5.95-2.5-8.37l-.69-.65c-.21-.21-.43,0-.71-.12-.82-.24-1.09-.62-2-.62-1.9,0-3.88.2-5.12,1.8-.64.82-1,2.1-2,2.62a3,3,0,0,1-2.47,0c-.93-.51-.89-1.36-1.09-2.26-.16-.7-.39-1.29-.49-2-.49-3.56-4.78-5.14-7.7-6.33-.64-.26-1.22-.65-1.86-.89s-1-.24-1.49-.45a14.33,14.33,0,0,1-1.3-.9,8.64,8.64,0,0,0-1.73-.6,38.25,38.25,0,0,1-4.15-1.54c-.26-.12-1-.69-1-.67a12.53,12.53,0,0,1-2.33-3.11c-.77-2.17-2.37-4-3.06-6.2a26.12,26.12,0,0,0-.8-3c-.51-1.13-1.44-2-2.05-3.06-1-1.75-1.52-3.79-2.35-5.63-1.14-2.52-1-5.28-2.18-7.77-.73-1.55-.92-3.33-1.8-4.8-.61-1-1.36-1.91-2-2.94a8.43,8.43,0,0,0-1.81-2.27c-.69-.59-2.23-2.09-2.36-.54a4.76,4.76,0,0,0,.5,2.4,5.72,5.72,0,0,1,.06,2.44,6.57,6.57,0,0,0,.42,2.92,10.73,10.73,0,0,0,2,2.5c.37.41,1.48,1.31.91,1.87.12,1.07-3.77,3.26-3.06,4.27,1.62,2.3,2,5.1,3.58,7.45s3.55,4.54,5.31,6.67c1.32,1.6,3.33,2.33,4.19,4.23a8.57,8.57,0,0,0,1.36,2.61c.83.95,1.45,2,2.22,3a5.14,5.14,0,0,0,2.3,2c2.39.74,5.18.58,7.35,1.89,1.53.93,3.13,1.86,4.7,2.74a8.19,8.19,0,0,1,4,3.82c.83,1.47,2.08,2.7,1.83,4.55-.18,1.41-1.26,2.44-2.16,3.47s-1.37,1.72-2.88,1.73c-2.34,0-4.86-1.75-7-2.66s-6.26-1.47-7.32-4c-.47-1.12.06-2.36-.41-3.42-.36-.81-1.18-1.27-1.81-1.86a27.73,27.73,0,0,1-3.21-3.47c-1.42-1.88-3.08-3.64-4.4-5.58-1.17-1.7-.72-3.38-1.53-5.08s-3.25-2.27-4.46-3.54c-1.47-1.54-2-3.84-2.89-5.71a28.62,28.62,0,0,0-1.32-3,13.28,13.28,0,0,1-1.44-2.53c-.45-1.16.55-3,.88-4.22.28-1.07.56-1.87.09-2.71-.14-.25.76-1.7.52-2.59-1-3.84-1.83-7.5-3-11.27-1.38-4.4-1.63-9.08-3-13.41-.66-2.13-1.84-3.9-2.34-6.14-.44-1.93-.41-4-1.28-5.77-1.72-3.58-4.62-6-6-10-1-2.9-1.13-5.9-1.35-8.9-.29-3.89-1.76-7.15-3.46-10.65-2.79-5.72-1.82-11.33-1.88-17.54-.11-10.29-4.78-20.39-4.81-30.74,0-2.92.7-6-1.19-8.2-3.12-3.63-5.76-2.71-8.34.41-3.16,3.83-8.37,7.52-10.76,11.78-2.87,5.12-3.39,11.58-6.93,16.39-2.64,3.57-5.28,4.08-5.31,8.89,0,5.92.52,11.56,1,17.41.45,5.49-1,11.26-1,16.85a36.94,36.94,0,0,0,2,13c1.8,5.11,4.15,4.73,7.73,7.93,3.91,3.5,4.35,10,7.08,14.27,1.64,2.55,3.28,4.37,4.63,7.17,1.09,2.27,1.76,4.38,2.71,6.64,1,2.47,4.78,4.86,4.12,7.64-.25,1-.59,1.82.31,2,.16,0,.13-.26.27-.31a12.61,12.61,0,0,1,2.49,3c.67.93,1.05,2,1.81,2.9.59.67,1.64,1.06,2,1.84.75,1.44,0,2.68,1.71,3.75,2,1.23,5.17.4,7.34.28,6.56-.34,8.95,4,10,9.64a22,22,0,0,1,.07,6.88c-.13,1.17.08,2.44-.46,3.52s-1.68,1.39-1.33,2.6,2.54,1.78,3.5,2.28a27,27,0,0,0,7.25,2.35,9.34,9.34,0,0,1,5.57,3,31,31,0,0,0,4.43,4.67,7.87,7.87,0,0,0,3.61,1.78,6,6,0,0,1,3.23,1.15c3.32,2.67,5.23,7.08,8,10.23.88,1,1.73,2,2.62,3a16.24,16.24,0,0,1,1.94,3.33,8.8,8.8,0,0,0,5.58,3.77c1.62.34,3.08,1.25,4.73,1.57,3,.58,6.07-.55,9-1,2-.29,3.65-.27,5.31-1.53a12.31,12.31,0,0,0,3.84-4.61A17.82,17.82,0,0,0,623.68,245.08Z" style="fill:none;stroke:#333;stroke-miterlimit:10;stroke-width:0.5px"/><path d="M613.58,234.06c-2.35-1.8-4.51-3.29-7.35-1.7a47.61,47.61,0,0,1-6.18,2.59c-3.81,1.49-7.35.25-11.21-.56-3.6-.76-6.59-2.94-9.26-5.43-3.84-3.58-7.6-6.28-10-11-1-2-.73-3.55-2.24-5.23-1-1.07-2-2-3.06-3a23.56,23.56,0,0,1-4.15-6.22,39.32,39.32,0,0,1-3.38-8.66c-.61-2.34-.24-5-.7-7.37v-1.68c-2.11-4.5-1.16-10.33-2.3-15.14-1-4.17-2.85-8.46-4.32-12.51a82.32,82.32,0,0,1-2.75-10.36,24.78,24.78,0,0,0-2.39-6c-1-1.86-2.82-2.88-3.9-4.63-2.75-4.45-2.58-11.59-3.71-16.5-.87-3.82-3-7.22-3.2-11.19-.25-5.07.8-9.18-.85-14.23-1.15-3.52-2.42-6.44-2.81-10.18-.36-3.45-1.47-19-8.32-11.45-2,2.18-1.82,5-2.93,7.64a30.69,30.69,0,0,1-4.15,7.15c-2.16,2.63-7.37,4.42-8.67,7.48-.6,1.41,0,4.5,0,6,0,3.42-.42,7.13.13,10.5.4,2.45,1.45,4.43,1.17,7-.32,3-1.24,5.83-1.52,8.83s-1.5,8.65.54,11.35c.77,1,2.46,1.59,3.42,2.43,1.76,1.53,2.83,3.54,4.18,5.4,4.07,5.62,7.62,11.88,11.28,17.79a37.57,37.57,0,0,1,5.35,12.29c.68,2.94,2.16,3.91,3.94,6,.62.72,0,1.22,1,2s3.16.56,3.61,1.64-.5,1.55.23,2.39,1.37.76,1.52,2-.37,2.26-.17,3.47c.35,2,1.6,2.45,3.62,2.5a6.26,6.26,0,0,0,3.52-.75c.74-.43,1.51-1.6,2.42-1.63,2.41,0,3.61,4.34,4.38,6,1,2.14,1.51,4.45,2.56,6.54,1.29,2.56,3.83,4.53,4.81,7.15,1.1,2.95.28,6.41,3.17,8.58,2,1.52,4.53,1.71,6.43,3.58s3.23,4,5.21,5.66c2.42,2.05,6.07,3,9,3.4a15.73,15.73,0,0,1,7.23,2.52c1.88,1.22,4.61,3.44,5.36,5.68.58,1.75-.58,2.37-1.11,3.9-.61,1.75.18,2.71,1.54,3.84,2.88,2.38,6.84,3.52,10.2,1.47,1.87-1.14,3.7-3.33,5.29-4.87,1.44-1.4,3.68-3.46,4.25-5.46C619.23,239.5,616,235.93,613.58,234.06Z" style="fill:none;stroke:#333;stroke-miterlimit:10;stroke-width:0.5px"/><path d="M540.55,184.18c-.88-1.72-.41-4.1-1.08-6.06a44.68,44.68,0,0,0-4.88-10c-2.15-3.25-5.06-5.95-7.72-8.8-3.23-3.48-5.39-7.61-7.59-11.81-3.39-6.49-7.08-11.85-6.74-19.54.4-9-.35-17.61,2.56-26.3.77-2.31,3.17-8.13,6-8.36,5.08-.43,5.68,7.45,5.9,10.75.31,4.65.35,8.89,1.53,13.44,1.41,5.44,3,10.74,4.78,16.07,1.94,5.77,5.09,10.38,8.13,15.55,1.34,2.26,1.16,4.09,1.9,6.47.63,2,2.27,3.5,3,5.53,1.74,5.09,2.64,10.21,4,15.37.48,1.86-1.2,6.39.54,7.64.72.52,2.65,5.78-.25,7.17-2.29,1.1-3.29-2-5.08-1.74S544,187,542.4,186,541.25,185.53,540.55,184.18Z" style="fill:none;stroke:#333;stroke-miterlimit:10;stroke-width:0.5px"/><path d="M538.58,154.89c.08-.79-.61-1.74-1-2.4a30.4,30.4,0,0,0-2.27-4c-4-5.39-6.05-11.14-7.43-17.69-1.67-7.93-2.95-16.09-5.28-23.86-.2-.68-1.24-2.62-2.32-1.79a8.64,8.64,0,0,0-.67,1.74,18.27,18.27,0,0,0-.95,5.93c-.16,3.55-.14,7-.49,10.59-.41,4.08.29,8.24,1,12.25a19.91,19.91,0,0,0,3.22,8.59c1.58,2.28,3.12,4.55,4.66,6.86s3,4.11,4.22,6.42c1,1.86,4.62,4.38,6.23,2.21C538.51,158.37,538.37,156.89,538.58,154.89Z" style="fill:none;stroke:#333;stroke-miterlimit:10;stroke-width:0.5px"/><path d="M587.59,207.53c1.08,1.09,3.14,1.39,4.56,1.48a10.07,10.07,0,0,0,6.38-1.73c.93-.62,2.12-1.32,2.26-2.55a4.88,4.88,0,0,0-.65-2.26,8.52,8.52,0,0,1-.4-2.36,16.3,16.3,0,0,0-1-3.52c-.57-1.74-.78-3.54-1.24-5.3a25.39,25.39,0,0,0-1.53-5,12.45,12.45,0,0,0-3.21-3.57,6.9,6.9,0,0,1-2-3.41,9.5,9.5,0,0,0-2.39-3.43,21.5,21.5,0,0,0-3.62-2.56c-1.11-.74-2-1.84-3.34-2.25-2.74-.88-4.77,1.76-4.92,4.35-.15,2.38,1.17,5.17,2.06,7.28s-.1,4.3.82,6.4c.58,1.33,1.58,2.41,2.26,3.68a17.36,17.36,0,0,1,1.15,3.8c.43,1.56.43,3.23,1.36,4.61a6.82,6.82,0,0,1,1.31,2.1c.14.51,0,1.24.65,1.51C587.15,205.23,586.51,206.42,587.59,207.53Z" style="fill:none;stroke:#333;stroke-miterlimit:10;stroke-width:0.5px"/><path d="M508.69,217.25c1.35-1.43,2.54,3.38,2.66,4.16a3.91,3.91,0,0,0,2,3.17,14.33,14.33,0,0,1,3.55,3.17c1.57,1.9,4.53,3.08,6.8,3.95,1.15.44,2.34.71,3.5,1.11a10.84,10.84,0,0,1,3.24,2.09,68.93,68.93,0,0,1,4.89,4.93c.55.56,1.36,1.53.8,2.33-.72,1-3.42.84-4.49.65-1.81-.33-3.09-1.68-4.53-2.7s-3-2.17-4.51-3.14c-2.29-1.47-5.26-2.59-7.14-4.59a21,21,0,0,1-2.4-2.94c-.52-.85-.5-1.89-1-2.69-.35-.53-1.73-2.19-2.19-3C508.24,220.75,507.47,218.54,508.69,217.25Z" style="fill:none;stroke:#333;stroke-miterlimit:10;stroke-width:0.5px"/><path d="M603.42,203.61c.08-1.57.68-3.21.15-4.74a22.62,22.62,0,0,0-1.69-2.82,36.25,36.25,0,0,1-1.72-4.92c-.8-2.31-1.09-4.94-2.16-7.13-.4-.83-1-1.51-1.29-2.35s-.32-2.73-.93-3.43a13.55,13.55,0,0,0-3.69-2.39c-1.42-.81-1.55-1.75-2.67-2.81-2.19-2.06-5.09-2.89-7.76-4.1-3-1.36-6.28-1.86-9.36-3-1.57-.61-1.77-2.12-3.15-3.32-1.7-1.46-3.79-2.53-5.4-4-1-1-1.54-2.71-2.75-3.42-1,1.22-.31,3.93-.07,5.3.35,2,.5,3.3,2,4.7,1.72,1.59,4.37,2.34,5.8,4.17a23.36,23.36,0,0,1,2.43,4.65c.86,1.84,1.83,3.71,2.57,5.55.27.68.63,1.06.48,1.86v2.15c-.27.84,1.71,3.22,2.2,4.15a26.1,26.1,0,0,1,2.39,7.44,25.35,25.35,0,0,0,2.73,7c1.18,2.19,2.08,5.06,3.75,6.92a15.89,15.89,0,0,0,6.3,3.68c2.77.92,8,2.46,10.56.68S603.3,206.26,603.42,203.61Z" style="fill:none;stroke:#333;stroke-miterlimit:10;stroke-width:0.5px"/><path d="M559.27,148.2c-.24-1.08-.84-2-1-3.13a14.15,14.15,0,0,0-.45-3.11c-.52-1.19-1.53-2.07-2-3.29a34.6,34.6,0,0,1-1.44-4.46c-.31-1.27-.27-2.34-1.14-3.41a18.68,18.68,0,0,1-1.91-2.35,23,23,0,0,1-1.46-3.86c-.45-1.16-2-3.75-2.78-1.32a15.33,15.33,0,0,0-.35,4.83c.07,1.62,1,2.86,1.34,4.43a28.86,28.86,0,0,0,.65,3.07c.36,1,.9,1.86,1.34,2.76.86,1.74,2.47,2.71,3.48,4.29.79,1.24.57,2.81,1.18,4.11a10.61,10.61,0,0,1,1.4,4.34.18.18,0,0,0,.24,0l2,2.12c1.43.26.54-2,.83-2.93A3.83,3.83,0,0,0,559.27,148.2Z" style="fill:none;stroke:#333;stroke-miterlimit:10;stroke-width:0.5px"/><path d="M549,103.39l-.88-8.68c0-1.18-.29-2.36-.27-3.52,0-.72.39-1.31,0-1.94-.18-.28-.6-.36-.8-.65a3.35,3.35,0,0,1-.36-1.62,28.58,28.58,0,0,0-1.13-7,24.4,24.4,0,0,1-1.24-4.42,14,14,0,0,0-2.07-5.07A8,8,0,0,1,541,68.19c-.2-1.06.65-1.87.51-2.83a1.58,1.58,0,0,0-1.61-1.26c-1.2,0-1.37.89-1.42,2-.12,2.5.42,4.89.52,7.36a23.29,23.29,0,0,0,.34,4.5c.43,1.82,1.29,3.49,1.63,5.34a16,16,0,0,0,1.41,5.23c.89,1.57,1.77,2.74,1.73,4.64a37.52,37.52,0,0,0-.27,4.36,18.79,18.79,0,0,1-.15,4.85,31.19,31.19,0,0,0-.5,9.63c.18,1.25-.14,3,.26,4.15.29.89,1.6,1.62,2.31,2.14.93.67,2.65.55,3-.83a14.35,14.35,0,0,0-.1-2.92,11.56,11.56,0,0,0-.45-3.42,4.82,4.82,0,0,1,.38-4C549.29,105.85,548.58,104.58,549,103.39Z" style="fill:none;stroke:#333;stroke-miterlimit:10;stroke-width:0.5px"/><path d="M605.4,37.9c-1-1.85-.65-4-.89-6a10.16,10.16,0,0,0-2-5.09c-1.45-1.88-2.14-4.19-3.63-6s-3.2-2.7-2.43-5.18c.34-1.08,2-4.13.46-5.1-1-.6-3.11,1.18-3.68,1.72a12.26,12.26,0,0,0-2,2.88c-1.81,3.11-4.82,2.92-8,2.44-1.88-.29-4.09.05-5.87-.65-1.36-.54-1.82-1.59-3.39-1.64-2.74-.08-7.38,1.81-8.92,4.07-.88,1.29-.94,3-2.06,4.16-1.39,1.42-3.63,2.12-5.32,3.11a18.78,18.78,0,0,0-7.42,7.42c-1.76,3.34-5.77,5.87-9.28,7-1.75.57-3.78.3-5.44,1.11A14,14,0,0,0,531.38,46c-2,2.55-.51,5.48,2.06,7,1.32.77,2.71,1.14,3.77,2.35.92,1,.88,2,.89,3.31L538,61.6a2.85,2.85,0,0,0,3-1.81c.45-.76,1.18-1.17,1.62-1.82s.2-.92.22-1.63a21.17,21.17,0,0,1,.69-3.62,7.17,7.17,0,0,1,1.78-3.36c1.26-1.57,2.2-3.39,3.48-4.94A19.2,19.2,0,0,1,569.44,39c1.95.75,3.85,1.6,5.77,2.41a17.41,17.41,0,0,0,3.45,1.54c1.21.2,2.05-.47,3.12-.89a8.49,8.49,0,0,1,5.16,0c3.76.9,6.27,2.43,7.52,6,.71,2,2.87,5.49,5.27,3.71,3.07-2.27,3.65-7.16,5.84-10.15C606.93,39.72,606.38,39.7,605.4,37.9Z" style="fill:none;stroke:#333;stroke-miterlimit:10;stroke-width:0.5px"/><path d="M597.55,31.36c-.48-1.65-1.6-2.22-2.4-3.67s-.49-2.72-1.71-3.81a8.06,8.06,0,0,0-5.06-2.28,22,22,0,0,0-3.79,1,10.2,10.2,0,0,1-4.81.34c-1.49-.33-2.83-1.1-4.37-1.21a11.73,11.73,0,0,0-4.24.53c-1.63.51-2,1.2-2.65,2.64-1.53,3.21-4.67,2.6-7.43,4.06-2.51,1.32-3.46,4.49-5.93,5.92l9-1.63a4.91,4.91,0,0,1,3.69-.11,33.61,33.61,0,0,0,4.37.65,12.22,12.22,0,0,0,4.62-.45c2.89-.59,5.9.65,8.6,1.51a25.45,25.45,0,0,1,9,4.5c1.24,1.07,2.86,2.65,4.59,1.3C601.5,38.71,598.14,33.42,597.55,31.36Z" style="fill:none;stroke:#333;stroke-miterlimit:10;stroke-width:0.5px"/><path d="M590.7,29.69c-.7-1.81-2.51-2-4.25-2.68-1.52-.57-1.67-.8-3-.32a12,12,0,0,1-4.69.58c-1.53-.09-2.92-.7-4.47-.68-1.22,0-4.09,1-4.45,2.41a6.12,6.12,0,0,0,3.54.51c1.13-.18,1.9-.68,3.13-.5s2.35.89,3.6,1.1c1.67.29,3.22-.05,4.87.43s3.29,1.53,5,1.82l4.67,4.24A35.15,35.15,0,0,1,590.7,29.69Z" style="fill:none;stroke:#333;stroke-miterlimit:10;stroke-width:0.5px"/><path d="M560-189.16c.52,3.66-1.46,7.87-2.06,11.45a60.82,60.82,0,0,0-1.06,15.64c.52,5.8,1.76,11.37,1.31,17.33-.66,8.84-3.85,17.21-.49,25.66,3.89,9.78,2.31,21.45,2.3,32,0,2.39-.59,5.69.4,8,.86,2,4.09,3,4.59,4.72,1,3.42-5.05,9.86-6.71,12.88C554.63-55,550.67-48,544-44c-4.9,2.89-10.75,4.09-13.8,9-2.14,3.42-2.82,6.79-6.16,9.8-4.79,4.32-10.95,7.21-15.64,11.69s-7.31,7.27-13.62,9.8C487.34-.79,479.25.33,472,3.69c-5.61,2.59-11.11,5.62-16.48,8.66C445.08,18.23,433.9,23.59,421.8,25c-12.78,1.47-26,.53-38.89,1.79-4.61.45-7.49,1-11.45-1.54-6.34-4-8.52-5.78-16.4-6.76-9-1.12-22.08-4.2-29.61-9.72-9.41-6.91-16-16.84-27.16-21.1-5.26-2-11.05-3.07-15.9-6-8.47-5-13.91-13.66-21.67-19.58-7-5.35-14.84-8.06-23.29-10.24-8.74-2.26-16-1.1-24.83-.9-7.75.17-14.89-1.44-22.25-3.86-4.79-1.58-8-5.07-12.49-6.83-3.48-1.37-7.78-.85-11.46-.7-8.74.35-17.69.86-26.44.39s-14.47-5.76-20.36-11.67c-4.55-4.54-4.08-8-6.76-13.88-5-11-11.07-18.34-9.34-31.38.78-5.84,3.11-11.64,2.79-17.61-.31-5.53-3.26-9.27-5.92-14-7.27-12.83-9.62-25.4-11.51-39.73" style="fill:none;stroke:#333;stroke-miterlimit:10;stroke-width:0.5px"/><path d="M112.21-186.87c-2.3-.18,2.43,11.78,3.21,14,2,5.88,6,11.56,7,17.55,2.12,12.53-1.25,25.77.79,38.3,2.12,13,6.53,24.25,15.8,33.84,4.32,4.47,7.16,7.5,13.62,8.84,11,2.29,23,1.78,34.18,1.44,4-.12,9.63-1.06,13.1,1.22,1.69,1.1,2.39,3.86,4.36,5.15,9.52,6.29,25.9,2.44,36.49,4.11a102.9,102.9,0,0,1,32.37,11.22C284-44.95,292-34,304.92-31.19c5.73,1.25,11.72-.61,17.4.58,9,1.89,14.85,11.67,20.5,18.06,8.81,10,21.41,16,34.65,18,6.22.92,10.5-.67,16.39-2,6.42-1.41,13.25-.71,19.76-.76,14-.12,35.56-7.21,43.25-19.33,4.14-6.52,4.93-10.92,13-13.81,10.29-3.68,21-6.33,31.38-10.17,7.16-2.66,14.46-4.85,18.2-12.07,4.61-8.93-1.71-17.18,1.89-26.42,3.89-10,9.14-19.43,12.53-29.65,3-8.94,2.46-17.19,1.21-26.41-2.51-18.36-4.41-39.19,1.11-57.19" style="fill:none;stroke:#333;stroke-miterlimit:10;stroke-width:0.5px"/><path d="M670-13.11c-2.19-2.26-6.09-1.85-8.95-2.21a22.49,22.49,0,0,1-9.7-3.28c-2.1-1.45-3.09-3.69-4.29-5.83a21.22,21.22,0,0,0-4.93-6c-1-.87-7.65-7.87-8.29-4.58-.25,1.25,1.68,3.3,2.31,4.27,1.34,2.07,2.44,4.28,3.79,6.34s3.24,3.39,4.86,5.18c1.81,2,2.78,4.93,3.4,7.5a47.58,47.58,0,0,1,1,8.64c.24,4.6,1.25,9.07,1.27,13.71,0,6.05.71,11.86-1.55,17.59-.63,1.6-1.63,3.2-1.94,4.9s.23,3.31-.09,4.88a25,25,0,0,0-.85,2.87c-.16,2.47-.35,5.22-.45,7.86-.14,3.5-.58,7-.65,10.48,0,1-.67,9.49,2,7.73,1.66-1.08.37-5.4.31-6.82-.07-2,.79-4,.74-6.1V48c1.24-.76,1.61-2.59,2.71-3.62,1.76-1.66,4.3-2,6.23-3.52,1.66-1.34,4.11-3.08,5.19-4.93s.64-4,1-5.88a72.59,72.59,0,0,0,1.27-14.95c0-5-.9-11.76,1-16.41a18.53,18.53,0,0,1,3.77-5.6C670.94-8.81,672.13-11,670-13.11Z" style="fill:none;stroke:#333;stroke-miterlimit:10;stroke-width:0.5px"/><path d="M661.58-3.59c-.19-1.1-1-1.81-1.37-2.84-.46-1.47.84-4.05-1-4.81-1.23-.5-2.67.92-3.58,1.54-1.32.91-.58,1.1-.55,2.48,0,1.75-1.07,3.28-.61,5.07a5.87,5.87,0,0,1,.4,2.09,9.15,9.15,0,0,0-.22,1.82c.08.7.61,1.19.73,1.79a7.63,7.63,0,0,1-.17,1.71c-.08,1.55.31,3.1.31,4.66,0,3.72-.31,7.72.11,11.39L654.3,25c-.22,1-1,1.59-1.32,2.44-.41,1,0,2.17-.56,3.22a4.74,4.74,0,0,0-.18,4.21c.31.93.17,1,1.11.91a3.79,3.79,0,0,0,2.26-1.64,12.33,12.33,0,0,0,1.57-4.45c.3-1.92,1.56-3.51,1.87-5.41a27,27,0,0,0,0-2.7c.08-1.13.5-2.18.62-3.3.19-1.64-.66-2.66-.16-4.27a7.44,7.44,0,0,0,.17-2.78c0-1.52.64-2.86.84-4.34.32-2.35-.66-4.6.08-6.89C661.05-1.28,661.82-2.21,661.58-3.59Z" style="fill:none;stroke:#333;stroke-miterlimit:10;stroke-width:0.5px"/><path d="M764.27-45.5c-.06.25-1.27,1.9-1.77,2.66-2.36,3.61-4,7.59-6.46,11.12a18.94,18.94,0,0,1-7.41,6.51c-2.07.95-3.94.51-6,1.2-2.39.8-4.14,3.13-6.23,4.41s-3.88,2-5.66,3.82c-1.91,2-4.44,4.2-6.08,6.42-1.94,2.62-2.26,6-3.32,9-1.7,4.83-3.44,9.91-9,11.5a37.74,37.74,0,0,1-11.53,1.09c-5.4-.54-12.44-3.85-16.11,2.18-2.46,4.05-5.39,12.18-4.08,16.6,1.68,5.7,2.16,11.57-4.4,13.63-2.92.93-5.59,1.11-5,4.84,3.13.72,6,1.9,7.76,4.89a7.07,7.07,0,0,1,.81,4.07,17,17,0,0,0,1,6.14c.43,1.37,1.13,3.5.69,5-.51,1.66-3.17,2.86-1.76,5s6.3.86,7.85-.09c2.63-1.62,3.13-4.27,6.22-5.13,5.1-1.43,11.24,0,14.36,4.13,1.36,1.79,2.2,4,3.45,5.78,2,2.82,3.76,2.77,6.88,3.49a12.93,12.93,0,0,1,6.75,4c2.83,2.85,6,4.15,9.09,6.71,5.1,4.3,8.82,10.06,9.3,16.57.45,6-2.58,14.91,5.36,16.87,1.22.3,2.46.08,3.6.58s2.4,2.11,3.71,2.83c3.62,2,7.29,1.51,11.1.27" style="fill:none;stroke:#333;stroke-miterlimit:10;stroke-width:0.5px"/><path d="M767.14-28.32c-3-1.46-2.37-.74-4.46,1-3.56,3-6,6.67-10.13,9.1-4.91,2.87-11.32.68-14.7,5.31a40.06,40.06,0,0,1-4.21,5.48c-1.58,1.54-2.87,2.34-3.61,4.48s.24,4.82-.75,6.93c-.86,1.83-3.53,3.82-5,5.14A66.31,66.31,0,0,1,715,15.73c-3.3,2-6.77.94-10.56,1.17A17.46,17.46,0,0,0,695,20.4c-3.33,2.6-1.72,5-3.36,8.17-1.95,3.84-4.73,4.27-4.12,9.13.4,3.22,2.92,6.75,2.6,10-.17,1.73-1.87,2.7-2,4.19-.23,2.1,1,1.16,1.71,2.83.39.89-.16,2.43.29,3.13.66,1,3.42,2.28,4.6,2.92,2.25,1.22,1.17.77,3.63,1,1.47.1,3.12,0,4.62.09,1.21.06,4.44-.47,5.48.36.69.54,1.15,4,1.43,5.13s.28,3.44,1,4.28c1.52,1.73,3.42.15,5.22.93.66.29.84,1.42,1.47,1.89,1.56,1.17,3.3,2,4.83,3.2,4.22,3.3,9.09,4,13.53,6.9,2,1.3,5.59,2.46,7.18,4.26,1.78,2,1.72,3.94,3.84,5.86,1.45,1.33,3,2,4.14,3.66.88,1.3,1.12,3,2,4.29a32.61,32.61,0,0,0,6.25,6.28c1.9,1.47,15.49,6.5,16.06,3.7" style="fill:none;stroke:#333;stroke-miterlimit:10;stroke-width:0.5px"/><path d="M767.14-5.13c-1.72-.19-3.75.43-5.66,0-4.9-1.13-7.67-3.78-12.84-.61-2.89,1.76-3.95,5-5.84,7.58-2.32,3.23-5.88,3.5-8.45,6.2-2.89,3.05-1.89,7.38-6.25,9.41-4.58,2.14-10.36,1.1-15.22,2.34a16.44,16.44,0,0,0-6.6,3.42c-2.75,2.33-1.89,5-3.69,7.78-2.55,3.94-8.54,10.19-4.22,15.25,2,2.34,4.4,2.14,6.23,5,.82,1.28,1.06,2.33,2.28,3.4.89.78,2.16.85,3,1.73,2.54,2.75,3.11,7.64,5.71,10.22C717,68,719.13,68.15,721,68.45c4.15.68,5.81,1.44,9,4.37s6.18,6.26,9.58,9.12c4,3.37,8.58,4.85,13.21,7.14,4.19,2.08,8.85,3,12.66,5.75,4,3,9.18,9.28,14.88,8.27" style="fill:none;stroke:#333;stroke-miterlimit:10;stroke-width:0.5px"/><path d="M763.15,1c-1.49.93-3.74.13-5.42.11-4.12,0-7.34,1.58-9.27,5.3-1.54,3-1.89,5.72-5.33,7.12-1.84.75-4,.68-5.44,2.26s-1.75,3.66-3.17,5c-1.71,1.69-5,2.18-7.25,2.52-2.51.38-5.15-.26-7.57.43s-6.18,2.09-7.44,4.37c-.54,1-.52,2.29-.84,3.33s-.9,2-1.24,3a40.48,40.48,0,0,1-1.7,4.35c-1.1,2.37-.31,6,1.15,8.16a25.41,25.41,0,0,1,2.31,3.28c.66,1.3,1.1,2.68,1.77,4,1,1.94,2.57,2.82,3.95,4.43,2.18,2.53,2.32,6,5.85,7.14,3.36,1,7-.18,10.3.81,1.76.52,2.81,2,4.36,2.89,1.16.66,2.44,1.26,3.63,1.88,2.86,1.47,6.46,1,9.53,1.63,3.42.75,7.61,3.3,11,.86" style="fill:none;stroke:#333;stroke-miterlimit:10;stroke-width:0.5px"/><path d="M760.64,10.17a18.29,18.29,0,0,1-5,2.17c-2.91.74-5.1.91-6.59,3.74-2.16,4.11-6.66,7.48-10.93,9.21a46.57,46.57,0,0,1-11,2.36c-1.29.17-1.78-.06-2.58.66-1.32,1.17-2,3.7-2.53,5.29-.73,2.11-1.72,4.19-1.9,6.45-.3,3.85,1.48,8.37,3.59,11.5,2.31,3.43,4.92,3.87,8.74,4.76,2.26.52,4.62,1,6.49,2.49,2.14,1.68,3.06,4.4,5.47,5.85a25.45,25.45,0,0,0,9,3.37c2.45.25,6.82-.52,8.6-2.24" style="fill:none;stroke:#333;stroke-miterlimit:10;stroke-width:0.5px"/><path d="M760.22,19.53c-3.47-.23-7.91,3.28-9.84,5.77-3.2,4.14-6.48,5.26-11.67,5.27-2.25,0-6.24-.79-8.13.69-1.55,1.22-1.87,3.45-2.3,5.25-.53,2.24-1.73,5.17-1.3,7.49.59,3.25,2.72,3.63,5.37,4.59,2.15.78,5.32,1.24,6.86,3s1.71,3.6,3.8,4.91A18.31,18.31,0,0,0,750.14,59c2.15.29,2.56-.39,4.17-1.46a5.06,5.06,0,0,1,5-.36c1.67.86,2.72,3.32,4.72,3.45" style="fill:none;stroke:#333;stroke-miterlimit:10;stroke-width:0.5px"/><path d="M760.36,29.73c-.07.21-6.51.07-7.6.47a10.69,10.69,0,0,0-4,3,5.33,5.33,0,0,1-4.2,1.81c-2.78.12-5-.72-7.35.93-2.58,1.82-6.06,4.09-2,6.26,2.68,1.46,6.53,1.71,7.5,5.12.31,1.11,0,2.21.66,3.25.78,1.28,2.13,1.57,3.5,1.81,4.35.75,6.35-.17,9.72-2.67,1.87-1.39,4.64-1.65,6.9-1.42,1.95.2,5,.59,6.55,2" style="fill:none;stroke:#333;stroke-miterlimit:10;stroke-width:0.5px"/><path d="M737.14,170.47c-2.86-3.39-5.88-5.78-7.56-10.22-1-2.72,0-5.74-.92-8.29-.57-1.56-1.68-2.66-2.17-4.41-1.39-5-3.74-10-4.36-15.25-.3-2.57.08-3.6-1.31-5.84a8.81,8.81,0,0,1-1.56-6.62c.52-3.07,3.64-5,4.33-8,.45-2-.28-4.63-1.06-6.44-2.18-5-4.55-5.27-9.52-6-4.41-.66-6.53-3.13-9.39-6.24-4.35-4.74-8.09-5.27-14.27-5.84a21.33,21.33,0,0,0-13.84,2.9c-3,1.8-6.67,4.85-3.88,8.54,2.33,3.09,6.6,5.54,9.48,8.14,3.32,3,7.46,4.91,10.82,7.81,2.05,1.79,5.84,6.16,5.63,9.07l5,4.55c1,2.46,5.25,3,6.79,5.26,1.9,2.78,1.28,6.18,4.15,8.62.94.8,2.35,1.25,2.94,2.39.31.64.11,2.16.37,2.93,1.1,3.23,3.26,5.22,2.88,8.92-.27,2.67-2.24,5.11-1,7.79,1.5,3.3,4.52,4.95,4.94,8.9.28,2.57-.06,5.2.18,7.78.45,4.69,1,12.27,7.25,11.72,1.84-.16,4.94-1.21,6-3,.71-1.22.49-3.7.67-5.11C738.14,180.61,739.86,173.71,737.14,170.47Z" style="fill:none;stroke:#333;stroke-miterlimit:10;stroke-width:0.5px"/><path d="M724.19,148.4a7.8,7.8,0,0,0-2.52-3.93L719.36,141c.21-3.21-1.4-5-3.09-7.48-1.89-2.81-1.38-6.47-2.87-9.49-1.64-3.32.22-6.18.22-9.74,0-3.23-1.76-7.36-4.92-8.63-3-1.21-5.71-1.75-8.46-3.62-3.13-2.14-5.38-4.9-8.76-6.81-2.32-1.31-6.15-4-9-2.28-1.94,1.23-1.61,3.86-.25,5.39,1.07,1.21,3.46,1.47,4,3.06.67,1.93-1,2.33,1.46,3.66,2,1.07,3.47,1,4.78,3.06a8.1,8.1,0,0,0,3.57,3.57c.66.37,2.34.76,2.81,1.25s.74,3.12.94,3.93c.26,1.07.28,2.42,1.07,3.24,1,1,2.52.52,3.53,1.27s.9,1.77,1.46,2.77a8.8,8.8,0,0,0,2.21,2.26,14,14,0,0,1,3.53,4.79c.83,1.64,1.77,3.45,2.71,5,.39.64,1.33,1.22,1.6,1.82s-.05,1,.12,1.55c.71,2.18,2.47,3.61,3.86,5.51,2.41,3.3,1.23,8.61,4.6,11.32C726.44,155,724.76,150.44,724.19,148.4Z" style="fill:none;stroke:#333;stroke-miterlimit:10;stroke-width:0.5px"/><path d="M733.68,174.56c-.81-2-2.62-3.5-3.31-5.5-.91-2.68-2.3-8.91-6.11-8.45-2,3.63,2.63,7.64,2.48,11.42v5.79c0,2.35-.06,8.63,2,9.83,4.36,2.56,5-5.81,5-8.15C733.83,177.83,734.33,176.12,733.68,174.56Z" style="fill:none;stroke:#333;stroke-miterlimit:10;stroke-width:0.5px"/><path d="M687.86,202.84c-2-4.68-1.68-11.67-6.5-14.52-2.13-1.27-4.07-1.9-5.57-4s-2.43-4.47-3.9-6.57c-3.53-5-6.26-10.46-9.45-15.73a29.14,29.14,0,0,1-3.59-8.43c-1-3.7-1.66-6.68-4.89-9.08-2.86-2.12-6-4-8.89-6s-6-2.27-9.43-3.39c-4-1.34-4.08-4.51-4.73-8.12-.49-2.72-2.74-5.67-4.55-7.76-1.39-1.61-2.92-2.66-4.15-4.45a16,16,0,0,0-3-3.31c-1.63-1.4-6.51-3.23-6.22-5.66-1.09-.45-2.41-5.21-2.77-6.77a61.06,61.06,0,0,0-4.86-12.74c-.81-1.68-1.9-3.27-2.56-5-.79-2.06-.77-4.3-1.72-6.29a9.89,9.89,0,0,0-3.49-4c-1.55-1-3.37-1-5-1.81-2.81-1.45-6-2.63-8.26-4.91a14.5,14.5,0,0,0-3.58-3.11c-1.43-.76-2.94-1.27-4.31-2.14-1.8-1.16-3.66-2-5.37-3.27a53.22,53.22,0,0,0-4.39-3.08c-1.68-1-5.9-3.94-7.52-1.66-.78,1.08-.23,3.88-.26,5.14-.05,1.68-.47,3.26-.65,4.92-.34,3.13-.43,6.52-.47,9.66s1.06,6.51,1.76,9.48a50.51,50.51,0,0,0,1.43,6.22c.74,2,1.5,3.4,1.66,5.55.25,3.42.09,6.83.27,10.25a37.91,37.91,0,0,0,1.45,9.53c.85,2.67,3.36,3.78,4.49,6.33s1.13,6,.85,8.85c-.25,2.57-.25,4,.93,6.29a88.32,88.32,0,0,0,5.8,9.74,47.83,47.83,0,0,1,4.79,8.25,10.91,10.91,0,0,0,5.45,5.6l4.82,3.6a21.1,21.1,0,0,1,4.56,1.85,9.85,9.85,0,0,1,3.19,2.68c2.39,2.68,5.14,5.08,7.78,7.57,3.09,2.91,5.94,4.51,6.73,9.12.48,2.76.24,4.67,1.55,7.33a26.67,26.67,0,0,0,3.49,5.36,19.84,19.84,0,0,1,2.68,5c1.12,2.42,2.88,5,3.24,7.63.31,2.3,0,3.4,1.48,5.35,2.41,3.11,3.87,6.75,5.64,10.28,1.66,3.31,2.51,7,5,9.76,3.18,3.53,6.85.93,9.59-2.14,1.39-1.57,1.89-3.18,3-4.81s3.81-2.15,5.49-3.21c2.74-1.74,4.61-2,7.9-2.07,3.54,0,7-1.18,10.47-1.66,4.34-.59,7.39-4.69,11.14-6.83,1.16-.66,3.66-1.41,4.33-2.65C689.63,207.21,688.52,204.38,687.86,202.84Z" style="fill:none;stroke:#333;stroke-miterlimit:10;stroke-width:0.5px"/><path d="M679.16,206c-.14-3.29-1.19-5.54-2.36-8.55-1-2.66-1.92-5.66-3.53-8-.8-1.19-3.72-3.56-3-5.14-1.14-2.67-2.9-5.09-4-7.76-1.62-3.84-3.25-8.11-5.86-11.41-1.1-1.4-2.49-2.51-3.36-4.08-1-1.89-1.65-4.07-2.63-6a32,32,0,0,0-5.32-8.13c-1.09-1.1-2.43-1.42-3.77-2.12s-2.77-1.64-4.24-2.34c-2.08-1-4.33-1.77-6.32-2.92s-3.83-3.41-5.52-5.13-3.58-3.26-4.61-5.57c-1.8-4.06-5.32-6.63-8.42-9.63-2.37-2.3-5.2-4.65-7-7.42s-1.76-6.19-3.64-8.64c-1.56-2-3.41-3.41-4.55-5.81a27.06,27.06,0,0,1-2.45-7.52c-.71-4.76-1.49-9.87-5.34-13.29-4-3.57-9.84-3.18-13.3-7.38A28.08,28.08,0,0,0,573.48,63c-1.8-1.2-3.76-3-6-3.37-4.2-.78-4.94,2-5,5.62a48.77,48.77,0,0,0,1.36,12.63c.56,2.26,1.5,4.69,1.53,7a50.41,50.41,0,0,0,.91,7.64c.52,3.08,1.32,6.14,1.82,9.24.2,1.24.39,6.19,1.44,6.39.14,2.32,2.21,3.35,2.94,5.53.88,2.68,1,5.62,1.35,8.41a30.93,30.93,0,0,0,1,3.72c.38,1.41.12,2.71.33,4.14.38,2.66,2.72,5.32,4.4,7.34a34.15,34.15,0,0,1,4.33,5.95c.81,1.55.67,3.08,1.31,4.64,1.12,2.78,5.14,8.13,8.55,7.62l5,3.28a19.63,19.63,0,0,0,5,4.54c4.65,3,7.81,8.09,10.84,12.59,1.87,2.77,3.29,5.87,5.37,8.49s1.68,6.22,4,8.81a14.61,14.61,0,0,1,4,7.18c.4,1.62,1.35,3,1.59,4.69a19.88,19.88,0,0,0,1.41,4.61c1.08,2.86.91,6,2.81,8.54,1.78,2.41,3.58,4.78,5.34,7.2,1.18,1.63,1.9,3.12,3.78,1.59s3.39-3.74,5.08-5.54a29.3,29.3,0,0,1,16-8.65,34.35,34.35,0,0,1,7.78-.33c1.73.06,4.76,0,6.27-.94C679.87,210.37,679.23,207.79,679.16,206Z" style="fill:none;stroke:#333;stroke-miterlimit:10;stroke-width:0.5px"/><path d="M670.28,195.22c-1.06-2.23-1.94-4.53-2.84-6.83A23.4,23.4,0,0,0,664,182.8c-1.6-2.17-2.56-4.66-3.84-7-1.07-1.93-2.31-3.85-3.49-5.72-1.69-2.66-2.78-6.23-4.8-8.63a14.38,14.38,0,0,1-2.25-4.66,14.47,14.47,0,0,0-1-2.74c-.7-1.18-1.86-1.79-2.79-2.75-1.48-1.52-2.81-4-5.33-3.67-1.54.2-1.54,1-1.73,2.53s-.39,2.49.41,3.73c1.1,1.72,3.28,2.75,4.86,4a16.78,16.78,0,0,1,4.15,4.21c1.58,2.44,3.24,4.84,4.76,7.33a37.93,37.93,0,0,1,3.46,8.21c1,3,2.85,5.87,4.32,8.65.68,1.28,1.21,2.61,1.84,3.91.36.75.86,2.41,1.55,2.79,0,.9.05,1.56,0,2.43,0,1.19-1.2,2.6-2,3.46a7.41,7.41,0,0,1-4,2.06,20.19,20.19,0,0,0-6.46,2.8,26.58,26.58,0,0,0-4,3.43c-1,1-2.35,1.78-3.24,2.8-.45.52-.59,1.93-1.05,2.26-1.21.86-2.17-1.81-2.51-2.69-1.52-3.84-1.79-8-3.81-11.67-1.76-3.16-4.5-6-5.52-9.51-.54-1.82-.17-3.43-1.21-5.15-1.21-2-3-3.46-4.08-5.58a32.88,32.88,0,0,1-1.52-4.2c-.52-1.47-1.14-1.74-2.24-2.72a6.05,6.05,0,0,1-1.41-2.13,20.08,20.08,0,0,0-2.62-3.6c-.92-1.14-.89-1.65-.7-3.06s-.2-1.66-1.23-2.81c-2.55-2.82-5.8-3.15-9-4.93-3.85-2.18-8.79-6.75-9.7-11.14-.61-2.93-2.34-5.8-3.85-8.38-1.64-2.83-3.25-4.65-6.76-3.72-2.16.56-2.17,2.68-1.62,4.61.83,2.93,2.71,5.3,3.31,8.31.76,3.79,3.65,5.54,6.53,7.64,1,.72,2.07,1.29,3.06,2,1.37.95,2.2,2.4,3.27,3.64,1.81,2.1,4.68,4.54,7.27,5.37l4.56,5.09c2.7,3.73,5,7.2,8.4,10.29,2.19,2,2.63,4.63,3.46,7.31.77,2.5,2.14,4.67,3,7.13a40.06,40.06,0,0,0,4.06,8c1.25,2,1.31,4.1,1.75,6.37s1.51,4.29,2.21,6.51c.46,1.42,1.06,3.16,2.33,4.1,2.76,2,6.16-1.87,8.11-3.47,2.14-1.76,4.88-2.57,7.46-3.43,2.27-.74,4.23-2.05,6.4-2.89,4-1.52,10.14.17,11.1-5.4C672.43,199.5,671.34,197.45,670.28,195.22Z" style="fill:none;stroke:#333;stroke-miterlimit:10;stroke-width:0.5px"/><path d="M651.67,186.62c-.77-1.79-2.5-2.91-2.58-4.93,0-.88.08-1.77,0-2.64-.06-.68-.21-2.3-1-2.61s-1.46.54-1.74,1.11a16.21,16.21,0,0,1-2,3.79,5.45,5.45,0,0,1-2.8,2c-.59.13-1.54-.08-2.06.19-2,1,1.33,4.39,1.87,5.45.83,1.6.66,3.48,1.47,5a8.6,8.6,0,0,0,1.47,2.46l.81,1.46c.2-.56.88-1,1.22-1.5a2.92,2.92,0,0,0,.11-3c-.38-1-.54-1.67.47-2.31a25.39,25.39,0,0,1,2.78-1.47C651.21,189,652.42,188.38,651.67,186.62Z" style="fill:none;stroke:#333;stroke-miterlimit:10;stroke-width:0.5px"/><path d="M660.72,192.63a5.51,5.51,0,0,0-1.21-2.26c-.7-.62-1.47.36-2,.78-1.1.83-1.83,2-3,2.72s-2.59,1.56-2.86,3a7.28,7.28,0,0,1-1,3.32,8.13,8.13,0,0,1-1.47,1.34,9.25,9.25,0,0,0-1.76,1.33,3.06,3.06,0,0,0-.07,2.29c.38-.08.68-.54,1-.77.57-.43,1.09-.89,1.65-1.35A13.93,13.93,0,0,1,653,201a16.79,16.79,0,0,1,2-.83c.88-.27,1.76-.29,2.63-.51,1.56-.39,1.92-1.86,2.69-3l.71-2.54C661.14,193.81,660.81,192.92,660.72,192.63Z" style="fill:none;stroke:#333;stroke-miterlimit:10;stroke-width:0.5px"/><path d="M644,166a2.5,2.5,0,0,0-1.43-1.2c-1.61-.61-3-.4-4.7-.38-1.36,0-2.25-1.21-3.13-2.2s-1.16-2.44-1.85-3.7a13.81,13.81,0,0,1-1.23-2,9.77,9.77,0,0,1-.19-2.1,19.55,19.55,0,0,0-.59-2.34,17.48,17.48,0,0,1-.33-2.17c-.13-1-.24-3.33-1.38-3.69-1.33-.42-3.33.74-4.38,1.43a7.35,7.35,0,0,1-4.8,1c-1.49-.1-2.59-1.23-4.15-.55-1.32.56-.57,2.48.35,3.18s2.47.47,3.51,1.13a16.81,16.81,0,0,1,3.31,2.75,6.06,6.06,0,0,1,1.41,2.18,6.72,6.72,0,0,0,.66,1.73,10.91,10.91,0,0,0,1.09,1.27c.37.41.6,1,1,1.33a3.74,3.74,0,0,0,2.17,1l3.5.75c.24.44.8.68,1.13,1.08s.64.92,1,1.35c1.07,1.33,1.53,2.43.8,4.11-.3.69-.71,1.82-.21,2.53.72,1,1.55-.22,2.07-.72.85-.8,1.92-.84,2.94-1.31a8.2,8.2,0,0,0,2.7-2.27C643.78,167.49,644.4,166.81,644,166Z" style="fill:none;stroke:#333;stroke-miterlimit:10;stroke-width:0.5px"/><path d="M608.13,116.25a22.64,22.64,0,0,0-1.9-3.18,16.75,16.75,0,0,1-2-2.7,26.26,26.26,0,0,0-1.19-2.7c-.83-1.13-2.59-1.56-3.58-2.65-2.29-2.54-3.29-5.6-4.24-8.87-.86-3-1.7-5.93-2.32-9a11.73,11.73,0,0,0-3.7-6.9c-2.82-2.46-6.49-3.57-9.66-5.42a17.7,17.7,0,0,1-4.78-4c-1.28-1.54-2.24-3.56-3.73-4.89a3.52,3.52,0,0,0-3.81-.73c-1.52.75-1.09,2.57-1,3.92A40.32,40.32,0,0,0,567.3,78c1.1,3.89,3.12,7.49,3.94,11.5.51,2.47.53,5,.92,7.46.47,3,1.3,5.81,1.94,8.77a48,48,0,0,1,.73,6.41,25.19,25.19,0,0,0,2.22,7.27c1.2,2.95,1.54,6.09,3,8.93.32.61,2.18,2.51,2.15,2.63v3.18c-.3.57-.6.72-.64,1.38,0,.36.3,1.67.64,1.7.53.05.91-2.12,1.14-2.47s.73-.67.88-1c.27-.67,0-1.52.09-2.22a13.5,13.5,0,0,0,.64-2.34c0-.76-.68-2.6-.22-3.29.27-.41,1.32-.41,1.74-.67a2.43,2.43,0,0,0,1-1.13,9.89,9.89,0,0,0,.65-2.86c.31-1.63,1.18-3.59,2.75-4.35,1.9-.92,3.89.12,5.44,1.21,2.79,2,5.72,1.77,9,1.56.89,0,3.17.21,3.67-.79C609.39,118,608.51,116.88,608.13,116.25Z" style="fill:none;stroke:#333;stroke-miterlimit:10;stroke-width:0.5px"/><path d="M599.85,110.73a15.2,15.2,0,0,0-1-2.1c-.59-.65-1.9-.51-2.4-1.25-.33-.5,0-1-.17-1.51-.18-.71-.54-.69-1-1.17-1-1.07-1.19-3.08-1.45-4.48A12.83,12.83,0,0,0,592,96c-.94-1.75-.16-3.4-1.89-4.69-1-.72-.81-.67-.73-1.83a9,9,0,0,0-.29-2.42,5.1,5.1,0,0,0-1.19-2.65c-.61-.7-1.23-1-.87-2.1a4.85,4.85,0,0,1-2.92-1.08,15.52,15.52,0,0,0-4-1.82c-1.17-.47-2.32-.81-2.88-2s-.6-1.33-1.93-1.88a7.17,7.17,0,0,1-1.93-1.17c-.41-.36-.64-1.13-1-1.38-1.32-.8-1.79,1.81-1.8,2.6A8.65,8.65,0,0,0,572,80.89a5.3,5.3,0,0,1,1.51,2.9c.19,1.5,0,3,.21,4.51a18.52,18.52,0,0,0,.62,3.48,26.58,26.58,0,0,1,.7,3.42c.27,1.19.65,2.42,1,3.58a10.32,10.32,0,0,1,.77,2.25,5,5,0,0,1-.2,1.82c-.18.52-.56.76-.47,1.38l.66,3.14c.68.63.28,1.65.38,2.44a9.38,9.38,0,0,0,.56,1.62c.19.67,0,1.38.21,2,.12.32.44.64.57,1s.15.74.3,1.14c.36.9.9,1.83,1.21,2.74s.58,4.81,2.59,4.13c1.31-.45,1.24-2.28,1.33-3.32.12-1.26.66-2.31.84-3.53.33-2.31,1.4-1.73,3.31-2,1.47-.24,3-1.74,4.51-1.4,1.08.24,1.64,1,3,1a10.91,10.91,0,0,1,1.51-.07c.54.09.84.58,1.54.47C600.38,113.38,600.57,112,599.85,110.73Z" style="fill:none;stroke:#333;stroke-miterlimit:10;stroke-width:0.5px"/><path d="M-7.14,238.83c2.11,3.06,4.41-.31,7.14-1.21,5.41-1.8,11.37-.44,16.82,0,8.09.6,18.72-3.33,25.11,3,4.17,4.11,4.65,5,11,6.24s11.18,1.57,17.47-.13c7.33-2,16.53-5.45,21.93-10.83,3.56-3.56,6.7-8.33,12.64-7.32,4.71.8,10.2,3.17,15.24,4,6.22,1.08,10.74,3.3,16.25,7,7.21,4.82,16.33,11.52,25.19,6.93,6.69-3.47,11.45-8.72,19.42-9.54,3.62-.37,8.78-.51,12.22.88s4.18,4.21,6.85,6.36c3.31,2.66,7.32,2,11.38,2.49,5.84.67,11.24,2.84,17,3.8,9.48,1.56,19.2,3.6,28.81,3.85,8.47.22,16.15.59,23.77-3.16,4.41-2.17,11.11-2.7,14.19-6.77,2.38-3.15,3.32-9.78,4-13.65,1.16-7.14-2.12-5.38-5.47-10.14-2.82-4-1.36-10.8-.95-15.19.6-6.44-7.45-14.68,3.13-17.32,5-1.25,3.73.6,7.66,3.41,3.72,2.67,9.16,3,13.48,2.15,11.27-2.1,23.49-9.72,33.13-15.53,5.4-3.24,8.72-6.63,14.7-1.61,5.12,4.31,10.52,4.61,17.31,4.87,9.74.38,20,.95,29.73.45,4.55-.23,7.44-2.66,11.83-2.95,7.66-.49,18,.9,25.49,2.56,3.48.77,6.57,2.3,10.16,2.28,4.58,0,5.18-2.23,9,2.37,8.16,9.82,7.16,23.15,19.46,29.22,3.67,1.81,8.16,2.52,10,6.57,2.34,5.25,1.33,11.09,4.56,16.52a30.6,30.6,0,0,0,19.06,14.1c4.49,1.1,9.62,1.16,14,2.87C544.72,259,548.66,264.83,550,274a160,160,0,0,0,3.88,19c1.94,7.21,5.63,8.72,10.69,13.88a56,56,0,0,1,12.62,21.65c1,3.08,5.18,13.63,1.81,15.66" style="fill:none;stroke:#333;stroke-miterlimit:10;stroke-width:0.5px"/><path d="M565.92,349c2.91-5.95,2.27-18-1-23.67-4.66-8.23-10.83-15.12-14.76-23.93-7.36-16.48-10.16-32.51-28.38-40.32-9-3.87-18.56-7-27.06-12.31-8.28-5.14-11.64-16.24-16.68-24.56-4.34-7.18-9.22-18.41-15.65-23.81-4.07-3.43-9.66-4-14.71-4.1a99.82,99.82,0,0,1-24.08-3c-24.22-6.5-52.36-6.11-75.84,2.52-11.69,4.3-21.14,7-33.5,5.19-8.92-1.29-10.66,3-9.79,10.89.91,8.24,4.47,15.41,3.31,23.91-1.42,10.46-5.55,16-14.93,20.65-4.91,2.43-10.85,4.41-16.42,4.5-4.36.08-7.27-3.09-11.09-3.33-3.17-.21-6.63,2.6-9.74,3.42a82.8,82.8,0,0,1-15.73,2.79,20.43,20.43,0,0,1-7.78-.86c-5.46-1.94-10.19-2.72-16.11-3.85-2.56-.49-4.47-1.67-7.13-2.08-3-.47-7.41.57-10.22-.48-.87-.32-2.17-2.61-3.66-3.27-2.33-1-5.25-1.18-7.64-2.34-2.6-1.24-.71-2-4.49-2-3,0-4.41,1.49-6.5,2.94-7.39,5.13-12.78,9.27-22.62,7.71a6.5,6.5,0,0,1-8.1.59c-2-1.3-2.85-3.94-4.8-5.39-1.46-1.1-3.72-1.36-5.33-2.39-6.86-4.36-13.68-8.2-21.78-10.21-4.64-1.16-7.46-1.25-10.85,2.4-4.71,5.09-4.41,7.49-11.62,9.82-5.32,1.73-8.37,5.63-13.68,6.79-7.08,1.55-14.52.57-21.46,3.36-3.7-3.9-7.62-8.68-13-10.72-7.76-3-11.83,2.67-17.52,7.16-13.52,10.66-36.14-8-49.71,6.32" style="fill:none;stroke:#333;stroke-miterlimit:10;stroke-width:0.5px"/><path d="M-27.92,289.08c3.34.56,6.27,2.06,10,1.31,4.67-.95,9.35-4.52,13.61-6.63a87.8,87.8,0,0,0,13.14-7.83c5.29-3.87,8.86-3.82,15-5.46,5.06-1.36,11.37-7.36,16.72-3.1,2.38,1.9,1.25,3.52,4.41,4.92,2.92,1.31,7.43,1.21,10.58,1.33A74.69,74.69,0,0,0,68,273.15c3.85-.54,6.7-2.92,10.44-3.48,3.5-.53,7.24,1.66,10.71.28,3-1.2,6.23-4.73,9.12-6.51,6-3.67,7-10,13.57-10.13,7.26-.14,8.83,4.89,13,9.92,7.34,8.94,20.79,11,30.67,5.32,5.63-3.23,11.27-3.21,16.15-7,3.1-2.39,1.9-2.8,5.45-2.16,4.06.73,9.51,4.93,13.18,7,18.35,10.17,38.51,1.14,58.32,3.82a58.11,58.11,0,0,0,21.93-1c3.26-.68,6.53-.19,9.74-1.34,4.28-1.54,7.62-3.36,12-4.41,3.47-.82,5.82-3,8.86-4.26,2.25-1,4.62-.75,6.7-1.88,3.12-1.7,6.69-9.15,8.45-12.36,2-3.64,1.08-5.12,1.75-9,1.18-6.83,6.73-11,10.4-16.43,3.43-5,4.07-8.77,10.41-10.71,5-1.53,10.83-1.58,15.92-1.93,5.89-.41,10.75-2.1,16.32-4,11.57-3.9,21.17,1.38,32.71,1.08,9.32-.23,18.57-2.48,28.13-1.42,6.06.67,8.13,2.36,11.76,6,3.16,3.2,7,5.54,10.53,8.45,2.94,2.45,5.92,5.07,7.71,8.08.57.95,1.49,2,2.09,3.1.83,1.6,1.52,4.35,2.4,6.19.47,1,1.89,4.82,2.4,5.5.69.91,2.11,1.23,2.82,2.13,1.51,1.91,4.15,4.3,5.93,6.47,5.38,6.58,11.09,9.42,18.83,12.95,3.45,1.58,8.35,4.18,11.14,6.77,1.67,1.55.84,2.64,1.84,3.78,1.22,1.39,3.11,2.3,4.83,3.89,2.5,2.31,2.49,5.74,4.73,8,3.67,3.8,5.91,2.37,7.87,7.62.41,1.1-.55,2.52.07,3.62,1.19,2.08,3.93,2.16,5.2,4,1.85,2.65.45,5,.5,7.92.09,4.83,0,7.2-1.66,11.86-1,2.74-1.68,4.41-1.68,7.47,0,2.34,1.78,3.13.47,6.07" style="fill:none;stroke:#333;stroke-miterlimit:10;stroke-width:0.5px"/><path d="M-6.66,332.56c.33.7.06,1.13.89,1.45C-5,326.14-4,316,1.1,309.8c3.28-4,7.88-9.74,12.08-12.28,9.59-5.79,20.66-22.27,33.57-21.29,5.72.43,11.58,4.48,18.26,3.37,4.07-.68,7.63-1.75,11.91-2.12s7.42-2.38,11.73-3.31,5.4-.73,8.87-3.83c2.22-2,2.8-3.13,5.69-4.06,3.55-1.16,7.62-1.95,10.05,1.11,1,1.21.39,3.86,1.3,5.32s2.5,1.78,3.59,2.94c5.8,6.14,11.1,6.39,19.48,6.69,9.14.32,8.64-5.57,15.3-8.17,2.18-.85,6-.72,8.33-1.06,3-.44,4.05-1.21,6.62-1.95a15.79,15.79,0,0,1,11.24.5c4.83,1.95,5,4.22,7.79,7.81,5.54,7,18.94,6.24,27.19,5.28,4.85-.57,4-2.25,7.61-4.4,3-1.78,7.47-1.61,10.81-1.9,11.13-1,21,1.09,32,2.06a26.53,26.53,0,0,0,10-.54c4.17-1.27,7.41-5.79,11.28-6.81,4.72-1.24,9.54,2,14.49.47,6.14-1.85,9.36-7.09,13-11.78,4.52-5.91,7.52-9.55,10.11-16.38,1.87-4.92,5.92-9.86,10.22-13.47,4.79-4,10.52-4.37,15.42-7.19.72-3,13.52-6.63,16.76-7.76,3.56-1.25,7.12-3.06,11-2.9,6.08.26,10.4,5.24,16.82,4.41,4.24-.55,7-3.24,11.41-2.82,4.88.46,9,2.74,14.16,2.28,6.24-.55,10.24-.66,15.93,3.11,2.34,1.55,4,3.68,6.22,5.39,3.28,2.52,7.12,3.17,10.59,5.17,5.22,3,3.86,5.8,5.45,11.17a25.94,25.94,0,0,0,7.18,11.47c5.66,5.15,13.44,5.24,19.4,9.92,3.34,2.63,7,4.78,10.27,7.19,4,3,3,7.62,6.06,11.63,1.84,2.4,4.7,2.7,6.57,4.66,1.73,1.81,1.83,3.72,2.88,5.92a53.83,53.83,0,0,1,4.47,12.25c1,4.33,3.81,7.12,3.36,11.94a34.37,34.37,0,0,1-4.21,12.31" style="fill:none;stroke:#333;stroke-miterlimit:10;stroke-width:0.5px"/><path d="M526.09-46.47c.22-1.54,2.24-5,.76-6.56s-2.3.49-2.72,1.71c-.61,1.79-.72,3.59-1.72,5.18a26.06,26.06,0,0,1-3.27,4c-2.78,2.71-6.4,3.19-9.25,5.6-4.05,3.41-9.71,5.65-14.75,7.17-6.05,1.83-11.5,5.25-17.66,6.3-3.48.59-7.2,3.74-9.49,6.5a14.16,14.16,0,0,0-2.5,3.94c-.28.76-.11,1.69-.48,2.4-1,1.85-3.21,1.77-4.73,2.79-1.35.91-2.12,2.14-3.71,2.88-1.22.57-2.46.67-3.69,1.11-2.11.75-3.12,2.3-4.91,3.59-2.35,1.7-4.84,2.17-6.66,4.54-1.38,1.78-2.51,3.87-4.86,4.4-1.79.4-3.4-.11-5.23.65-1.44.59-4.34,2.34-4.69,4-1.14,5.29,5.94,4.58,8.59,2.66,1.37-1,2.1-2.33,3.73-3,3-1.26,6.35-1.79,9.42-2.81A28.37,28.37,0,0,0,459,3.58c1.5-1.47,2.83-3.76,4.69-4.8,2.2-1.22,5.26-.91,7.68-1.74,3.29-1.12,6.43-2.63,9.9-3,2.82-.34,5.72.22,8.32-1a29.68,29.68,0,0,0,4.21-2.4c1.31-.93,1.53-2,2.51-3.15s2.33-1.43,3.23-2.94c.3-.51-.24-1.24.17-1.73.64-.75,3.17-.84,4-1.07,3-.84,3.85-2.41,6.23-4s5.61-1.37,7.23-4.17c.55-.95.81-2.36,1.21-3.19l4.76-2.77c1.64-1.09.79-2.44,1.18-4a13.34,13.34,0,0,1,1.24-2.36C526.8-41.35,525.71-43.75,526.09-46.47Z" style="fill:none;stroke:#333;stroke-miterlimit:10;stroke-width:0.5px"/><path d="M308,27.45c-5.38,2.36-13.4.95-18.39-1.93-2.75-1.59-4-3.46-7.24-4.2-3.68-.83-6.43-3.08-10.11-4-5.87-1.49-11.93-2.48-17-5.71-6-3.8-10.93-6.69-18.2-6.65-6.45,0-13.43,1.73-14.15,9.15-.29,3,.95,6.36.29,9.21-.62,2.68-3.92,3.81-4.55,6.54-.57,2.42.91,6.4,1.37,8.72a9,9,0,0,0,6,7.38c3.35,1.42,1.83,2.8,3.22,5.91,1.16,2.6,4.62,6.36,7.41,7.19,3.23,1,7.15-.42,10.48-.1a16.44,16.44,0,0,1,6.19,2,.88.88,0,0,1-.23.72l9.29-2c4.05-1.1,8.3.75,12.3-.29,2.41-.63,6.29-2,7.87-4,2.58-3.18,3-5.2,7.85-5.32,5.32-.13,11.15,1.46,16.16-.83,2.41-1.1,6.15-2.8,6.87-5.65C314.76,38.05,310.39,32.09,308,27.45Z" style="fill:none;stroke:#333;stroke-miterlimit:10;stroke-width:0.5px"/><path d="M299,39.64c-.25-2-3.47-3.32-5.17-3.94-2.64-1-5.47-.28-8-1.69-1.7-.95-3.09-2.43-4.8-3.38-2.72-1.51-5.74-2.08-8.75-2.73-4-.87-7.67-1.52-11.29-3.52-1.59-.88-2.91-2.12-4.44-3.08-2.18-1.37-4.67-2.18-6.86-3.54-2.39-1.49-4.06-4.25-6.74-5.19-3.45-1.21-6.24.46-8.28,3.22-2.31,3.15-2.22,5.47-1.46,9s-1.63,3.09-3,5.47c-1.58,2.68,1.81,6,3.27,8,1,1.34,1.56,2.76,2.41,4.16.75,1.23,2,2.13,2.56,3.47,1,2.31-.66,4.62,1.65,5.82,1.76.91,3.76.69,5.66.49l11,1.35c.8,1.59,3.74,1.25,5.19,1.31,2.87.13,5.87-.12,8.32-1.8,1.75-1.19,2.53-2.92,4.43-4,2.69-1.51,5.35-3.38,8.44-3.82,1.88-.27,2.54-.94,4.2-1.64,2.44-1,5.32.24,7.89-.38C296.83,42.86,299.26,41.72,299,39.64Z" style="fill:none;stroke:#333;stroke-miterlimit:10;stroke-width:0.5px"/><path d="M273.79,37.53c-1.73-1.38-4.05-2.88-6.29-3.15-2.83-.33-4-.22-6.34-2-2-1.55-5.19-1.94-6.86-3.65-.79-.8-1-2-1.85-2.73a9.51,9.51,0,0,0-2.88-1.31c-1.75-.72-4.19-2.82-6.19-2.56-2.43.32-3.09,2.41-2.55,4.37.28,1,1,2,.82,3.09s-1,1.53-1.51,2.46c-.92,1.67-.65,2.32.35,4.19a6.61,6.61,0,0,0,2.33,2.82c.84.61,1.6.44,2,1.48.6,1.42-.12,2,.85,3.4.55.77,1.54,2.14,2.54,2.2l3.21,1.69c1.69-.63,3.94-.07,5.75-.49a12.55,12.55,0,0,0,5.23-2.82c3.18-2.39,7.63-.84,11-3.08C275.49,40.1,275.51,38.91,273.79,37.53Z" style="fill:none;stroke:#333;stroke-miterlimit:10;stroke-width:0.5px"/><path d="M248.79,197.69c-.78-3.94-2.45-7-2.9-11.08s-2.7-5.08-4.88-8.2c-2.41-3.43-3.35-8.59-4.84-12.48-1.7-4.41-1-8.32-1.56-12.89-.35-3-.23-6.25-.68-9.2-.4-2.66-2.37-3.9-3.21-6.39-.61-1.8-.21-3.73-1.07-5.52-.52-1.09-2.08-2.16-2.44-3.21-.57-1.67.18-2.6-1-4-.94-1.12-3.4-1.15-4.57-2.38-1.36-1.42-1.52-2.63-1.57-4.48-.07-2.84.41-5.71.26-8.62-.4-8,1.84-15.82,5.54-22.88,2-3.77,6.81-7.27,7.47-11.51a28.23,28.23,0,0,0-.81-8.7c-.93-2.56-4.74-4.87-7.36-5.59-3.13-.86-5.66.93-8.83,1.08-5.39.25-11,1-13.39,6.63-2.1,4.88-6.6,9.94-7.71,15.12-.6,2.76,1,4.66,1,7.39,0,1.9-.4,3.7-.3,5.62l-4.28,13.41c-2.39,3.37-1.89,5.83-1.7,9.72.17,3.63-1.36,7.43,1,10.4,1.6,2,4.58,3.55,5.85,5.85s.59,5.63.85,8.19a20.59,20.59,0,0,0,3.16,9.33c2.45,3.77,7,6.23,7.15,11,.2,5-1.58,9.42-.06,14.38,1,3.28,3.27,5.76,4.05,9.15.6,2.62,1.3,5.52,1.71,8.15.45,2.85-1.35,6.38-.48,9.07,1.13,3.55,4.88,2.54,7.74,3.8,3,1.33,3.89,2,7.56,1.95,4.64,0,9.47.85,14.06.58,3.27-.2,7.63-1.46,7.58-5.21A57.37,57.37,0,0,0,248.79,197.69Z" style="fill:none;stroke:#333;stroke-miterlimit:10;stroke-width:0.5px"/><path d="M243.05,198.07a13.72,13.72,0,0,0-2.6-7.2c-1.44-1.81-2.37-2.32-3.18-4.5a35.53,35.53,0,0,0-1.93-4.43c-1.34-2.55-2.41-5.12-3.78-7.39-2.12-3.53-1.82-7.24-3.11-11.25-1.63-5.07-2.6-10.62-4.72-15.47A156,156,0,0,1,216,125.64c-1.26-4.69-1.62-9.8-3.6-14.17-1.64-3.63-2.21-6.3-.81-10.29,2.63-7.5,9.67-14.22,10.84-22.11.16-1,.51-4.41-.09-5.34-1-1.59-.34-.76-2.31-1.3a8.94,8.94,0,0,0-7.86,1.73c-2.5,2.28-4.69,6.07-6.84,8.74-1.54,1.91-3.2,3.75-3.68,6.21-.6,3-.24,6.92-.31,10.08-.12,5.57-3,10.36-2.85,16l.29,3.42c-2.11-.48-2.75,5.09-1.68,6.3s3.55-.78,4.78,1.74c.81,1.64-.4,4.32.09,6.11,1.11,4.08,7.27,3.21,7.33,7.83,0,.37-1.08,1.12-1.12,2.05a5.6,5.6,0,0,0,.57,2c.47,1.43,1.36,3.41,2.57,4.19s2.58.07,3.68,1.11a20,20,0,0,1,2.64,5.26c.27,1.85-1.26,3.07-1.2,4.7,0,1.29,1,1.9,1.47,3a13.17,13.17,0,0,1,.85,5.25c-.12,2.61-1.89,3.33-2.57,5.54-1.62,5.22,4.22,10.24,3.66,15.15-.53,4.71-3.5,12.31,3.75,13.11,6.46.71,11.72,3,18.29,1.35C242,201.34,243.27,200.35,243.05,198.07Z" style="fill:none;stroke:#333;stroke-miterlimit:10;stroke-width:0.5px"/><path d="M670.84,338.91c-1.73-1-3.41-4.82-4.68-6.7-2.89-4.24-6.51-10-5.6-15.46.27-1.59,2.28-3.71,1.84-5.37s-2-.7-2.69-2.05c-1-2.11,1.94-7.32,2.06-10.06.25-5.6-.31-10.53,2.16-15.79,1.2-2.56,2.24-4.4,4.9-4.86,1.71-.3,3,.48,4.86-.07,2.63-.79,4.15-3.19,6.21-4.73,4.13-3.09,9.3-4.69,13.74-7.3,1.22-.72,3.28-2.61,4.61-3s2.74.18,4.07-.1c7.4-1.59,16.28-10.59,19.37-16.89,1.38-2.81,1.35-3.76,1.72-6.69.4-3.22,2.11-6.28,3.18-9.3.56-1.58,2.19-6.72,4.64-7,2.12-.23,5.71,5.56,6.37,7.28,1.14,2.94,2.79,5.46,3.57,8.56s-.19,3.08,3.24,4.91a16.56,16.56,0,0,1,5.36,3.92,66.82,66.82,0,0,0,4.93,4.72c3.13,2.72,3.8,5,5.6,8.67,2.78,5.62,8.4,13.34,15.22,13.8" style="fill:none;stroke:#333;stroke-miterlimit:10;stroke-width:0.5px"/><path d="M-18.5,49c1.22.28,3.67,2.88,6.41,3.23A28.41,28.41,0,0,0,0,51.55c3.54-1.11,6.64-2.73,10.37-1.84,3.2.77,3.52,3,6.09,4.5,1.92,1.11,4.07,1.13,6.05,2.34s3.19,2.51,5,3.73c4.69,3.18,10.1,4.71,14.63,8.15,5.07,3.86,7.48,10.53,10.39,16C54,87.3,54,87.39,54.4,90.73a33.44,33.44,0,0,1,.32,9.14c-.53,4.72-2.46,9.45-3.72,14-1.4,5-4.17,8.07-3.31,13.44,1.5,9.41-1.52,17.86-6.8,25.48-4.09,5.91-8.35,15.73-2.45,22,5.16,5.48,11.1,2.85,17.74,4.72,6,1.69,13,9.49,19.21,4.36,1.65-1.37,1.89-2.47,4-3.42,1.89-.84,4.25-1.06,6.24-1.71,3.57-1.16,7-3.21,10.88-2.06,6.06,1.81,7.42,11.78,6,17.17-.51,2-1.47,2.77-1.07,5.08.55,3.11,3,4.81-.67,7.14-2.82,1.78-6.25.41-9.12,1.58-2,.8-2.34,2.28-3.76,3.74-1.68,1.72-3.62,2.49-5.67,3.67-2.31,1.33-5.45,2.43-7.47,4.14-1.47,1.24-2.2,3.72-3.91,4.61-5.12,2.65-14-4.83-18.85-6-4.7-1.17-9.42-1.44-14-3.23-5.65-2.21-10.75-5.11-16.51-7.14-5.12-1.8-9.18-3.1-14.68-3.15-4.42,0-8.8.24-13.15-.69a16.44,16.44,0,0,1-7.81-3.38c-1.29-1.05-2.6-3.05-4.07-3.75-2-1-6.42-.68-7.18,1.87" style="fill:none;stroke:#333;stroke-miterlimit:10;stroke-width:0.5px"/><path d="M-30.71,55.28c3.74.11,8.16,2.49,11.8,3.31A70,70,0,0,0-6,60.22c4.05.17,6.06.07,9.31,2.61,2.87,2.24,4.78,3.78,8.45,4,5.21.38,10.14.07,15.25,1.69,4.62,1.47,7.94,5.21,11.16,8.62,9.09,9.61,7.49,21.76,7.2,34.23-.11,5,.87,10.76-.66,15.59-.92,2.93-2.88,5.49-3.39,8.56-.45,2.69-.55,5.33-1.18,8.05-1.4,6.06-6,10.33-7.52,16.43-1.33,5.19,0,8.16,1.41,12.94a19.32,19.32,0,0,0,7.84,11.2c5.43,3.65,11.73,1.62,17.69,2.86,4.63,1,7,4.21,11.93,3.42,3.25-.52,9.94-4.91,13-1.67,4.12,4.31-6.68,9.53-7.56,13-1.31,5.15,1.79,5.51-3.11,8.83-5.81,3.95-10.89,8.27-16.43,1.09-1.1-1.43-.92-2.93-2.53-3.76-1.19-.61-3.65-.29-5-.49-2.17-.32-4.27-1.05-6.48-1.15-1.85-.08-3.65.61-5.41.36-1.28-.18-2.69-1.42-4-1.76-3.16-.8-6.32-.47-9.41-1.85-3.86-1.73-4.92-4.72-9.15-5.76a74.25,74.25,0,0,1-13.91-4.49c-6-2.75-11.14-3.26-17.46-4.47" style="fill:none;stroke:#333;stroke-miterlimit:10;stroke-width:0.5px"/><path d="M-6.37,63.4A10.09,10.09,0,0,1-.85,67.3C1,69.89,3.63,72.46,6.94,72.69c5.37.37,10.91.11,16.18,1.33a10.83,10.83,0,0,1,6.08,4.35,63.51,63.51,0,0,1,6.4,9.89c.83,1.69,2,2.93,2.92,4.52s.84,3.51,1.17,5.42a32,32,0,0,1,.72,7.06c-.11,2.31-.66,5,.11,7.28.51,1.49,1.68,2.58,1.87,4.2s-.18,2.91.12,4.43.83,3.51.41,5.1c-.75,2.82-3.66,4.72-5.5,6.75-2.86,3.14-3.88,7.22-6.07,10.76-2.4,3.89-5.67,6.66-7,11.15a31.76,31.76,0,0,0-1.71,8.31c0,2.46.93,4.8,1,7.28.06,1.92-.18,3.79.56,5.6.62,1.53,1.58,2.84,2.16,4.38a14.34,14.34,0,0,0,8.34,8.74c2.48.88,4.79,1.38,7.25.26,2-.93,3.82-2.7,6.09-1.57,1.71.85,3,2.74,4.72,3.76a9.93,9.93,0,0,0,4.74,1.69c2.63.24,5.21-.52,7.87-.65s5,.48,7.74.63c.15,1.45-.73,2.51-1.29,3.77-.7,1.6-.55,3.21-1.18,4.77-.53,1.31-1.73,2.15-2.13,3.58-.33,1.2.13,2-.77,3.12a3.81,3.81,0,0,1-4.06,1.2c-1.73-.57-1.91-2.43-2.77-4-2-3.56-9.12-6.71-13.22-5.89-1.71.35-2.66,1.91-4.35,2.14s-4.87-.87-6.42-1.54c-2.36-1-4.39-2.72-6.78-3.8a20.4,20.4,0,0,0-9-2c-1.64,0-3.15.28-4.64-.54s-2.82-2.89-4.23-4.07c-2.84-2.39-5.83-4.83-9.29-6.23a57.9,57.9,0,0,0-9.1-3.29c-3.38-.72-12.44-1-13.57-4.81" style="fill:none;stroke:#333;stroke-miterlimit:10;stroke-width:0.5px"/><path d="M-8.3,81.57c2.37-.07,4.69.75,7.1.6C1.68,82,3.1,80.37,5.48,79c2-1.1,5.86-2.54,7.92-1.16,1.29.88.93,1.94,2,3,1.27,1.34,3.51,1.41,5.18,1.81,3.39.82,3.67,3.23,5.58,5.8a23,23,0,0,1,2.56,4.23,50.06,50.06,0,0,1,2.44,5.15c.52,1.72-.77,2.72-.79,4.36a16.69,16.69,0,0,0,1,4.29c.75,2,2.67,3.86,3.84,5.8a11.62,11.62,0,0,1,1.21,2.48c.17.6-.22,1.16,0,1.68.57,1.57,2.18,2.91,2.54,4.84.52,2.78-.91,5-2.92,6.78-2.79,2.48-6.32,4.51-8.45,7.57-2.8,4-5.6,8.56-6.1,13.44-.43,4.13-2.76,7.81-5.29,11-2.33,3-4.64,5.15-4.93,9.11-.39,5.51,3.32,9.35,6.67,13.23,2.2,2.56,1.45,4.88-2.28,3.89-4.64-1.24-4.83-5.88-8.29-8.17-2.94-1.94-7-2-10.38-1.81-3,.14-3.91.09-6.12-2s-12.62-14.76-16-8.76" style="fill:none;stroke:#333;stroke-miterlimit:10;stroke-width:0.5px"/><path d="M-10,90.66C-5.8,97,3.27,91.34,8.14,88.9c1.42-.71,2.85-2.46,4.61-2.14s3.28,3.08,4.1,4.47c1.23,2.08.94,3.15,3.26,4.45,2.77,1.56,4.12,1.78,4.58,5,.33,2.39-.37,5.61.37,7.87s2.71,3.36,4.22,4.77a7.51,7.51,0,0,1,2.24,3.81c.78,2.47,1.13,3.27-.77,5.15a14.65,14.65,0,0,0-3.49,5.48c-.35,1-.21,2.24-.77,3.1-.69,1.05-2.1,1.55-3.08,2.26a46.93,46.93,0,0,0-6.19,6.1c-2.46,2.67-2,5.84-2.54,9.15-.45,3-2.22,2.89-4.48,4.46A23.38,23.38,0,0,0,4,158.77c-.79,1.24-1.55,2.57-1.07,4,.29.91,1.64,1.8,1.65,2.88,0,2.33-4,3.54-5.88,4.17C-8.66,172.37-15.75,157-22,162.39" style="fill:none;stroke:#333;stroke-miterlimit:10;stroke-width:0.5px"/><path d="M-8.88,99.36c3.21.2,6,2.12,9.48,1.72,2.1-.24,7-1.91,8.35-3.85,1-1.38.06-2.29,2.26-2.69a3.73,3.73,0,0,1,4.29,2.58c.73,2.22.05,5.14,0,7.4-.12,3.56,1,5.1,3.85,7.09.8.57,3,1.58,3.35,2.62.52,1.58-1.92,4.72-2.68,6.18-1.43,2.8-3.58,5-5.09,7.75-1.17,2.13-3.17,4.11-2.61,6.68.72,3.28,1.8,3.76-.16,6.86s-4,5.66-7.84,6.41c-1.32.26-2.68-.08-3.91.5-.71.33-1.51,1.42-2.08,1.89-1.29,1.05-2.66,1.69-3.47,3.23-.54,1-.14,2.63-.6,3.44-1.08,1.92-5.5.88-7.77,1-3,.15-9.19.1-10.61,3.45" style="fill:none;stroke:#333;stroke-miterlimit:10;stroke-width:0.5px"/><path d="M-10.23,107.09c-.42,5.14,9.63,4.06,12.21,2.72,2-1,2.24-3.78,3.82-5,2.92-2.17,5.79,2.28,5.4,5-.24,1.64-2,2.89-2,4.6.06,1.53,1.57,2.4,2,3.79a7.28,7.28,0,0,1-1,5.29c-1.09,1.5-3.61,1.88-4.4,3.63-1.48,3.24.65,6.72-1.56,10A13.68,13.68,0,0,1-3.4,143c-3.91,1-10.74,5.09-10.89,9.71" style="fill:none;stroke:#333;stroke-miterlimit:10;stroke-width:0.5px"/><path d="M-12.17,114.63c3.87,2.34,10.69,6.25,14,1.73.91-1.24.35-2,2.43-1a5.79,5.79,0,0,1,2.92,5.9c-1,5.52-4.94,5.08-9,3.18s-8-5.57-13-3.24" style="fill:none;stroke:#333;stroke-miterlimit:10;stroke-width:0.5px"/><path d="M226.07,217.16c-3-1.43-6.39-2.25-9.49-3.72s-7.12-3.87-10.64-3.26c-2.31.4-2.68,2-5.17,1.91a59.06,59.06,0,0,1-12-1.8c-5.87-1.48-4-8.71-8.79-11.56-1.72-1-4.41-3.6-6.31-3.86-2.72-.37-5.65,2.14-7.86,3.29-3.59,1.87-7.51,3.23-11.56,1.94-3.37-1.07-4.4-3.49-6.57-5.94-3.15-3.56-7.23-4.71-11.63-5.92-4-1.1-9.24-1.44-12.36-4.42-4-3.84-7.65-12.56-15-9.38a3.74,3.74,0,0,0-2,5.05c.45,1,1.44,1.66,1.75,2.78a9.73,9.73,0,0,1-.17,3.64c-.41,2.69-1.82,5.41-1.56,8.14.18,2,.73,5.66,1.68,7.43,1,1.93,1.15,1.34,2.72.69,2.75-1.14,4.32-.88,7.15.39,4.33,1.95,6.77,6.27,11,7.91,3.59,1.38,9.11,1.07,12.22,3.46,2.13,1.64,1,3.87,5,2.55a30,30,0,0,1,4.65-1.29c3.05-.48,3-.13,4.12,2.12,1.05,2.07,4,3.64,6.33,3.79.8.05,2.76-.09,2.34-1l4.68-.4c1.26.8,2.5.31,3.69-.43a20,20,0,0,1,4.21-1.95c1.14-.44,2-1.35,3.18-1.83,3.47-1.45,7.58.36,10.94,1.33,4,1.17,8.13,1.58,12.15,2.64,2.76.72,3.35,2.45,5.57,3.95,3.68,2.48,12,5,16.38,3.18C228.31,225.15,229.9,219,226.07,217.16Z" style="fill:none;stroke:#333;stroke-miterlimit:10;stroke-width:0.5px"/><path d="M177.36,203.27c-.75-1.46-1.07-2.78-2.91-3.11a10.33,10.33,0,0,0-4.69.36c-2.21.76-4,1.91-6.36,2.39-3.43.7-6.82,1.74-10.29.76-2.46-.7-5.59-1.78-7.48-3.5-1.66-1.5-2.32-3.78-3.76-5.46a9.05,9.05,0,0,0-5.58-3l-5.62-3.06a8.23,8.23,0,0,0-5.49.53,4.39,4.39,0,0,1-3.82,1c-2.15-.25-2.71-1.45-3.48-3.29s-2-2.3-4.07-2.33c-1.54,0-2.53.05-2.13,1.81s.84,2.22.18,3.89-1.09,3.11.31,4.75,2,1.14,3.71.46a5.44,5.44,0,0,1,4.6-.06,12.68,12.68,0,0,1,3.8,3.31c1.16,1.29,2.13,1.49,3.75,2a34.66,34.66,0,0,1,10.18,5.8c2.27,1.79,3.56,5,6.65,5.83,2.11.57,4.28-.08,6.42.71,1.55.58,3,.74,4.53,1.2,1.18.37,1.41,1.1,2.16,2a7.38,7.38,0,0,0,3.44,2.09c2.88.75,5.09-1.38,6.76-3.45s4.41-1.55,6.4-3.54C176.82,209.13,178.93,206.31,177.36,203.27Z" style="fill:none;stroke:#333;stroke-miterlimit:10;stroke-width:0.5px"/><path d="M274.37,232.14c-1-1.28-3.39-1.7-4.8-2.49s-3-1.49-4.46-2.35c-1.87-1.09-1.44-1.44-1.48-3.32,0-1.36-.37-2.69-.43-4.08-.09-2.41-1.41-3.84-2.82-5.71s-1.43-2.45-.13-4.2a3.12,3.12,0,0,0,.5-3.69c-.48-1-1.37-2.77-2.52-3.2-1.87-.7-3.33,2.24-3.81,3.61-.34,1-.21,2.26-.76,3.11s-2,1.5-2.88,2.12c-3.06,2.22-7,3.9-10.8,3.76-1.73-.06-2.41-1.07-3.94-1.51a6.38,6.38,0,0,0-3.49.21c-3.3,1-1.5,3-1.33,5.52s-1.53,5.05-2.92,7c-.54.76-2.75,2.65-1.82,3.6a12.12,12.12,0,0,0,2.39.58,6.3,6.3,0,0,1,2.38,1,4.22,4.22,0,0,0,3,.93,12.31,12.31,0,0,0,4.48-.61,8.28,8.28,0,0,1,3.23-.78c2.5.07,2.52,1.15,4.06,2.62,1,1,2.83.23,4.27.15a4.13,4.13,0,0,1,2.47.49,4.65,4.65,0,0,0,1.37.69l3.1-.32c.34.22,1.13-.27,1.62-.42s1-.52,1.6-.74c1.41-.54,2.51.42,3.63,1.07a25.29,25.29,0,0,0,3.69,1.46c1.17.45,2.06,1.11,3.33,1.1s3.31-.39,3.82-1.77A5,5,0,0,0,274.37,232.14Z" style="fill:none;stroke:#333;stroke-miterlimit:10;stroke-width:0.5px"/><path d="M259.5,226.87c-.33-1.34-2-2.14-3-3s-2.63-1.86-2.73-3.24,1.29-1.72,1.64-2.79c.84-2.56-4.42-2.67-5.45-1-.85,1.36-.89,2.88-2.41,3.83s-4.24,1-5.92.76c-1.38-.22-2-1.42-3.24-1.75-.82-.22-2.85-.19-3.32.69s.92,1.69,1.1,2.55-.78,1.94-1.31,2.65c-1.89,2.53.43,4.59,3.2,3.82,1.39-.39,2.49-1.27,4-1.34,1.72-.08,2.37.54,3.73,1.44a11.1,11.1,0,0,0,8.16,1.67l2.56-.42c1.61-.2,1.7.14,2.3-1.13C259.18,228.62,259.76,228,259.5,226.87Z" style="fill:none;stroke:#333;stroke-miterlimit:10;stroke-width:0.5px"/><path d="M150.23,108.65c-.25-1.9-1.81-3.11-2.14-5-.7-4,2.6-7.8-.57-11.62-1.91-2.28-5.83-1.89-6.94-5.2s.71-6.89.85-10.22c.08-1.82-.47-3.12.25-4.9s1.55-2.86,1.59-4.72c.12-5.21-6.7-6.62-10.68-7.11-2.54-.32-4.67-.34-7,1a22.07,22.07,0,0,0-5.94,5.49c-1.62,2.47.39,6.34-1.31,8.58-1,1.26-2.94,1-4.26,1-1.77.06-3.48.41-5.25.45-4.41.1-10.75,1-10.49,6.59.09,2,.41,4.85,1.52,6.57.9,1.37,2.66,1.85,3.64,3,1.84,2.24-.16,5.45-.43,8-.43,4,1.36,9.77,6.62,8a9.57,9.57,0,0,0,3.38-2.47,4.92,4.92,0,0,1,2.81-1.34c.41-.1,4.24-1.81,3,.29l2.1.9c2.44.71,4.12,3.86,3.76,6.61-.43,3.29-2.51,6.08,2,7.63,2,.67,3.53,1.61,5.37,2.4.53.23,1.24.14,1.74.4.7.35.68.88,1.22,1.32,3.36,2.77,8.19.83,10.35-2.32a8.7,8.7,0,0,0,1.42-5.23c.06-1.87.93-2.3,1.93-3.79A6.75,6.75,0,0,0,150.23,108.65Z" style="fill:none;stroke:#333;stroke-miterlimit:10;stroke-width:0.5px"/><path d="M163,117.24c-1.08-1.43-2.93-2.62-3.63-4.25-.47-1.11-.11-2.21-.45-3.33-.92-3-4.06-4.74-5.73-7.22-1.47-2.18,0-3.56,1.62-5.28,3.9-4.22-2.82-7-5.67-9.35-3.4-2.8-4.68-5.31-3.07-9.61a36.68,36.68,0,0,1,4.13-7.68c1.21-1.7,3-2.84,4.24-4.53a14.87,14.87,0,0,0,2.1-6.24c1.32-7.42,1-17.07-6.35-21.26a20.69,20.69,0,0,0-7.78-2.7c-3.58-.27-5.55,1.09-8.61,2.59-1.73.85-2.73,2.08-4.24,3.27-1.73,1.37-3.73,1.91-5.61,3-3.5,2-5.72,5.43-7.84,8.73s-2.75,6.87-4.69,10.09c-.9,1.49-2.17,5.59-4.16,5.81l-.6.6c-2,1.17-4.57.49-6.62-.6-3.69-1.94-9.17-4.17-12.75-.77-4,3.78-5.28,8.16-4.76,13.55.34,3.45,2.57,6.54,4.27,9.47,1.54,2.65,3.94,6.13,3.81,9.28-.13,3-2.21,5.36-3.52,7.92-1.94,3.8-2.67,8.12,1.08,10.9,2.8,2.08,6.67,3.56,10.21,3.11s6.76-3.2,9.74-5.09c1.78-1.12,4.27-3,6-.88,3.1,3.67-2.62,12,1.53,14.88,1,.65,2.39.3,3.46.41a14.45,14.45,0,0,1,4.46,1.28,19.68,19.68,0,0,1,6.28,5.15,31.06,31.06,0,0,0,4.53,4.64c2.22,1.61,5.74.63,8.13-.25s6.6-4.06,6.29-7.09a9,9,0,0,0,.82-2.19,19.06,19.06,0,0,1,3.1-5.57c1-1.49,2.16-3.08,4-3.57,1.59-.42,3.37.18,5-.1C165.7,123.67,164.8,119.66,163,117.24Z" style="fill:none;stroke:#333;stroke-miterlimit:10;stroke-width:0.5px"/><path d="M168.19,118.15a21.18,21.18,0,0,0-2.81-4.42c-1.08-1.23-2.58-2.13-3.51-3.51-1.54-2.3-1-4.13-3.28-6-1.7-1.36-2.76-2.93-2-5.17.67-1.91,2.28-3,3.12-4.77,1.62-3.47-1.71-4.62-4.36-5.54a12.31,12.31,0,0,1-6.07-4.69c-1.13-1.64-1.91-4.28-.86-6.19s4-3.5,5.6-4.93c2.42-2.14,3.43-4.37,4.72-7.36a24.89,24.89,0,0,1,6.09-8.36c4.1-4,3.58-8.07,3.57-13.48,0-3.71,1.29-9.05-2.52-11.44-2.74-1.72-7.83-.4-11-.57-3.8-.19-7.41-1-11.25-.92s-6.72,1.67-10,3.76c-4.26,2.72-8.89,3.51-12.27,7.55-2.65,3.16-6.66,5.48-8.24,9.31-.92,2.24-.89,4.66-1.73,6.85-.52,1.36-1.25,2.57-1.75,4l-2.3,3.67c-.63,1.79-3.63,2.47-5.15,1.32-.5-.38-.88-1.53-1.43-2.08a7.3,7.3,0,0,0-3.54-2,18.34,18.34,0,0,0-11.23.23c-2.5.9-3,3.12-4.74,5-2.9,3.09-3.45,6.32-2.12,10.45,2.07,6.41,4.27,12.49,5.23,19.26.46,3.22.22,5.77-1.75,8.37-2.11,2.8-4.17,6.18-4.52,9.76-.4,4.06.74,7,4.56,8.57A45.49,45.49,0,0,0,97.46,128c3.21.2,6.23-.67,9.45-.51,2.23.12,2.79.28,2.81,2.45,0,1.72-.39,4.05.31,5.64,1.44,3.25,6.24,2,9,2.48,5.27.84,8.41,5.32,11.7,9.11,3,3.43,1.32,8.77,6.89,9.82,4.56.86,10.23-1.23,13.83-3.91,5.1-3.79,1.55-9.94,4.37-15,1.1-2,.88-4,3-5.46,2.45-1.76,6-1,8.8-1.73C173.78,129.27,170.09,121.92,168.19,118.15Z" style="fill:none;stroke:#333;stroke-miterlimit:10;stroke-width:0.5px"/><path d="M119.52,149.59c1.48,1.12,3.49.94,5.14,1.63,1.44.6,1.4,1.06,1.25,2.58a9.31,9.31,0,0,0,1.86,6.83c2.36,3.36,5.72,3.93,9.6,4.1a39.44,39.44,0,0,1,10.38,1.79,87.62,87.62,0,0,1,13.12,5.07c1.31.66,2.88,2,4.45,1.89,1.41,1.64,7.48-.09,9.28-.71a11,11,0,0,0,6.39-5.08c2-3.57,3.41-8,1.69-11.94s-5.39-7.34-5.12-12c.09-1.44.62-2.65.61-4.18v-4.61c0-2.5.31-5.21-.29-7.66-.43-1.74-1.33-3.29-1.83-5s-.83-3.3-1.42-4.93c-1.21-3.36-3.48-5.59-5.53-8.41-1.8-2.49-4.27-4.5-4.23-7.8,0-2,.18-4.25,1.21-5.66,1.86-2.57,3.38-6.31,1.56-9.26s-3.56-5.42-4.21-9,.18-5.56,2.55-8c3.11-3.26,6.63-6.15,11.05-7.36,3.62-1,6.14-1.88,7.94-5.32,1.48-2.81,3.15-6,1.83-9.24-.62-1.53-1.81-1.92-3-2.92a9.42,9.42,0,0,1-2.39-4c-.61-1.68-1-3.59.17-5.13.8-1,2.84-1.39,3.06-2.84.45-2.9-6.39-4.71-8.36-5.29-3.47-1-6.05-1.81-9.85-2.69a28.9,28.9,0,0,0-8.2-1c-4.39.17-8.5,1.06-12.92.87-6.89-.29-13.84-2.3-20.66-.14-7.49,2.37-14.25,6-22.2,7.07-4.24.55-9.8-.33-13.56,1.92-4.69,2.82-7.33,7.33-6.62,12.66.52,3.9-.13,6.94-3,9.65-1.71,1.58-5.91,3.1-5,5.92-1.43.7-1.5,3.45-1.57,4.83-.15,2.92-.55,5.8-.52,8.71,0,5.14,2,9.63,3,14.59.79,4.25,1.28,9.3.47,13.56-.91,4.81-5.66,8.06-6.77,13a22.87,22.87,0,0,0,.08,9.36c.86,3,4.16,5.29,6.54,7.07,2,1.53,4.37,2.94,4,5.78-.29,2.19-1.83,3.85-2.64,5.83-1,2.35-2.65,6.49-1.2,8.89,1.2,2,4,2.22,6.1,1.93a9.18,9.18,0,0,1,5.37.38,17.17,17.17,0,0,0,4,1.22c5.3.59,7.94-.74,11.7-4.23a10,10,0,0,1,2.81-1.86c1.31-.61,3-2.12,4.34-2.44s2.79,1,3.83.69A5.32,5.32,0,0,1,119.52,149.59Z" style="fill:none;stroke:#333;stroke-miterlimit:10;stroke-width:0.5px"/><path d="M118.16,152.92c3.54-.38,4.38,5.46,6.26,8,1.63,2.15,2.79,4.13,5.26,5.35,3,1.48,6.47,1.56,9.62,2.73a52,52,0,0,1,7.13,3.55c1.95,1.1,2.9,3.28,5,4.27,2.3,1.1,5.29,2.6,7.79,3,2.65.46,5.77-.62,8.44-.8,5.33-.37,10.38-.26,15.06,2.57,2.19,1.32,4.28,2.77,7,2.13,3.2-.77,3.56-2.7,3.82-5.58s-.94-5.6-1.86-8.25a76,76,0,0,1-2.7-8.92c-.7-3.28-.78-6.12-2.72-8.93a28.07,28.07,0,0,1-4.67-9.78A40.9,40.9,0,0,1,180.28,130a56,56,0,0,0-.48-10c-.56-4.45-2.88-7.23-5-11-2.2-4,0-6.1,1.23-9.89-.22-.55.31-1.19.57-1.88a13,13,0,0,0,.64-5c-.09-4.14-3.16-7-4.11-10.83C171,72.74,180.44,68.51,185.06,63c2.53-3,3.71-7.14,7-9.42,2.56-1.78,6.39-3,8.25-5.6s.56-7.34,0-10.32a70.67,70.67,0,0,0-2-9.38c-.49-1.54-1.06-3.11-2.63-3.9-1.76-.89-3.84,0-5.7.09-4.67.23-9.06-1.81-13-4.09-.4-.24-.85-.29-1.24-.55a5.34,5.34,0,0,0-4.15-1.26c-4.09.21-7.75,2.4-11.92,2.42-5.56,0-10.27-2.68-15.57-3.94a49.81,49.81,0,0,0-18-.61c-2.67.38-5.23,1.36-7.87,1.73a58,58,0,0,1-8.44.09c-5,0-10-1-14.94-1.59-4.26-.5-8.94-.27-12.09,3.09-2.53,2.7-3,6.92-4.89,10.06A8.91,8.91,0,0,1,73.53,34c-2.35.81-4.69,1-6.78,2.5-3.67,2.65-4.25,7.09-4.08,11.25a34.49,34.49,0,0,0,2.57,12.62,45.29,45.29,0,0,1,2.58,6.4c.88,3.54.93,7.43,1.13,11.06a35.42,35.42,0,0,0,.81,7c.61,2.2,1.74,3.85,1.84,6.23a31.09,31.09,0,0,1-.79,8.44,19,19,0,0,1-1.59,4.38c-.6,1.12-1.67,2.17-2,3.39s-.78,2.6-1.07,3.89c-.41,1.9-.62,3.81-1,5.7-1.12,5.17,1.23,9.07,2.25,13.9a29.09,29.09,0,0,1-.3,12.93c-.81,3.51-1.49,8.42,1.28,11.28a25.21,25.21,0,0,0,9,5.33c3,1,4.71.41,7.68.18,2.57-.21,4.9-.94,7.43-1.2,2.8-.28,5.52-.06,8.29-.58,2.6-.48,4.64-.66,6.49-2.74,1.67-1.88,2.45-2.13,5-2.88C114,152.56,116.41,153.11,118.16,152.92Z" style="fill:none;stroke:#333;stroke-miterlimit:10;stroke-width:0.5px"/><path d="M115.94,158.44a5.13,5.13,0,0,1,2.38,2.77c.17.52,0,1.16.41,1.57.69.63,2.46.29,3.38.77,1.09.56,1.91,1.61,3,2.26,1.83,1.15,3.46,2.59,5.3,3.72a41.1,41.1,0,0,0,8.74,4.26c.57.18,2.28.11,2.28.75,2,1.15,3.07,3.84,5.06,5.17,1.64,1.1,3.48,1.06,5.33,1.57a17.81,17.81,0,0,1,4.84,2c3.64,2.21,8.81,2.44,13,2.77,4.79.37,9.59.13,14.37.75,3.67.48,6.27,2.55,8.86,5,1.29,1.22,3.72,4.73,5.35,2.28s1.2-6.7,1.06-9.57c-.11-2.43-1.73-4-2.41-6.25-.74-2.46-.24-5.07-.9-7.47-.28-1-1.14-1.41-1.46-2.38-.85-.32-.67-2.47-.82-3.29a31.26,31.26,0,0,0-1.69-5.48c-1.17-3.15-2.3-6.31-3.77-9.35-.67-1.38-1.65-2.52-2.21-4-.48-1.23-.88-2.46-1.3-3.71-.91-2.69-2.26-5.35-3-8.11-1-4-.32-8.68-.54-12.76-.14-2.52-.44-5-.56-7.5a41.72,41.72,0,0,1-.09-5.81,12.53,12.53,0,0,0,.22-2.53,9.07,9.07,0,0,1-.32-2c-1.57-.28,1.21-7.64,1.55-8.64,1.17-3.43.83-7.41.73-11,0-1.35-.48-2.75-.45-4.08a6.73,6.73,0,0,1,.39-1.71,12.76,12.76,0,0,0,.38-3.75,24.22,24.22,0,0,1,.44-5c.36-1.75,2.51-4.44,3.62-6.11a23.53,23.53,0,0,1,4.2-5.31c1.8-1.52,4.19-2.23,6-3.75,2.11-1.76,3.88-3.92,5.89-5.8,1.47-1.39,3.28-2.63,3.13-4.92-.18-2.76-2.7-4.71-2.62-7.52.11-3.57,1.28-6.76.22-10.35-.79-2.69-2.53-4.63-5.4-4.64-4,0-8.69,0-12.52-1.34a22.19,22.19,0,0,1-3.68-2.14c-.41-.25-.4-.36-.93-.33a22.79,22.79,0,0,1-6-1,16.38,16.38,0,0,0-5.5-.19,38,38,0,0,1-10.33-.35c-2.74-.48-5.45-1-8.16-1.62a32.31,32.31,0,0,1-8-3c-3.77-1.9-8.22-.82-12.22-.74-2.25,0-4.62-.07-6.87.1-1.66.12-3.49,1.15-5.12,1.61a31.52,31.52,0,0,1-6,1.31,44.71,44.71,0,0,1-10.77-.8,69.48,69.48,0,0,0-9.91-1.47c-3.26-.13-6.82.74-10,1.31-3.65.65-8.36,1.74-10.5,5-1.81,2.76-3.19,5.61-5.54,8-2.86,2.92-5.69,6.46-9.1,8.74a15.71,15.71,0,0,1-4.63,2.27c-.36.1-.54.38-.79.45-3.07.82-6.72,4.07-8.14,7.12-1.84,3.92-.54,7.84,2.74,10.53,3,2.44,6.57,3.14,10,4.74,4.21,2,5.82,6.13,7.61,10.12a20.09,20.09,0,0,1,2.18,8.68,10.88,10.88,0,0,0,.83,3.81c.36,1.08.38,2.3.64,3.42,1,4.31,1.44,8.11-.93,11.73a23.17,23.17,0,0,0-2.17,5.24c-.68,1.94-1.8,3.69-2.42,5.63-1.52,4.75.58,10,.67,14.88,0,1.53.4,3,.34,4.53a26,26,0,0,1-.85,5c-.55,2.31-1.12,4.28-.74,6.69.44,2.83.94,5-.17,7.74-1.19,3-3,5.77-4,8.78-.71,2.16.38,3.35,1.68,5a57.06,57.06,0,0,0,4.08,5.31c1.84,1.89,4.75,2,7.19,1.52a17,17,0,0,0,5.92-2,10.79,10.79,0,0,1,4.7-2.07c3.24-.46,6.52-.59,9.78-.76,2.34-.11,4.62-.63,7-.65,3.41,0,6.52-.09,8.89-2.73a8.16,8.16,0,0,1,3.36-2.27,15.49,15.49,0,0,1,5.84,1.08Z" style="fill:none;stroke:#333;stroke-miterlimit:10;stroke-width:0.5px"/><path d="M-5.7,3.44C-1.49,3.49,7,.63,11.16-1.86c6.49-3.87,9.51-11.57,16.53-15.09,9.46-4.73,20-4.69,30-7.4,8.16-2.2,15.68-7.37,24.1-8.46,6.73-.86,13.66,2.16,19.86,4.31,8.27,2.86,17.14,2,24.92,6.21s20.68,6.05,29,3.13c5.82-2,12.23-6,18.81-4.57,3,.65,2.41,2.29,4.32,4.1,3.12,3,10,2.65,14,3,2.7.24,6.26-.32,8.77.59,3,1.1,7.27,6.25,9.12,8.81,1.4,2,1.62,4.09,3.24,5.88,1.82,2,4.49,2.66,4.17,6-.47,4.8-10,7-14.09,6.79S196.41,9.83,192.58,9c-4.22-.88-8.45-.39-12.63-1.31-9.44-2.08-18.58-3.62-27.69-7.38s-18.6-5.89-28.21-2.15c-2.68,1-5,3-7.6,4-3.94,1.45-9.94,1.17-14,1a36.16,36.16,0,0,1-8.84-1.4C91.46,1.07,90-.5,88-1.39,82.25-4,75.81-1.7,70.3.34,65.54,2.09,60.59,4.65,57.73,9,55,13.19,53.57,16.7,49.22,19.61,44,23.13,37.5,23.94,31.4,25c-6.5,1.11-9.54,3-13.46,7.88-3.57,4.47-7.92,9.22-13.86,10-4.67.65-13.06,1.35-17.45-.2" style="fill:none;stroke:#333;stroke-miterlimit:10;stroke-width:0.5px"/><path d="M-11.6,11.41c1.21-1.07,1.89-.57,3.23-.9C-5.46,9.8-2.9,8.27-.08,7.26,4.38,5.65,9.43,5,13.64,2.86,18.77.23,24.86-4.68,29.1-8.53c2.38-2.17,4-5,6.88-6.64C39.09-16.93,43.08-17,46.5-18c7.87-2.41,15.78-5.95,23.8-7.62C76.41-26.9,82.77-26.69,89-27c6.74-.31,12.5,1.55,18.91,3.38,11.52,3.31,22.65,8.13,34.32,10.87,6.25,1.47,13.07,2.34,19.17.28a28.52,28.52,0,0,1,17-.13c4.17,1.24,8.62,1.12,12.47,3.32,5.09,2.9,10.63,8.45,2.56,11.53-8.54,3.25-20.8,1.55-28.73-2.68-2.77-1.48-4.75-3-7.85-3.61-2.73-.54-5.54-.73-8.27-1.32a45.2,45.2,0,0,1-8.21-3c-4.73-2-10.11-2.22-15.18-1.87-8.41.58-15.59,4.7-24.31,4.17-11.33-.68-23-4.49-34.18-.86C56.86-3.66,50.66,5,42.54,10.6,32.28,17.66,19.71,21.12,9.66,28.33,6,31,4.56,33.35-.2,34c-5.74.77-11.56,1.3-17.3,1.91" style="fill:none;stroke:#333;stroke-miterlimit:10;stroke-width:0.5px"/><path d="M-8.59,14.28a.94.94,0,0,1,0-.41,44.34,44.34,0,0,0,5.45-1.14C-1,12,.86,10.91,3,10.26a63.32,63.32,0,0,1,7.18-1.32c3.54-.65,6.08-2.42,9.14-4.14A50.62,50.62,0,0,0,26,.63c1.49-1.16,2.42-2.8,3.92-3.92,1.73-1.3,4-1.72,5.83-2.86,1.31-.83,2-2.15,3-3.28,3.21-3.54,6.82-5.07,11.5-6a66.94,66.94,0,0,0,13.1-4,60.69,60.69,0,0,1,25.9-4.32c3.72.24,7,1.65,10.56,2.6,2.06.55,4.19.75,6.29,1.11,1.5.26,3.39.06,4.78.72,1.13.53,4.74,2.89,4.82,4.37.12,2.32-7.3,4.84-9.22,5.44-5.28,1.67-9.08-.6-14-2a38.55,38.55,0,0,0-18.39-.84c-5,1.14-10.42,1.82-15.28,3.58C53.62-6.83,48-3.29,43.47,0c-4.09,3-8.06,6.25-12.33,9s-8.41,4.78-12.33,7.71-8.19,8.69-13.18,9.25a17.74,17.74,0,0,1-6.33-.6,15.89,15.89,0,0,0-9.43.9" style="fill:none;stroke:#333;stroke-miterlimit:10;stroke-width:0.5px"/><path d="M-7.61,16.65c2.66.87,5.07.53,7.76,0A19.25,19.25,0,0,0,3.93,15c1.14-.48,2.45-.65,3.57-1.16.8-.38,1.47-1,2.24-1.43,1.31-.76,2.91-1.11,4.09-2.07s2.06-2,3.61-2.65a27.68,27.68,0,0,1,4.29-.88c2.38-.55,3.37-3.08,5.61-3.52.95-.18,2.2-.19,2.29,1S28,6,27.25,6.55c-2.76,2-5.63,3.7-8.54,5.43a39.27,39.27,0,0,0-4.38,2.81c-1.07.85-1.71,1.92-2.87,2.67a12.81,12.81,0,0,1-5,2.16c-1.64.21-3.16.83-4.76,1.07-3.86.59-7-1.59-10.78.83" style="fill:none;stroke:#333;stroke-miterlimit:10;stroke-width:0.5px"/><path d="M34.75.9c-.84-1.42-.34-2.14,1.32-3.14,2.74-1.64,5-2,7-4.59a12.06,12.06,0,0,1,5.48-4.41c2.47-1.07,5.13-1.29,7.62-2.52,2.69-1.34,4.86-1.38,7.8-1.39a24.37,24.37,0,0,0,10.25-2.43C77.08-19,79.1-19.9,82.38-20a20.11,20.11,0,0,1,4.45-.1c.93.18,1.62.82,2.53,1.06,2,.52,4.57.14,6.69.14,1.32,0,2.9-.35,3.78.78.61.79,1.18,2.72.21,3.48-1.85,1.45-6.23-.77-8.22-1-2.31-.31-4.68-.21-7-.43a26.78,26.78,0,0,0-7.32,0c-4.79.8-9.14,2.62-13.85,3.59-3.51.73-8.57.84-11.44,3.16-2.69,2.18-5.63,4-8.4,6.12-2.29,1.75-4.57,5.46-7.47,5.13A2,2,0,0,1,34.75.9Z" style="fill:none;stroke:#333;stroke-miterlimit:10;stroke-width:0.5px"/></g><rect y="-176.28" width="754.02" height="493.77" style="fill:none;stroke:#333;stroke-miterlimit:10"/></svg>