<?xml version="1.0" encoding="utf-8"?>
<!-- Generator: Adobe Illustrator 24.3.0, SVG Export Plug-In . SVG Version: 6.00 Build 0)  -->
<svg version="1.1" id="Capa_1" xmlns="http://www.w3.org/2000/svg" xmlns:xlink="http://www.w3.org/1999/xlink" x="0px" y="0px"
	 viewBox="0 0 448.47 401.99" style="enable-background:new 0 0 448.47 401.99;" xml:space="preserve">
<style type="text/css">
	.st0{fill:#FFFFFF;}
</style>
<path class="st0" d="M82.49,182.99c-3.66,13.34,6.09,21.52,12.84,31.02c-29.13,8.89-35.9,34.33-31.66,51.39
	c5.12,20.61,25.16,34.79,45.68,32.16c24.65-3.16,37.9-21.15,37.27-51.13c8.63-1.14,17.35-2.16,26.02-3.49
	c3.31-0.51,5.48,0.31,6.73,3.43c1.76,4.38,5.11,5.34,9.6,5.31c24.83-0.18,49.65-0.13,74.48-0.05c6.45,0.02,13.31,1.22,13.93-8.53
	c5.42,1.58,10.01,2.92,14.63,4.26c0,1.51,0.09,2.65-0.01,3.78c-2.26,24.96,16.59,46.31,41.19,46.64c24.86,0.33,45.18-20.19,42.53-45
	c-0.99-9.3,1.69-13.9,8.82-18.07c2.02-1.18,4.22-3.82,4.45-6c1.1-10.08,1.51-20.23,2.23-30.35c0.25-3.49-0.79-5.65-4.57-6.47
	c-1.29-0.28-2.85-2.12-3.2-3.51c-1.36-5.47-2.49-11.01-3.28-16.58c-0.6-4.2-2.56-6.67-6.71-7.48c-15.99-3.1-31.95-6.37-47.99-9.21
	c-3.61-0.64-6.45-1.56-9.02-4.37c-12.92-14.15-26.2-27.97-39-42.22c-3.88-4.32-7.96-6.15-13.74-6.45
	c-38.26-2.03-76.5-4.42-114.75-6.68c-7.98-0.47-15.97-1.14-23.95-1.11c-1.73,0-3.45,2.58-5.17,3.97c1.57,1.57,2.95,3.46,4.78,4.61
	c1.2,0.76,3.07,0.46,4.62,0.63c0,0.8,0.11,1.17-0.02,1.44c-7.68,16.25-15.33,32.53-23.21,48.68c-0.57,1.18-2.86,2.09-4.38,2.13
	c-7.99,0.21-15.99,0.1-23.99,0.1c-13.07,0-13.07,0-10.86,12.71c2.08,11.98,2.08,11.98,14.03,13.79
	C80.98,182.35,81.13,182.44,82.49,182.99z"/>
<path d="M82.49,182.99c-1.36-0.54-1.51-0.63-1.67-0.66c-11.95-1.82-11.95-1.82-14.03-13.79c-2.21-12.71-2.21-12.71,10.86-12.71
	c8,0,16,0.11,23.99-0.1c1.52-0.04,3.81-0.96,4.38-2.13c7.88-16.16,15.52-32.43,23.21-48.68c0.12-0.26,0.02-0.64,0.02-1.44
	c-1.55-0.17-3.42,0.13-4.62-0.63c-1.84-1.15-3.21-3.04-4.78-4.61c1.72-1.39,3.44-3.96,5.17-3.97c7.98-0.02,15.97,0.64,23.95,1.11
	c38.25,2.26,76.49,4.65,114.75,6.68c5.78,0.31,9.86,2.13,13.74,6.45c12.8,14.25,26.08,28.07,39,42.22c2.57,2.81,5.4,3.73,9.02,4.37
	c16.04,2.84,32,6.11,47.99,9.21c4.15,0.8,6.11,3.28,6.71,7.48c0.79,5.57,1.93,11.12,3.28,16.58c0.35,1.4,1.9,3.23,3.2,3.51
	c3.78,0.82,4.82,2.99,4.57,6.47c-0.73,10.12-1.13,20.27-2.23,30.35c-0.24,2.18-2.43,4.81-4.45,6c-7.13,4.17-9.81,8.77-8.82,18.07
	c2.65,24.8-17.67,45.33-42.53,45c-24.61-0.33-43.45-21.68-41.19-46.64c0.1-1.13,0.01-2.27,0.01-3.78
	c-4.62-1.35-9.21-2.68-14.63-4.26c-0.62,9.75-7.48,8.55-13.93,8.53c-24.83-0.08-49.66-0.12-74.48,0.05
	c-4.49,0.03-7.85-0.92-9.6-5.31c-1.25-3.12-3.42-3.94-6.73-3.43c-8.67,1.33-17.39,2.35-26.02,3.49
	c0.63,29.98-12.62,47.97-37.27,51.13c-20.52,2.63-40.56-11.55-45.68-32.16c-4.24-17.06,2.53-42.51,31.66-51.39
	C88.58,204.51,78.83,196.33,82.49,182.99z M75.84,164.8c-0.78,5.95,1.35,8.23,7.02,8.44c7.61,0.29,15.17,2.01,22.78,2.26
	c9.73,0.33,17.72,4.07,25.63,9.46c21.56,14.71,40.28,32.11,54.22,54.31c1.68,2.67,3.61,3.35,6.53,3.34
	c23.65-0.1,47.31-0.18,70.96,0.04c4.26,0.04,6.11-1.39,7.42-5.31c4.31-12.9,10.26-24.84,20.79-34.05
	c12.06-10.55,25.42-17.5,41.99-16.27c3.89,0.29,7.77,0.76,11.99,1.17c-0.33-2.39-0.64-4-0.77-5.63c-0.67-8.51,1.1-10.09,9.44-8.87
	c5.78,0.85,11.6,1.45,17.41,2.16c0.17-0.49,0.35-0.98,0.52-1.46c-1.35-0.7-2.63-1.63-4.06-2.08c-22.59-7.18-45.93-9.31-69.46-9.95
	c-2.42-0.07-5.24,0.96-7.26,2.37c-14.83,10.27-24.72,24.55-31.15,41.09c-2.35,6.04-5.85,6.87-11.4,6.69
	c-10.95-0.35-21.92-0.19-32.87-0.01c-3.71,0.06-6.45-0.95-9.41-3.39c-8.57-7.05-17.3-13.98-26.52-20.14
	c-7.99-5.33-16.56-9.89-25.19-14.14c-7.73-3.81-15.72-8.93-23.91-9.58C112.5,163.8,94.29,164.8,75.84,164.8z M306.13,152.77
	c-11.58-12.44-23.03-24.47-34.11-36.82c-3.2-3.57-6.62-4.8-11.22-5.05c-31.43-1.68-62.85-3.52-94.25-5.51
	c-3.38-0.21-5.04,0.51-6.36,3.73c-5.82,14.16-11.93,28.2-17.9,42.29c-0.54,1.27-0.84,2.63-1.34,4.21c1.67,0.13,2.65,0.27,3.64,0.28
	c42.19,0.52,84.18,3.2,125.72,11.14c1.8,0.34,4.47-0.79,5.92-2.12c8.13-7.52,16.47-14.17,28.65-11.57
	C305,153.38,305.17,153.22,306.13,152.77z M157.41,165.89c0.53,0.36,1.01,0.8,1.58,1.08c19.28,9.19,37.59,19.84,53.17,34.72
	c1.05,1.01,2.92,1.59,4.43,1.61c7.81,0.12,15.66-0.47,23.43,0.09c7.56,0.54,13.44-0.41,14.91-9.23c0.13-0.76,0.81-1.43,1.23-2.14
	c3.13-5.37,6.26-10.74,9.64-16.55C229.91,168.48,193.8,166.2,157.41,165.89z M104.81,288.84c17.94,0.06,33.09-14.95,33.32-32.99
	c0.23-18.17-14.91-33.57-33.12-33.7c-18.22-0.12-33.45,14.97-33.57,33.24C71.33,273.54,86.54,288.78,104.81,288.84z M300.79,255.67
	c0.12,18.4,15.26,33.4,33.5,33.17c18.09-0.22,33-15.24,33.01-33.25c0.01-18.28-15.15-33.49-33.34-33.43
	C315.64,222.22,300.67,237.33,300.79,255.67z M335.72,213.01c14.89,1.37,26.48,8.16,35.14,21.44c3.4-3.33,8.37-5.92,9.15-9.44
	c1.7-7.62,1.26-15.72,1.73-24.19c-17.02-1.56-33.44-3.06-50.47-4.61C332.94,202.5,334.32,207.74,335.72,213.01z M152.26,104.96
	c-2.09-0.28-3.73-0.37-5.3-0.74c-5.16-1.2-7.92,0.65-10.13,5.67c-6.03,13.68-12.76,27.05-19.19,40.55
	c-0.74,1.55-1.33,3.17-2.25,5.37c4.86,0,8.84,0.17,12.8-0.11c1.17-0.08,2.82-1.18,3.28-2.23
	C138.43,137.51,145.22,121.47,152.26,104.96z M91.25,183.46c0.34,4.11-0.45,8.01,1.07,10.49c3.91,6.33,8.72,12.13,13.43,17.94
	c2.11,2.61,5.73,1.98,7.29-1.02c2.53-4.86,5.06-9.72,7.32-14.71c2.57-5.67,0.81-9.31-5.29-10.22
	C107.52,184.83,99.89,184.33,91.25,183.46z M170.08,234.33c0.19-0.51,0.39-1.02,0.58-1.53c-7.06-7.55-14.13-15.1-21.51-23
	c-3.8,6.25-7.15,11.58-10.31,17.02c-1.47,2.52,3.28,10.84,6.14,10.55C153.37,236.54,161.72,235.37,170.08,234.33z M294.22,238.58
	c3.82-4.96,7.1-9.1,10.21-13.37c0.67-0.92,1.27-2.41,1-3.39c-1.3-4.75-2.9-9.42-4.6-14.77c-9.55,7.5-15.71,16.55-19.89,27.65
	C285.84,236.13,290.25,237.41,294.22,238.58z M130.67,195.57c-3.33,7.12-6.45,13.77-9.64,20.58c3.48,2.01,6.68,3.86,10.17,5.88
	c1.72-2.99,3.4-5.63,4.81-8.41c1.71-3.37,5.11-7.46,4.26-10.12C139.29,200.41,134.5,198.52,130.67,195.57z M326.31,213.5
	c-0.92-2.96-1.75-5.46-2.46-7.99c-2.8-9.91-3.89-10.38-12.67-4.94c-0.95,0.59-1.99,2.41-1.74,3.32c1.3,4.7,3,9.29,4.59,14
	C318.18,216.4,322.02,215.03,326.31,213.5z M353.09,182.77c1.53,2.94,2.26,6.17,3.48,6.37c5.65,0.93,11.44,1.01,17.19,1.4
	c0.34-0.37,0.68-0.74,1.01-1.11c-1.07-1.4-1.94-3.75-3.24-4.02C366.07,184.28,360.48,183.77,353.09,182.77z"/>
<path class="st0" d="M75.84,164.8c18.45,0,36.67-1,54.69,0.45c8.19,0.66,16.18,5.78,23.91,9.58c8.63,4.25,17.2,8.81,25.19,14.14
	c9.22,6.15,17.95,13.09,26.52,20.14c2.96,2.43,5.71,3.45,9.41,3.39c10.96-0.19,21.92-0.35,32.87,0.01c5.55,0.18,9.05-0.65,11.4-6.69
	c6.44-16.54,16.32-30.81,31.15-41.09c2.02-1.4,4.84-2.43,7.26-2.37c23.52,0.64,46.86,2.77,69.46,9.95c1.43,0.45,2.71,1.38,4.06,2.08
	c-0.17,0.49-0.35,0.98-0.52,1.46c-5.8-0.71-11.62-1.32-17.41-2.16c-8.34-1.22-10.11,0.36-9.44,8.87c0.13,1.63,0.44,3.24,0.77,5.63
	c-4.22-0.42-8.1-0.88-11.99-1.17c-16.57-1.23-29.93,5.72-41.99,16.27c-10.53,9.21-16.48,21.15-20.79,34.05
	c-1.31,3.92-3.16,5.35-7.42,5.31c-23.65-0.22-47.31-0.14-70.96-0.04c-2.92,0.01-4.85-0.66-6.53-3.34
	c-13.95-22.2-32.67-39.6-54.22-54.31c-7.91-5.4-15.9-9.14-25.63-9.46c-7.61-0.26-15.17-1.98-22.78-2.26
	C77.18,173.03,75.06,170.75,75.84,164.8z"/>
<path class="st0" d="M306.13,152.77c-0.96,0.45-1.13,0.6-1.26,0.58c-12.17-2.6-20.51,4.05-28.65,11.57
	c-1.44,1.33-4.11,2.47-5.92,2.12c-41.54-7.94-83.53-10.62-125.72-11.14c-0.99-0.01-1.98-0.15-3.64-0.28
	c0.49-1.57,0.8-2.94,1.34-4.21c5.97-14.1,12.08-28.13,17.9-42.29c1.33-3.23,2.99-3.95,6.36-3.73c31.41,1.99,62.83,3.84,94.25,5.51
	c4.6,0.25,8.02,1.48,11.22,5.05C283.1,128.3,294.55,140.33,306.13,152.77z"/>
<path class="st0" d="M157.41,165.89c36.39,0.31,72.5,2.59,108.39,9.58c-3.38,5.81-6.51,11.18-9.64,16.55
	c-0.42,0.72-1.1,1.38-1.23,2.14c-1.47,8.82-7.35,9.77-14.91,9.23c-7.77-0.56-15.62,0.03-23.43-0.09c-1.5-0.02-3.37-0.61-4.43-1.61
	c-15.58-14.88-33.89-25.53-53.17-34.72C158.43,166.69,157.94,166.25,157.41,165.89z"/>
<path class="st0" d="M104.81,288.84c-18.27-0.06-33.48-15.3-33.36-33.45c0.12-18.27,15.35-33.36,33.57-33.24
	c18.2,0.12,33.35,15.53,33.12,33.7C137.9,273.89,122.75,288.9,104.81,288.84z M127.4,255.33c-0.09-12.76-10.24-22.66-23.04-22.46
	c-12.5,0.19-22.3,10.25-22.21,22.81c0.09,12.53,10.03,22.43,22.56,22.47C117.47,278.17,127.49,268.1,127.4,255.33z"/>
<path class="st0" d="M300.79,255.67c-0.12-18.33,14.85-33.45,33.17-33.51c18.18-0.06,33.34,15.14,33.34,33.43
	c-0.01,18.01-14.92,33.03-33.01,33.25C316.05,289.06,300.91,274.07,300.79,255.67z M334.03,278.15
	c12.51-0.01,22.52-9.92,22.65-22.44c0.14-12.66-10.04-22.9-22.73-22.86c-12.51,0.03-22.55,9.98-22.66,22.44
	C311.19,267.96,321.33,278.16,334.03,278.15z"/>
<path class="st0" d="M335.72,213.01c-1.4-5.28-2.78-10.51-4.45-16.8c17.03,1.56,33.45,3.06,50.47,4.61
	c-0.47,8.47-0.03,16.57-1.73,24.19c-0.79,3.52-5.75,6.11-9.15,9.44C362.2,221.17,350.61,214.38,335.72,213.01z"/>
<path class="st0" d="M152.26,104.96c-7.04,16.5-13.84,32.55-20.8,48.52c-0.46,1.05-2.11,2.15-3.28,2.23
	c-3.95,0.28-7.94,0.11-12.8,0.11c0.92-2.2,1.51-3.82,2.25-5.37c6.43-13.5,13.16-26.87,19.19-40.55c2.21-5.02,4.98-6.87,10.13-5.67
	C148.53,104.59,150.17,104.68,152.26,104.96z"/>
<path class="st0" d="M91.25,183.46c8.64,0.87,16.27,1.37,23.82,2.48c6.1,0.9,7.86,4.55,5.29,10.22c-2.26,4.99-4.78,9.85-7.32,14.71
	c-1.56,3-5.18,3.62-7.29,1.02c-4.7-5.81-9.52-11.61-13.43-17.94C90.8,191.47,91.58,187.57,91.25,183.46z"/>
<path class="st0" d="M170.08,234.33c-8.36,1.04-16.72,2.21-25.1,3.05c-2.85,0.29-7.6-8.03-6.14-10.55
	c3.16-5.44,6.5-10.77,10.31-17.02c7.38,7.89,14.45,15.44,21.51,23C170.47,233.31,170.28,233.82,170.08,234.33z"/>
<path class="st0" d="M294.22,238.58c-3.97-1.16-8.38-2.45-13.28-3.88c4.18-11.1,10.34-20.15,19.89-27.65
	c1.7,5.34,3.3,10.01,4.6,14.77c0.27,0.98-0.33,2.48-1,3.39C301.32,229.47,298.04,233.62,294.22,238.58z"/>
<path class="st0" d="M130.67,195.57c3.84,2.95,8.63,4.84,9.61,7.93c0.85,2.66-2.55,6.76-4.26,10.12c-1.41,2.78-3.09,5.42-4.81,8.41
	c-3.49-2.02-6.7-3.87-10.17-5.88C124.22,209.35,127.33,202.69,130.67,195.57z"/>
<path class="st0" d="M326.31,213.5c-4.29,1.53-8.12,2.9-12.28,4.38c-1.59-4.71-3.3-9.3-4.59-14c-0.25-0.91,0.79-2.73,1.74-3.32
	c8.78-5.44,9.87-4.96,12.67,4.94C324.56,208.04,325.39,210.54,326.31,213.5z"/>
<path class="st0" d="M353.09,182.77c7.4,0.99,12.98,1.5,18.44,2.64c1.3,0.27,2.17,2.62,3.24,4.02c-0.34,0.37-0.68,0.74-1.01,1.11
	c-5.74-0.39-11.53-0.47-17.19-1.4C355.34,188.94,354.62,185.72,353.09,182.77z"/>
<path d="M127.4,255.33c0.09,12.77-9.93,22.85-22.69,22.81c-12.53-0.03-22.47-9.93-22.56-22.47c-0.09-12.55,9.71-22.61,22.21-22.81
	C117.16,232.67,127.31,242.57,127.4,255.33z M118.45,255.48c-0.04-7.55-6.07-13.62-13.56-13.66c-7.72-0.04-13.95,6.26-13.79,13.95
	c0.16,7.51,6.34,13.51,13.83,13.42C112.47,269.09,118.49,262.99,118.45,255.48z"/>
<path d="M334.03,278.15c-12.7,0.01-22.84-10.19-22.74-22.86c0.11-12.46,10.15-22.4,22.66-22.44c12.69-0.03,22.86,10.2,22.73,22.86
	C356.55,268.23,346.54,278.14,334.03,278.15z M333.88,241.8c-7.41,0.05-13.63,6.28-13.65,13.68c-0.02,7.59,6.46,13.88,14.12,13.7
	c7.5-0.17,13.43-6.39,13.29-13.92C347.5,247.71,341.4,241.74,333.88,241.8z"/>
<path class="st0" d="M118.45,255.48c0.04,7.51-5.98,13.61-13.52,13.7c-7.49,0.09-13.67-5.91-13.83-13.42
	c-0.16-7.69,6.07-13.99,13.79-13.95C112.38,241.86,118.41,247.93,118.45,255.48z"/>
<path class="st0" d="M333.88,241.8c7.52-0.06,13.62,5.91,13.76,13.46c0.14,7.54-5.79,13.75-13.29,13.92
	c-7.66,0.18-14.14-6.11-14.12-13.7C320.25,248.08,326.47,241.85,333.88,241.8z"/>
</svg>
