<?xml version="1.0" encoding="UTF-8"?>
<svg width="24px" height="24px" viewBox="0 0 24 24" version="1.1" xmlns="http://www.w3.org/2000/svg" xmlns:xlink="http://www.w3.org/1999/xlink">
    <title>ic_facebook</title>
    <g id="Page-1" stroke="none" stroke-width="1" fill="none" fill-rule="evenodd">
        <g id="2---Admins-form" transform="translate(-1099.000000, -70.000000)" fill="#FFFFFF">
            <path d="M1115,70 C1119.41828,70 1123,73.581722 1123,78 L1123,86 C1123,90.418278 1119.41828,94 1115,94 L1107,94 C1102.58172,94 1099,90.418278 1099,86 L1099,78 C1099,73.581722 1102.58172,70 1107,70 L1115,70 Z M1112.72619,74.7185889 C1110.78789,74.7185889 1109.46088,75.9017277 1109.46088,78.0744708 L1109.46088,79.9467621 L1107.26867,79.9467621 L1107.26867,82.4855564 L1109.46088,82.4855564 L1109.46088,88.9999999 L1112.08266,88.9999999 L1112.08266,82.4855564 L1114.26926,82.4855564 L1114.59667,79.9467621 L1112.08266,79.9467621 L1112.08266,78.3259024 C1112.08266,77.5908629 1112.28677,77.0899578 1113.34081,77.0899578 L1114.68518,77.0893703 L1114.68518,74.8186524 C1114.45268,74.787713 1113.65464,74.7185889 1112.72619,74.7185889 Z" id="ic_facebook"></path>
        </g>
    </g>
</svg>