<?xml version="1.0" encoding="UTF-8"?>
<svg width="24px" height="24px" viewBox="0 0 24 24" version="1.1" xmlns="http://www.w3.org/2000/svg" xmlns:xlink="http://www.w3.org/1999/xlink">
    <title>ic_instagram</title>
    <g id="Page-1" stroke="none" stroke-width="1" fill="none" fill-rule="evenodd">
        <g id="2---Admins-form" transform="translate(-1216.000000, -70.000000)" fill="#FFFFFF">
            <path d="M1232,70 C1236.41828,70 1240,73.581722 1240,78 L1240,86 C1240,90.418278 1236.41828,94 1232,94 L1224,94 C1219.58172,94 1216,90.418278 1216,86 L1216,78 C1216,73.581722 1219.58172,70 1224,70 L1232,70 Z M1229.0636,76.0019066 L1226.93641,76.0019066 C1226.22432,76.0055191 1225.98934,76.0149753 1225.52621,76.0361066 C1224.88758,76.0652349 1224.45142,76.1666716 1224.06977,76.3150041 C1223.67522,76.4683144 1223.34061,76.6734744 1223.00703,77.007032 C1222.67347,77.3406134 1222.46831,77.675219 1222.315,78.069772 C1222.16667,78.4514162 1222.06523,78.8875776 1222.03611,79.5262077 C1222.01305,80.0314423 1222.0039,80.2651577 1222.00106,81.1429808 L1222.00191,83.063595 C1222.00552,83.7756805 1222.01498,84.0106606 1222.03611,84.4737923 C1222.06523,85.1124224 1222.16667,85.5485838 1222.315,85.930228 C1222.46831,86.324781 1222.67347,86.6593866 1223.00703,86.992968 C1223.34061,87.3265256 1223.67522,87.5316856 1224.06977,87.6850197 C1224.45142,87.8333284 1224.88758,87.9347651 1225.52621,87.9638934 C1226.09881,87.9900194 1226.32265,87.9982989 1227.53063,87.9997525 L1228.69825,87.9993675 C1229.70874,87.9971156 1229.93937,87.9882777 1230.47379,87.9638934 C1231.11242,87.9347651 1231.54858,87.8333284 1231.93023,87.6850197 C1232.32478,87.5316856 1232.65939,87.3265256 1232.99297,86.992968 C1233.32653,86.6593866 1233.53169,86.324781 1233.68502,85.930228 C1233.83333,85.5485838 1233.93477,85.1124224 1233.96389,84.4737923 C1233.99002,83.9011931 1233.9983,83.6773452 1233.99975,82.4693843 L1233.99937,81.301764 C1233.99712,80.2912584 1233.98828,80.0606336 1233.96389,79.5262077 C1233.93477,78.8875776 1233.83333,78.4514162 1233.68502,78.069772 C1233.53169,77.675219 1233.32653,77.3406134 1232.99297,77.007032 C1232.65939,76.6734744 1232.32478,76.4683144 1231.93023,76.3150041 C1231.54858,76.1666716 1231.11242,76.0652349 1230.47379,76.0361066 C1229.96856,76.0130542 1229.73484,76.0038962 1228.85703,76.0010619 Z M1228.00001,78.9189209 C1229.70164,78.9189209 1231.08108,80.298356 1231.08108,82.0000119 C1231.08108,83.701644 1229.70164,85.0810791 1228.00001,85.0810791 C1226.29836,85.0810791 1224.91892,83.701644 1224.91892,82.0000119 C1224.91892,80.298356 1226.29836,78.9189209 1228.00001,78.9189209 Z M1228.00001,80 C1226.89543,80 1226,80.8954253 1226,82.0000119 C1226,83.1045747 1226.89543,84 1228.00001,84 C1229.10457,84 1230,83.1045747 1230,82.0000119 C1230,80.8954253 1229.10457,80 1228.00001,80 Z M1231.20281,78.0771791 C1231.60046,78.0771791 1231.92282,78.3995427 1231.92282,78.797192 C1231.92282,79.1948412 1231.60046,79.517181 1231.20281,79.517181 C1230.80518,79.517181 1230.48282,79.1948412 1230.48282,78.797192 C1230.48282,78.3995427 1230.80518,78.0771791 1231.20281,78.0771791 Z" id="ic_instagram"></path>
        </g>
    </g>
</svg>