<?xml version="1.0" encoding="UTF-8"?>
<svg width="24px" height="24px" viewBox="0 0 24 24" version="1.1" xmlns="http://www.w3.org/2000/svg" xmlns:xlink="http://www.w3.org/1999/xlink">
    <title>ic_twitter</title>
    <g id="Page-1" stroke="none" stroke-width="1" fill="none" fill-rule="evenodd">
        <g id="2---Admins-form" transform="translate(-1177.000000, -70.000000)" fill="#FFFFFF">
            <path d="M1193,70 C1197.41828,70 1201,73.581722 1201,78 L1201,86 C1201,90.418278 1197.41828,94 1193,94 L1185,94 C1180.58172,94 1177,90.418278 1177,86 L1177,78 C1177,73.581722 1180.58172,70 1185,70 L1193,70 Z M1192.05287,77 C1190.57232,77 1189.37116,78.2317466 1189.37116,79.7507695 C1189.37116,79.9664235 1189.39419,80.1757811 1189.44024,80.377268 C1187.2106,80.2623575 1185.23424,79.1683462 1183.91028,77.5021433 C1183.67925,77.9098396 1183.54724,78.3828618 1183.54724,78.8865792 C1183.54724,79.8404941 1184.0208,80.6826467 1184.74073,81.1761324 C1184.30171,81.1627524 1183.88725,81.0376101 1183.52498,80.8329749 L1183.52498,80.8668184 C1183.52498,82.2000955 1184.44984,83.3122092 1185.67787,83.5640679 C1185.45298,83.6286067 1185.21582,83.6608761 1184.97098,83.6608761 C1184.79829,83.6608761 1184.62944,83.6443479 1184.46596,83.6120785 C1184.8075,84.7045157 1185.7976,85.5002319 1186.9719,85.5214824 C1186.05395,86.2597433 1184.89653,86.699709 1183.64011,86.699709 C1183.42367,86.699709 1183.20953,86.6871161 1183,86.6619302 C1184.18735,87.4411181 1185.59805,87.896825 1187.11236,87.896825 C1192.04749,87.896825 1194.74532,83.7057385 1194.74532,80.0703152 C1194.74532,79.9506823 1194.74301,79.8310494 1194.73841,79.7137777 C1195.26262,79.3257579 1195.71776,78.8417169 1196.07619,78.2899889 C1195.59572,78.5087912 1195.07842,78.6567582 1194.53578,78.7228711 C1195.08993,78.3828618 1195.51513,77.8437267 1195.71546,77.201487 C1195.19662,77.5163104 1194.62328,77.7453444 1194.0108,77.8681255 C1193.52266,77.3337128 1192.82499,77 1192.05287,77 Z" id="ic_twitter"></path>
        </g>
    </g>
</svg>