<?xml version="1.0" encoding="UTF-8"?>
<svg width="24px" height="24px" viewBox="0 0 24 24" version="1.1" xmlns="http://www.w3.org/2000/svg" xmlns:xlink="http://www.w3.org/1999/xlink">
    <title>ic_youtube</title>
    <g id="Page-1" stroke="none" stroke-width="1" fill="none" fill-rule="evenodd">
        <g id="2---Admins-form" transform="translate(-1138.000000, -70.000000)" fill="#FFFFFF">
            <path d="M1154,70 C1158.41828,70 1162,73.581722 1162,78 L1162,86 C1162,90.418278 1158.41828,94 1154,94 L1146,94 C1141.58172,94 1138,90.418278 1138,86 L1138,78 C1138,73.581722 1141.58172,70 1146,70 L1154,70 Z M1154.54545,77 L1146,77 C1144.34315,77 1143,78.3431458 1143,80 L1143,80 L1143,84 C1143,85.6568542 1144.34315,87 1146,87 L1146,87 L1154.54545,87 C1156.20231,87 1157.54545,85.6568542 1157.54545,84 L1157.54545,84 L1157.54545,80 C1157.54545,78.3431458 1156.20231,77 1154.54545,77 L1154.54545,77 Z M1148.45455,79.7272727 L1152.09091,81.9853071 L1148.45455,84.2727273 L1148.45455,79.7272727 Z" id="ic_youtube"></path>
        </g>
    </g>
</svg>